# Blender v2.79 (sub 0) OBJ File: ''
# www.blender.org
mtllib altmodel.mtl
o model
v -0.463027 0.614171 0.478278
v -0.463027 0.952533 0.478278
v -0.463027 0.614171 -0.460084
v -0.463027 0.952533 -0.460084
v 0.475334 0.614171 0.478278
v 0.475334 0.952533 0.478278
v 0.475334 0.614171 -0.460084
v 0.475334 0.952533 -0.460084
v -0.212589 0.428543 -0.209645
v -0.212589 0.428543 0.227839
v 0.224896 0.428543 -0.209645
v 0.224896 0.428543 0.227839
v -0.212589 0.005420 -0.209645
v -0.212589 0.005420 0.227839
v 0.224896 0.005420 -0.209645
v 0.224896 0.005420 0.227839
vt 0.294247 1.000000
vt 0.147124 1.000000
vt 0.147124 0.504484
vt 0.294247 0.504483
vt 0.816021 0.321460
vt 0.816021 0.500137
vt 0.408011 0.500137
vt 0.408011 0.321460
vt 0.000000 0.504483
vt 0.147124 0.504484
vt 0.147124 1.000000
vt 0.000000 1.000000
vt 0.000000 0.106397
vt 0.000000 0.000000
vt 0.408011 0.000000
vt 0.408011 0.106397
vt 0.108894 0.271013
vt 0.108894 0.456609
vt 0.816021 0.500137
vt 0.816021 0.995654
vt 0.408011 0.995654
vt 0.408011 0.500137
vt 0.816021 0.231021
vt 0.816021 0.000000
vt 1.000000 0.000000
vt 1.000000 0.231021
vt 0.299117 0.271013
vt 0.516904 0.223436
vt 0.707128 0.223436
vt 0.408011 0.504483
vt 0.299117 0.456609
vt 1.000000 0.231021
vt 1.000000 0.462041
vt 0.816021 0.462041
vt 0.816021 0.231021
vt 0.299117 0.404063
vt 0.108894 0.404063
vt 0.516904 0.000000
vt 0.707128 0.000000
vn -1.0000 -0.0000 0.0000
vn 0.0000 0.0000 -1.0000
vn 1.0000 0.0000 0.0000
vn 0.0000 -0.0000 1.0000
vn 0.5955 -0.8034 0.0000
vn 0.0000 1.0000 -0.0000
vn 0.0000 -0.8034 0.5955
vn 0.0000 -0.8034 -0.5955
vn -0.5955 -0.8034 0.0000
usemtl mat20
s off
f 1/1/1 2/2/1 4/3/1 3/4/1
f 3/5/2 4/6/2 8/7/2 7/8/2
f 7/9/3 8/10/3 6/11/3 5/12/3
f 5/13/4 6/14/4 2/15/4 1/16/4
f 7/9/5 5/13/5 12/17/5 11/18/5
f 8/19/6 4/20/6 2/21/6 6/22/6
f 11/23/3 12/24/3 16/25/3 15/26/3
f 5/13/7 1/16/7 10/27/7 12/17/7
f 3/5/8 7/8/8 11/28/8 9/29/8
f 1/16/9 3/30/9 9/31/9 10/27/9
f 10/32/1 9/33/1 13/34/1 14/35/1
f 12/17/4 10/27/4 14/36/4 16/37/4
f 9/29/2 11/28/2 15/38/2 13/39/2
