# Blender v2.79 (sub 0) OBJ File: ''
# www.blender.org
mtllib model.mtl
o model
v 0.000000 1.000982 -0.063010
v 0.031505 1.000982 -0.054568
v 0.031505 0.310982 -0.054568
v 0.000000 0.310982 -0.063010
v 0.054568 1.000982 -0.031505
v 0.054569 0.310982 -0.031505
v 0.063010 1.000982 0.000000
v 0.063010 0.310982 -0.000000
v 0.054568 1.000982 0.031505
v 0.054569 0.310982 0.031505
v 0.031505 1.000982 0.054568
v 0.031505 0.310982 0.054568
v 0.000000 1.000982 0.063010
v 0.000000 0.310982 0.063010
v -0.031505 1.000982 0.054568
v -0.031505 0.310982 0.054568
v -0.054568 1.000982 0.031505
v -0.054568 0.310982 0.031505
v -0.063010 1.000982 0.000000
v -0.063010 0.310982 -0.000000
v -0.054568 1.000982 -0.031505
v -0.054568 0.310982 -0.031505
v -0.031505 1.000982 -0.054568
v -0.031505 0.310982 -0.054568
v -0.030000 0.016339 -0.380000
v -0.030000 0.016339 -0.510000
v 0.030000 0.016339 -0.510000
v 0.029999 0.016339 -0.380000
v 0.030000 0.016339 0.510001
v -0.030000 0.016339 0.510000
v -0.030000 0.016339 0.390000
v 0.030000 0.016339 0.390000
v 0.030000 0.336339 0.000000
v 0.030000 0.226339 0.000000
v -0.030000 0.226339 0.000000
v -0.030000 0.336339 0.000000
v 0.000000 1.011339 -0.510000
v 0.255000 1.011339 -0.441673
v 0.255000 0.971339 -0.441673
v 0.000000 0.971339 -0.510000
v 0.441673 1.011339 -0.255000
v 0.441673 0.971339 -0.255000
v 0.510000 1.011339 0.000000
v 0.510000 0.971339 0.000000
v 0.441673 1.011339 0.255000
v 0.441673 0.971339 0.255000
v 0.255000 1.011339 0.441673
v 0.255000 0.971339 0.441673
v -0.000000 1.011339 0.510000
v -0.000000 0.971339 0.510000
v -0.255000 1.011339 0.441673
v -0.255000 0.971339 0.441673
v -0.441673 1.011339 0.255000
v -0.441673 0.971339 0.255000
v -0.510000 1.011339 -0.000000
v -0.510000 0.971339 -0.000000
v -0.441673 1.011339 -0.255000
v -0.441673 0.971339 -0.255000
v -0.255000 1.011339 -0.441673
v -0.255000 0.971339 -0.441673
v -0.380000 0.016339 0.030000
v -0.510000 0.016339 0.030000
v -0.510000 0.016339 -0.030000
v -0.380000 0.016339 -0.030000
v 0.510001 0.016339 -0.030000
v 0.510001 0.016339 0.030000
v 0.390000 0.016339 0.030000
v 0.390000 0.016339 -0.030000
v 0.000000 0.336340 -0.030000
v 0.000000 0.226339 -0.030000
v 0.000000 0.226339 0.030000
v 0.000000 0.336340 0.030000
vt 0.706110 0.491334
vt 0.722250 0.491334
vt 0.722250 0.835431
vt 0.706110 0.835431
vt 0.735663 0.491334
vt 0.735663 0.835431
vt 0.880584 0.835431
vt 0.864956 0.835431
vt 0.864956 0.491334
vt 0.880584 0.491334
vt 0.849328 0.835431
vt 0.849328 0.491334
vt 0.837887 0.835431
vt 0.837887 0.491334
vt 0.795190 0.491334
vt 0.810818 0.491334
vt 0.810818 0.835431
vt 0.795190 0.835431
vt 0.826446 0.491334
vt 0.826447 0.835431
vt 0.837887 0.491334
vt 0.837887 0.835431
vt 0.647472 0.491334
vt 0.662015 0.491334
vt 0.662015 0.835431
vt 0.647472 0.835431
vt 0.678155 0.491334
vt 0.678155 0.835431
vt 0.691568 0.491334
vt 0.691568 0.835431
vt 0.847483 0.888002
vt 0.833471 0.896135
vt 0.817292 0.896135
vt 0.803280 0.888002
vt 0.795190 0.873916
vt 0.795190 0.857650
vt 0.803280 0.843564
vt 0.817292 0.835431
vt 0.833471 0.835431
vt 0.847483 0.843564
vt 0.855573 0.857650
vt 0.855573 0.873916
vt 0.707855 0.857650
vt 0.707855 0.873916
vt 0.699765 0.888002
vt 0.685753 0.896135
vt 0.669574 0.896135
vt 0.655562 0.888002
vt 0.647472 0.873916
vt 0.647472 0.857650
vt 0.655562 0.843564
vt 0.669574 0.835431
vt 0.685753 0.835431
vt 0.699765 0.843564
vt 0.317475 1.000000
vt 0.158738 0.745667
vt 0.317475 0.551177
vt 0.213304 0.745667
vt 0.317475 0.935170
vt 0.543301 0.740997
vt 0.647472 0.931916
vt 0.488735 0.740997
vt 0.647472 0.491334
vt 0.647472 0.554973
vt 0.880584 0.685641
vt 0.910348 0.685641
vt 0.910529 0.875326
vt 0.880766 0.875326
vt 0.765427 1.000000
vt 0.765427 0.745667
vt 0.795190 0.745667
vt 0.795190 1.000000
vt 0.880766 0.491334
vt 0.910529 0.491334
vt 0.765427 0.491334
vt 0.795190 0.491334
vt 0.317475 0.491334
vt 0.647472 0.990660
vt 0.960316 0.731805
vt 0.960315 0.600474
vt 0.980158 0.600474
vt 0.980158 0.731805
vt 0.960315 0.491334
vt 0.980158 0.491334
vt 1.000000 0.491334
vt 1.000000 0.618500
vt 0.980158 0.618500
vt 1.000000 0.745667
vt 0.980158 0.745667
vt 0.960315 0.491334
vt 0.960315 0.584426
vt 0.940473 0.584426
vt 0.940473 0.491334
vt 0.960315 0.711592
vt 0.940473 0.711592
vt 0.960315 0.838759
vt 0.940473 0.838759
vt 0.960315 0.931851
vt 0.940473 0.931851
vt 0.977468 0.358804
vt 0.977468 0.240472
vt 0.997310 0.240471
vt 0.997310 0.358804
vt 0.977468 0.109140
vt 0.997310 0.109140
vt 0.977468 0.000000
vt 0.997310 0.000000
vt 0.960316 0.850137
vt 0.980158 0.850137
vt 0.554212 0.065826
vt 0.667623 0.000000
vt 0.798579 0.000000
vt 0.911990 0.065826
vt 0.977468 0.179841
vt 0.977468 0.311493
vt 0.911990 0.425507
vt 0.798579 0.491334
vt 0.667623 0.491334
vt 0.554212 0.425507
vt 0.488735 0.311493
vt 0.488735 0.179841
vt 0.488735 0.311493
vt 0.423256 0.425507
vt 0.309845 0.491334
vt 0.178889 0.491334
vt 0.065478 0.425507
vt 0.000000 0.311493
vt 0.000000 0.179840
vt 0.065478 0.065826
vt 0.178889 0.000000
vt 0.309845 0.000000
vt 0.423257 0.065826
vt 0.488735 0.179841
vt 0.476213 0.990660
vt 0.317475 0.740997
vt 0.476213 0.550078
vt 0.372041 0.740997
vt 0.476213 0.927021
vt 0.054566 0.745667
vt 0.158738 0.940157
vt 0.000000 0.745667
vt 0.158737 0.491334
vt 0.158738 0.556163
vt 0.940292 0.681019
vt 0.910529 0.681019
vt 0.910710 0.491334
vt 0.940473 0.491334
vt 0.735663 1.000000
vt 0.735663 0.745667
vt 0.765427 0.745667
vt 0.765427 1.000000
vt 0.940473 0.875326
vt 0.910710 0.875326
vt 0.735663 0.491334
vt 0.765427 0.491334
vt 0.476213 0.491334
vt 0.158738 1.000000
vn 0.2588 0.0000 -0.9659
vn 0.7071 0.0000 -0.7071
vn 0.9659 0.0000 -0.2588
vn 0.9659 0.0000 0.2588
vn 0.7071 0.0000 0.7071
vn 0.2588 -0.0000 0.9659
vn -0.2588 -0.0000 0.9659
vn -0.7071 -0.0000 0.7071
vn -0.9659 -0.0000 0.2588
vn -0.9659 -0.0000 -0.2588
vn -0.7071 -0.0000 -0.7071
vn -0.2588 0.0000 -0.9659
vn 0.0000 -1.0000 0.0000
vn 0.0000 1.0000 0.0000
vn -1.0000 -0.0000 0.0000
vn 0.0000 -0.8752 0.4837
vn 0.0000 0.8471 -0.5315
vn -0.0000 -0.8805 -0.4741
vn -0.0000 0.8471 0.5315
vn 1.0000 0.0000 -0.0000
vn 0.0000 -0.0000 1.0000
vn 0.4837 -0.8752 -0.0000
vn -0.5315 0.8471 0.0000
vn -0.4741 -0.8805 -0.0000
vn 0.5315 0.8471 -0.0000
vn 0.0000 0.0000 -1.0000
usemtl mat20
s 1
f 1/1/1 2/2/1 3/3/1 4/4/1
f 2/2/2 5/5/2 6/6/2 3/3/2
f 5/7/3 7/8/3 8/9/3 6/10/3
f 7/8/4 9/11/4 10/12/4 8/9/4
f 9/11/5 11/13/5 12/14/5 10/12/5
f 11/15/6 13/16/6 14/17/6 12/18/6
f 13/16/7 15/19/7 16/20/7 14/17/7
f 15/19/8 17/21/8 18/22/8 16/20/8
f 17/23/9 19/24/9 20/25/9 18/26/9
f 19/24/10 21/27/10 22/28/10 20/25/10
f 21/27/11 23/29/11 24/30/11 22/28/11
f 23/29/12 1/1/12 4/4/12 24/30/12
f 4/31/13 3/32/13 6/33/13 8/34/13 10/35/13 12/36/13 14/37/13 16/38/13 18/39/13 20/40/13 22/41/13 24/42/13
f 23/43/14 21/44/14 19/45/14 17/46/14 15/47/14 13/48/14 11/49/14 9/50/14 7/51/14 5/52/14 2/53/14 1/54/14
f 27/55/15 33/56/15 32/57/15 34/58/15 28/59/15
f 35/60/15 31/61/15 36/62/15 26/63/15 25/64/15
f 34/65/16 35/66/16 25/67/16 28/68/16
f 26/69/17 36/70/17 33/71/17 27/72/17
f 34/65/18 32/73/18 31/74/18 35/66/18
f 36/70/19 30/75/19 29/76/19 33/71/19
f 33/56/20 29/77/20 32/57/20
f 31/61/15 30/78/15 36/62/15
f 37/79/1 38/80/1 39/81/1 40/82/1
f 38/80/2 41/83/2 42/84/2 39/81/2
f 41/85/3 43/86/3 44/87/3 42/84/3
f 43/86/4 45/88/4 46/89/4 44/87/4
f 45/90/5 47/91/5 48/92/5 46/93/5
f 47/91/6 49/94/6 50/95/6 48/92/6
f 49/94/7 51/96/7 52/97/7 50/95/7
f 51/96/8 53/98/8 54/99/8 52/97/8
f 53/100/9 55/101/9 56/102/9 54/103/9
f 55/101/10 57/104/10 58/105/10 56/102/10
f 57/104/11 59/106/11 60/107/11 58/105/11
f 59/108/12 37/79/12 40/82/12 60/109/12
f 40/110/13 39/111/13 42/112/13 44/113/13 46/114/13 48/115/13 50/116/13 52/117/13 54/118/13 56/119/13 58/120/13 60/121/13
f 59/122/14 57/123/14 55/124/14 53/125/14 51/126/14 49/127/14 47/128/14 45/129/14 43/130/14 41/131/14 38/132/14 37/133/14
f 63/134/21 69/135/21 68/136/21 70/137/21 64/138/21
f 71/139/21 67/140/21 72/141/21 62/142/21 61/143/21
f 70/144/22 71/145/22 61/146/22 64/147/22
f 62/148/23 72/149/23 69/150/23 63/151/23
f 70/144/24 68/152/24 67/153/24 71/145/24
f 72/149/25 66/154/25 65/155/25 69/150/25
f 69/135/26 65/156/26 68/136/26
f 67/140/21 66/157/21 72/141/21
