<?xml version="1.0" encoding="UTF-8" standalone="no"?>
<!-- Created with Inkscape (http://www.inkscape.org/) -->

<svg
   xmlns:dc="http://purl.org/dc/elements/1.1/"
   xmlns:cc="http://creativecommons.org/ns#"
   xmlns:rdf="http://www.w3.org/1999/02/22-rdf-syntax-ns#"
   xmlns:svg="http://www.w3.org/2000/svg"
   xmlns="http://www.w3.org/2000/svg"
   xmlns:sodipodi="http://sodipodi.sourceforge.net/DTD/sodipodi-0.dtd"
   xmlns:inkscape="http://www.inkscape.org/namespaces/inkscape"
   width="256"
   height="256"
   viewBox="0 0 67.733332 67.733335"
   version="1.1"
   id="svg8"
   inkscape:version="0.92.2 5c3e80d, 2017-08-06"
   sodipodi:docname="cr3_option_touch_hc-256x256-src.svg">
  <defs
     id="defs2" />
  <sodipodi:namedview
     id="base"
     pagecolor="#ffffff"
     bordercolor="#666666"
     borderopacity="1.0"
     inkscape:pageopacity="0.0"
     inkscape:pageshadow="2"
     inkscape:zoom="1.979899"
     inkscape:cx="160.18061"
     inkscape:cy="134.09731"
     inkscape:document-units="px"
     inkscape:current-layer="layer1"
     showgrid="false"
     units="px"
     inkscape:window-width="1467"
     inkscape:window-height="1059"
     inkscape:window-x="1340"
     inkscape:window-y="22"
     inkscape:window-maximized="0"
     inkscape:pagecheckerboard="true" />
  <metadata
     id="metadata5">
    <rdf:RDF>
      <cc:Work
         rdf:about="">
        <dc:format>image/svg+xml</dc:format>
        <dc:type
           rdf:resource="http://purl.org/dc/dcmitype/StillImage" />
        <dc:title />
      </cc:Work>
    </rdf:RDF>
  </metadata>
  <g
     inkscape:label="Layer 1"
     inkscape:groupmode="layer"
     id="layer1"
     transform="translate(0,-229.26666)">
    <path
       inkscape:connector-curvature="0"
       id="path855"
       d="m 60.677803,238.73828 c -4.40545,3.07176 -8.23462,8.00579 -14.097534,6.06448 -7.026374,-0.38221 -14.66714,-0.85349 -21.206342,1.60614 -5.215443,-0.14131 -13.408142,-2.09351 -15.127766,4.80985 -0.9981489,3.41358 -0.0411,7.68471 3.054687,9.71289 -3.7932879,5.44768 -12.47790889,10.36407 -9.7539059,18.14844 1.98559,6.20516 11.7378149,7.87618 14.6431089,1.43135 2.584643,-5.14869 5.722404,-1.14986 8.940875,1.21318 5.465529,5.26325 14.199344,3.17568 18.513672,-2.45117 3.555315,-5.18451 11.133385,-3.25975 15.734375,-7.32032 6.0626,-2.57123 2.25025,-10.36592 3.29772,-15.57617 3.8e-4,-6.88021 0.001,-13.76041 0.001,-20.64062 -1.33333,1.00065 -2.66666,2.0013 -4,3.00195 z m -4.46289,26.41016 c -4.98212,3.31896 -12.412308,1.44991 -15.64844,7.20117 -1.325339,1.91662 -7.232145,6.12031 -2.990511,1.6541 7.859382,-4.60771 -1.108835,-7.83728 -1.008737,-11.95155 -1.186275,-3.5962 -10.324296,-5.54602 -5.953537,-7.76013 5.702141,-2.67811 13.22377,-0.76028 19.587555,-0.73539 6.27142,-0.56173 6.86874,-0.0536 6.01437,7.10547 -2.3e-4,1.49544 -4.7e-4,2.99088 -7e-4,4.48633 z m -30.197268,-10.25 c -0.551511,1.45229 -0.871,-0.5661 0,0 z"
       style="color:#000000;font-style:normal;font-variant:normal;font-weight:normal;font-stretch:normal;font-size:medium;line-height:normal;font-family:sans-serif;font-variant-ligatures:normal;font-variant-position:normal;font-variant-caps:normal;font-variant-numeric:normal;font-variant-alternates:normal;font-feature-settings:normal;text-indent:0;text-align:start;text-decoration:none;text-decoration-line:none;text-decoration-style:solid;text-decoration-color:#000000;letter-spacing:normal;word-spacing:normal;text-transform:none;writing-mode:lr-tb;direction:ltr;text-orientation:mixed;dominant-baseline:auto;baseline-shift:baseline;text-anchor:start;white-space:normal;shape-padding:0;clip-rule:nonzero;display:inline;overflow:visible;visibility:visible;opacity:1;isolation:auto;mix-blend-mode:normal;color-interpolation:sRGB;color-interpolation-filters:linearRGB;solid-color:#000000;solid-opacity:1;vector-effect:none;fill:#ffffff;fill-opacity:1;fill-rule:nonzero;stroke:none;stroke-width:3.46029878;stroke-linecap:butt;stroke-linejoin:miter;stroke-miterlimit:4;stroke-dasharray:none;stroke-dashoffset:0;stroke-opacity:1;color-rendering:auto;image-rendering:auto;shape-rendering:auto;text-rendering:auto;enable-background:accumulate" />
    <path
       style="color:#000000;font-style:normal;font-variant:normal;font-weight:normal;font-stretch:normal;font-size:medium;line-height:normal;font-family:sans-serif;font-variant-ligatures:normal;font-variant-position:normal;font-variant-caps:normal;font-variant-numeric:normal;font-variant-alternates:normal;font-feature-settings:normal;text-indent:0;text-align:start;text-decoration:none;text-decoration-line:none;text-decoration-style:solid;text-decoration-color:#000000;letter-spacing:normal;word-spacing:normal;text-transform:none;writing-mode:lr-tb;direction:ltr;text-orientation:mixed;dominant-baseline:auto;baseline-shift:baseline;text-anchor:start;white-space:normal;shape-padding:0;clip-rule:nonzero;display:inline;overflow:visible;visibility:visible;opacity:1;isolation:auto;mix-blend-mode:normal;color-interpolation:sRGB;color-interpolation-filters:linearRGB;solid-color:#000000;solid-opacity:1;vector-effect:none;fill:#000000;fill-opacity:1;fill-rule:nonzero;stroke:none;stroke-width:3.46029878;stroke-linecap:butt;stroke-linejoin:miter;stroke-miterlimit:4;stroke-dasharray:none;stroke-dashoffset:0;stroke-opacity:1;color-rendering:auto;image-rendering:auto;shape-rendering:auto;text-rendering:auto;enable-background:accumulate"
       d="m 62.177734,240.73828 -2.769531,2.07813 -6.679687,5.01171 c -0.573229,-0.0623 -3.847959,-0.43018 -8.546875,-0.65624 -5.089781,-0.24487 -11.036045,-0.32117 -15.103516,0.65234 l -0.101563,0.0254 -0.09766,0.0352 c -0.864906,0.32066 -1.203094,0.74748 -1.552734,1.0957 -0.0043,0.004 -0.0036,0.004 -0.0078,0.008 -1.004432,-0.0435 -7.941117,-0.34832 -11.333984,-0.35547 l -0.345703,-0.002 -0.31836,0.13281 c -1.242367,0.51373 -2.020973,1.48846 -2.460937,2.55664 -0.645646,1.56756 -0.628352,3.27299 -0.142578,4.79688 0.33956,1.0652 0.967293,2.22622 2.271484,2.9082 0.959843,0.50193 1.889815,0.58947 2.783203,0.59766 -2.281149,2.59541 -9.3124134,10.58201 -11.3984371,13.12109 l -0.1933594,0.23633 -0.1015625,0.28711 c -0.7037222,1.99712 -0.8773473,4.50022 0.6386719,6.47656 1.4743404,1.92202 3.9393801,2.76326 6.3007811,2.25391 l 0.548828,-0.11719 0.373047,-0.41602 c 1.889672,-2.10109 5.808809,-6.3387 7.087891,-7.72265 l 2.816406,2.48633 0.230469,-0.0977 3.484375,2.75976 0.359375,-0.0508 0.03711,0.39844 0.636719,0.45899 c 0,0 0.687832,0.49924 1.576172,1.04296 0.888339,0.54373 1.907129,1.1602 3.097656,1.44141 1.317234,0.31114 2.563205,0.14779 3.628906,-0.0918 1.231584,-0.27684 2.401892,-0.78822 3.439453,-1.48828 1.554273,-1.04869 3.210471,-2.72286 4.585938,-4.18164 1.141318,-1.21044 1.731491,-1.91114 2.009766,-2.23633 0.906285,-0.16863 6.725857,-1.26677 10.21875,-2.73828 1.868777,-0.78727 4.287109,-2.55273 4.287109,-2.55273 l 0.740234,-0.51563 z m -3.460937,6.92188 -0.002,18.84179 c -0.722127,0.47533 -2.132843,1.42727 -2.908203,1.75391 -2.873934,1.21075 -10.109375,2.65234 -10.109375,2.65234 l -0.601563,0.11328 -0.396484,0.46875 c 0,0 -0.990579,1.17123 -2.296875,2.55665 -1.306296,1.38541 -2.976288,2.99219 -4.003906,3.68554 -0.680116,0.45889 -1.473618,0.80483 -2.263672,0.98242 -0.7903,0.17768 -1.540084,0.22578 -2.074219,0.0996 -0.307626,-0.0727 -1.319356,-0.55814 -2.085938,-1.02734 -0.359661,-0.22014 -0.397146,-0.25821 -0.636718,-0.41992 l 6.912109,-7.94922 -2.611328,-2.26953 -7.048828,8.10547 -0.04102,0.006 -1.460937,-1.15625 0.03516,-1.9375 c 0.05263,-0.26252 0.0086,-0.36275 0.224609,-0.83594 0.08395,-0.18387 0.629687,-0.99635 1.337891,-1.8418 0.708203,-0.84545 1.590017,-1.8077 2.445312,-2.70703 1.710592,-1.79865 3.306641,-3.33594 3.306641,-3.33594 l -2.402344,-2.49219 c 0,0 -1.638166,1.58015 -3.410156,3.44336 -0.885995,0.93161 -1.807526,1.93484 -2.591797,2.8711 -0.784271,0.93626 -1.42058,1.7195 -1.833984,2.625 -0.31499,0.68994 -0.280402,1.13622 -0.390625,1.6914 l -1.185547,-1.04687 c -0.0046,-0.23769 -0.01434,-0.28485 -0.0039,-0.63477 0.02187,-0.7332 0.171511,-1.64641 0.224609,-1.77929 0.533186,-1.33437 2.264228,-3.6156 3.84375,-5.37891 1.579522,-1.76331 2.984375,-3.08984 2.984375,-3.08984 l -2.376953,-2.51563 c 0,0 -1.499485,1.41681 -3.183594,3.29688 -1.684109,1.88006 -3.576323,4.14155 -4.480469,6.40429 -0.424061,1.06127 -0.442211,2.0691 -0.46875,2.95899 -0.01401,0.46966 -0.0014,0.55727 0.0059,0.85351 -0.565297,0.61123 -4.898903,5.30377 -7.269531,7.91993 -0.881918,0.0188 -2.0068677,-0.37475 -2.4355474,-0.9336 -0.4298325,-0.56035 -0.4987527,-1.83907 -0.1542968,-3 2.4932112,-3.00131 12.9140622,-14.86328 12.9140622,-14.86328 l 0.367188,-0.41601 0.376953,-3.75782 -2.234375,0.375 c 0,0 -0.829938,0.13753 -1.830078,0.18555 -1.000141,0.048 -2.198453,-0.14451 -2.310547,-0.20313 -0.09982,-0.0522 -0.436477,-0.44822 -0.578125,-0.89257 -0.24592,-0.77146 -0.224973,-1.76967 0.04687,-2.42969 0.09645,-0.23418 0.301731,-0.40477 0.455078,-0.52734 3.669265,0.0367 11.462891,0.36132 11.462891,0.36132 l 0.863281,0.0391 0.548828,-0.66797 c 0,0 0.16106,-0.19319 0.376953,-0.40821 0.183881,-0.18313 0.353102,-0.27778 0.267578,-0.25976 3.250977,-0.7456 9.069504,-0.78119 13.980469,-0.54492 4.970003,0.2391 9.039063,0.69336 9.039063,0.69336 l 0.68164,0.0762 z"
       id="path5"
       inkscape:connector-curvature="0" />
  </g>
</svg>
