<?xml version="1.0" encoding="UTF-8" standalone="no"?>
<!-- Created with Inkscape (http://www.inkscape.org/) -->

<svg
   xmlns:dc="http://purl.org/dc/elements/1.1/"
   xmlns:cc="http://creativecommons.org/ns#"
   xmlns:rdf="http://www.w3.org/1999/02/22-rdf-syntax-ns#"
   xmlns:svg="http://www.w3.org/2000/svg"
   xmlns="http://www.w3.org/2000/svg"
   xmlns:sodipodi="http://sodipodi.sourceforge.net/DTD/sodipodi-0.dtd"
   xmlns:inkscape="http://www.inkscape.org/namespaces/inkscape"
   width="48"
   height="48"
   viewBox="0 0 12.7 12.7"
   version="1.1"
   id="svg8"
   inkscape:version="0.92.2 5c3e80d, 2017-08-06"
   sodipodi:docname="cr3_button_tts_hc-48x48-src.svg">
  <defs
     id="defs2" />
  <sodipodi:namedview
     id="base"
     pagecolor="#ffffff"
     bordercolor="#666666"
     borderopacity="1.0"
     inkscape:pageopacity="0.0"
     inkscape:pageshadow="2"
     inkscape:zoom="5.6"
     inkscape:cx="5.0703015"
     inkscape:cy="10.562303"
     inkscape:document-units="px"
     inkscape:current-layer="layer1"
     showgrid="false"
     units="px"
     inkscape:pagecheckerboard="true"
     inkscape:window-width="1567"
     inkscape:window-height="996"
     inkscape:window-x="1280"
     inkscape:window-y="132"
     inkscape:window-maximized="0" />
  <metadata
     id="metadata5">
    <rdf:RDF>
      <cc:Work
         rdf:about="">
        <dc:format>image/svg+xml</dc:format>
        <dc:type
           rdf:resource="http://purl.org/dc/dcmitype/StillImage" />
        <dc:title />
      </cc:Work>
    </rdf:RDF>
  </metadata>
  <g
     inkscape:label="Layer 1"
     inkscape:groupmode="layer"
     id="layer1"
     transform="translate(0,-284.29998)">
    <path
       inkscape:connector-curvature="0"
       id="path1502"
       d="m 6.1242445,286.3512 c -0.738558,-0.009 -1.25153,0.60362 -1.963703,0.38241 -0.643867,-0.0357 -0.738926,0.88891 -1.073836,0.99321 -2.002459,-0.15071 -2.76322903,2.39091 -2.37763303,3.99356 0.141462,1.30315 1.39104203,2.54866 2.67012003,2.23087 0.241487,0.70514 1.06363,0.57732 1.550294,0.62012 0.884936,0.65945 2.066168,0.28537 2.894915,-0.047 1.13344,0.33483 1.641565,-1.12434 1.312063,-1.9544 0.578726,-1.28985 0.356137,-2.78066 0.0031,-4.0473 0.233569,-0.73317 -0.09372,-1.60994 -0.621152,-1.71152 -0.552931,-0.15466 -1.027498,0.0783 -1.517734,-0.32453 -0.280387,-0.0996 -0.579104,-0.14499 -0.876435,-0.13539 z m 0.0863,1.13068 c 0.817118,-0.16232 1.522836,1.29453 1.886188,0.55966 -0.499616,0.97431 0.689602,2.15165 0.208775,3.34346 -0.155821,0.74565 -0.570847,1.26677 -0.210842,1.91461 -0.434133,-0.84915 -1.143261,0.83592 -2.028817,0.51005 -0.748575,-0.13945 -1.574167,-1.02834 -1.70222,-0.68161 0.905245,-1.2389 0.833837,-3.09332 0.176215,-4.42247 -0.346353,-1.17846 -0.0974,0.0473 0.556741,-0.73016 0.301946,-0.2798 0.693217,-0.49568 1.11396,-0.49354 z m -3.351734,1.35754 c 0.793385,0.20844 -0.171887,1.23487 0.08165,1.81953 -0.184126,0.69827 0.553437,1.58306 0.1695,2.09289 -1.126829,0.30646 -1.447348,-1.40184 -1.337387,-2.25257 0.08623,-0.60162 0.328475,-1.58888 1.086239,-1.65985 z"
       style="color:#000000;font-style:normal;font-variant:normal;font-weight:normal;font-stretch:normal;font-size:medium;line-height:normal;font-family:sans-serif;font-variant-ligatures:normal;font-variant-position:normal;font-variant-caps:normal;font-variant-numeric:normal;font-variant-alternates:normal;font-feature-settings:normal;text-indent:0;text-align:start;text-decoration:none;text-decoration-line:none;text-decoration-style:solid;text-decoration-color:#000000;letter-spacing:normal;word-spacing:normal;text-transform:none;writing-mode:lr-tb;direction:ltr;text-orientation:mixed;dominant-baseline:auto;baseline-shift:baseline;text-anchor:start;white-space:normal;shape-padding:0;clip-rule:nonzero;display:inline;overflow:visible;visibility:visible;opacity:1;isolation:auto;mix-blend-mode:normal;color-interpolation:sRGB;color-interpolation-filters:linearRGB;solid-color:#000000;solid-opacity:1;vector-effect:none;fill:#ffffff;fill-opacity:1;fill-rule:evenodd;stroke:none;stroke-width:0.47005162;stroke-linecap:round;stroke-linejoin:miter;stroke-miterlimit:4;stroke-dasharray:none;stroke-dashoffset:0;stroke-opacity:1;marker:none;color-rendering:auto;image-rendering:auto;shape-rendering:auto;text-rendering:auto;enable-background:accumulate"
       sodipodi:nodetypes="ccccccccccccccccccccccccccc" />
    <g
       id="g4090"
       transform="matrix(0.3206699,0,0,0.3206699,-0.28277964,282.8748)">
      <ellipse
         ry="6.3639612"
         rx="3.6239223"
         cy="24.665476"
         cx="8.7504463"
         id="path4076"
         style="color:#000000;display:inline;overflow:visible;visibility:visible;opacity:1;fill:#ffffff;fill-opacity:1;fill-rule:nonzero;stroke:#000000;stroke-width:1.23615066;stroke-linecap:round;stroke-linejoin:round;stroke-miterlimit:4;stroke-dasharray:none;stroke-dashoffset:0;stroke-opacity:1;marker:none;marker-start:none;marker-mid:none;marker-end:none"
         transform="matrix(1.415965,0,0,1.258558,-2.667614,-6.200669)" />
      <ellipse
         ry="6.3639612"
         rx="3.6239223"
         cy="24.665476"
         cx="8.7504463"
         transform="matrix(1.081355,0,0,1.081355,1.232653,-1.829889)"
         id="path4058"
         style="color:#000000;display:inline;overflow:visible;visibility:visible;opacity:1;fill:#000000;fill-opacity:1;fill-rule:nonzero;stroke:none;stroke-width:0.86615634;stroke-linecap:round;stroke-linejoin:round;stroke-miterlimit:4;stroke-dasharray:none;stroke-dashoffset:0;stroke-opacity:1;marker:none;marker-start:none;marker-mid:none;marker-end:none" />
    </g>
    <path
       inkscape:connector-curvature="0"
       style="color:#000000;display:inline;overflow:visible;visibility:visible;fill:#ededed;fill-opacity:1;fill-rule:evenodd;stroke:#707070;stroke-width:0.24739581;stroke-linecap:round;stroke-linejoin:miter;stroke-miterlimit:4;stroke-dashoffset:0;stroke-opacity:1;marker:none;marker-start:none;marker-mid:none;marker-end:none"
       d="m 3.0958932,289.20001 1.7539584,-1.51511 -0.056687,6.20539 -1.7823018,-1.36687 c -0.6235565,-0.51019 -0.7369304,-2.78488 0.08503,-3.32341 z"
       id="path4542"
       sodipodi:nodetypes="ccccc" />
    <g
       style="display:inline"
       id="g4006"
       transform="matrix(0.2713669,0,0,0.37338721,-0.29284216,281.68889)">
      <path
         inkscape:connector-curvature="0"
         sodipodi:nodetypes="ccsssscscsscscsscscsssssssc"
         id="path3726"
         d="M 23.75,14 C 21.81001,14.04917 20.013366,14.683436 18.5,15.6875 18.13319,15.264088 17.60375,15 17,15 c -0.0345,0 -0.08734,8.54e-4 -0.125,0 -0.02799,-2e-4 -0.06855,-0.0026 -0.09375,0 C 15.773145,15.102481 15,15.965001 15,17 c 0,0.60375 0.264088,1.13319 0.6875,1.5 C 14.639107,20.080181 14,21.962011 14,24 c 0,2.033681 0.611921,3.921829 1.65625,5.5 C 15.243427,29.869532 15,30.401641 15,31 c 0,1.104 0.896,2.000001 2,2 0.60375,0 1.13319,-0.264089 1.5,-0.6875 C 20.080181,33.360893 21.962011,34 24,34 c 2.03799,0 3.919819,-0.639107 5.5,-1.6875 0.36681,0.423412 0.896251,0.687501 1.5,0.6875 1.103999,0 2,-0.895999 2,-2 0,-0.60375 -0.264088,-1.13319 -0.6875,-1.5 C 33.360893,27.919819 34,26.03799 34,24 34,21.962011 33.360893,20.080181 32.3125,18.5 32.735912,18.13319 33,17.60375 33,17 c 0,-1.104 -0.896001,-2 -2,-2 -0.0345,0 -0.08734,8.54e-4 -0.125,0 -0.02799,-2e-4 -0.06855,-0.0026 -0.09375,0 -0.504052,0.05124 -0.961951,0.298435 -1.28125,0.65625 -0.0067,-0.0044 -0.02455,0.0044 -0.03125,0 C 27.894622,14.620029 26.025064,14 24,14 c -0.08617,0 -0.164349,-0.0022 -0.25,0 z"
         style="color:#000000;display:inline;overflow:visible;visibility:visible;opacity:1;fill:#ffffff;fill-opacity:1;fill-rule:evenodd;stroke:#000000;stroke-width:1.47668338;stroke-linecap:round;stroke-linejoin:miter;stroke-miterlimit:4;stroke-dasharray:none;stroke-dashoffset:0;stroke-opacity:1;marker:none;marker-start:none;marker-mid:none;marker-end:none" />
      <ellipse
         cy="23.994076"
         cx="24.162912"
         id="path3636"
         style="color:#000000;display:inline;overflow:visible;visibility:visible;opacity:1;fill:#ffffff;fill-opacity:1;fill-rule:evenodd;stroke:#000000;stroke-width:0.73730183;stroke-linecap:round;stroke-linejoin:miter;stroke-miterlimit:4;stroke-dasharray:none;stroke-dashoffset:0;stroke-opacity:1;marker:none;marker-start:none;marker-mid:none;marker-end:none"
         rx="7.1921139"
         ry="7.739244" />
      <circle
         r="9.375"
         cy="9.375"
         cx="9.375"
         transform="matrix(0.367272,0,0,0.32,18.56254,21.125)"
         id="path3519"
         style="color:#000000;display:inline;overflow:visible;visibility:visible;opacity:1;fill:#ffffff;fill-opacity:1;fill-rule:evenodd;stroke:#030303;stroke-width:3.42738318;stroke-linecap:round;stroke-linejoin:miter;stroke-miterlimit:4;stroke-dasharray:none;stroke-dashoffset:0;stroke-opacity:1;marker:none;marker-start:none;marker-mid:none;marker-end:none" />
      <circle
         r="0.65625"
         cy="17.009872"
         cx="16.937016"
         id="path3718"
         style="color:#000000;display:inline;overflow:visible;visibility:visible;opacity:1;fill:#000000;fill-opacity:1;fill-rule:evenodd;stroke:none;stroke-width:1.44375002;stroke-linecap:round;stroke-linejoin:miter;stroke-miterlimit:4;stroke-dasharray:none;stroke-dashoffset:0;stroke-opacity:1;marker:none;marker-start:none;marker-mid:none;marker-end:none" />
      <circle
         r="0.6875"
         cy="31.142101"
         cx="16.998571"
         id="path3724"
         style="color:#000000;display:inline;overflow:visible;visibility:visible;opacity:1;fill:#000000;fill-opacity:1;fill-rule:evenodd;stroke:none;stroke-width:1.51250005;stroke-linecap:round;stroke-linejoin:miter;stroke-miterlimit:4;stroke-dasharray:none;stroke-dashoffset:0;stroke-opacity:1;marker:none;marker-start:none;marker-mid:none;marker-end:none" />
      <ellipse
         ry="0.68750006"
         rx="0.6875"
         cy="17.026722"
         cx="30.933949"
         id="path3724-3"
         style="color:#000000;display:inline;overflow:visible;visibility:visible;opacity:1;fill:#000000;fill-opacity:1;fill-rule:evenodd;stroke:none;stroke-width:1.51250017;stroke-linecap:round;stroke-linejoin:miter;stroke-miterlimit:4;stroke-dasharray:none;stroke-dashoffset:0;stroke-opacity:1;marker:none;marker-start:none;marker-mid:none;marker-end:none" />
      <ellipse
         ry="0.68750006"
         rx="0.6875"
         cy="30.940033"
         cx="30.810835"
         id="path3724-3-6"
         style="color:#000000;display:inline;overflow:visible;visibility:visible;opacity:1;fill:#000000;fill-opacity:1;fill-rule:evenodd;stroke:none;stroke-width:1.51250017;stroke-linecap:round;stroke-linejoin:miter;stroke-miterlimit:4;stroke-dasharray:none;stroke-dashoffset:0;stroke-opacity:1;marker:none;marker-start:none;marker-mid:none;marker-end:none" />
    </g>
    <path
       inkscape:connector-curvature="0"
       sodipodi:nodetypes="csc"
       id="path3488"
       d="m 9.8988171,292.81768 c 0.2269279,-0.53555 0.3663909,-1.27608 0.3663909,-2.08752 0,-0.81143 -0.139463,-1.55196 -0.3663909,-2.08752"
       style="color:#000000;display:inline;overflow:visible;visibility:visible;opacity:1;fill:none;fill-opacity:1;fill-rule:evenodd;stroke:#000000;stroke-width:0.5291667;stroke-linecap:round;stroke-linejoin:miter;stroke-miterlimit:4;stroke-dasharray:none;stroke-dashoffset:0;stroke-opacity:1;marker:none;marker-start:none;marker-mid:none;marker-end:none" />
    <path
       inkscape:connector-curvature="0"
       sodipodi:nodetypes="csc"
       id="path3496"
       d="m 10.603913,294.51046 c 0.410942,-0.96983 0.663497,-2.31086 0.663497,-3.7803 0,-1.46943 -0.252555,-2.81046 -0.663497,-3.78029"
       style="color:#000000;display:inline;overflow:visible;visibility:visible;opacity:1;fill:none;fill-opacity:1;fill-rule:evenodd;stroke:#000000;stroke-width:0.5291667;stroke-linecap:round;stroke-linejoin:miter;stroke-miterlimit:4;stroke-dasharray:none;stroke-dashoffset:0;stroke-opacity:1;marker:none;marker-start:none;marker-mid:none;marker-end:none" />
  </g>
</svg>
