<?xml version="1.0" encoding="UTF-8" standalone="no"?>
<!-- Created with Inkscape (http://www.inkscape.org/) -->

<svg
   xmlns:dc="http://purl.org/dc/elements/1.1/"
   xmlns:cc="http://creativecommons.org/ns#"
   xmlns:rdf="http://www.w3.org/1999/02/22-rdf-syntax-ns#"
   xmlns:svg="http://www.w3.org/2000/svg"
   xmlns="http://www.w3.org/2000/svg"
   xmlns:sodipodi="http://sodipodi.sourceforge.net/DTD/sodipodi-0.dtd"
   xmlns:inkscape="http://www.inkscape.org/namespaces/inkscape"
   width="48"
   height="48"
   viewBox="0 0 48 48"
   version="1.1"
   id="svg8"
   inkscape:version="0.92.2 5c3e80d, 2017-08-06"
   sodipodi:docname="cr3_option_font_face_hc-48x48-src.svg">
  <defs
     id="defs2" />
  <sodipodi:namedview
     id="base"
     pagecolor="#ffffff"
     bordercolor="#666666"
     borderopacity="1.0"
     inkscape:pageopacity="0.0"
     inkscape:pageshadow="2"
     inkscape:zoom="2.4033506"
     inkscape:cx="40.433451"
     inkscape:cy="-65.8804"
     inkscape:document-units="px"
     inkscape:current-layer="layer1"
     showgrid="false"
     units="px"
     inkscape:window-width="1361"
     inkscape:window-height="996"
     inkscape:window-x="1777"
     inkscape:window-y="339"
     inkscape:window-maximized="0"
     inkscape:pagecheckerboard="true"
     objecttolerance="2"
     guidetolerance="2" />
  <metadata
     id="metadata5">
    <rdf:RDF>
      <cc:Work
         rdf:about="">
        <dc:format>image/svg+xml</dc:format>
        <dc:type
           rdf:resource="http://purl.org/dc/dcmitype/StillImage" />
        <dc:title />
      </cc:Work>
    </rdf:RDF>
  </metadata>
  <g
     inkscape:groupmode="layer"
     id="layer2"
     inkscape:label="Layer 2"
     style="display:none">
    <g
       id="g946"
       transform="translate(-61.338758,-439.22612)">
      <path
         sodipodi:nodetypes="cccccccccccccc"
         style="display:inline;opacity:1;fill:#ffffff;fill-opacity:1;fill-rule:evenodd;stroke:none;stroke-width:1;stroke-linecap:butt;stroke-linejoin:miter;stroke-miterlimit:4;stroke-dasharray:none;stroke-opacity:1"
         d="m 79.910076,442.70164 c -5.371637,13.25069 -11.185523,27.74906 -16.55656,41 3.361877,-0.0183 7.684703,0.008 10.192484,0 1.251668,-2.7656 1.729431,-4.24381 3.034592,-7.435 7.771329,-0.0298 10.418111,-0.022 17.14597,0 1.222422,3.37123 3.236438,7.435 3.236438,7.435 0,0 6.92455,0.14765 10.361,0 -1.82362,-4.32772 -4.56227,-11.28026 -6.40809,-15.72677 -3.4153,-8.42458 -6.830839,-16.84859 -10.245988,-25.27323 -4.184342,-0.0283 -6.194944,-0.0152 -10.759846,0 z m 10.160236,24 c -4.257743,-0.0369 -5.456361,-0.039 -9.384312,0 2.177053,-5.5511 3.206189,-8.15617 4.636852,-12.20007 1.530351,4.22742 3.015808,8.03359 4.74746,12.20007 z"
         id="path935"
         inkscape:connector-curvature="0" />
      <path
         inkscape:r_cy="true"
         inkscape:r_cx="true"
         id="path2211-6"
         d="m 81.323,444.70036 -15,37 h 6 l 3.25,-8 h 19.5 l 3.24999,8 h 6 l -14.99999,-37 z m 4,5 7.71875,19 h -15.4375 z"
         style="display:inline;fill:#000000;fill-opacity:1;fill-rule:evenodd;stroke:none;stroke-width:1;stroke-linecap:butt;stroke-linejoin:miter;stroke-miterlimit:4;stroke-dasharray:none;stroke-opacity:1"
         inkscape:connector-curvature="0" />
    </g>
  </g>
  <g
     inkscape:label="Layer 1"
     inkscape:groupmode="layer"
     id="layer1"
     transform="translate(0,-437.26664)"
     style="display:inline">
    <path
       style="fill:#ffffff;fill-opacity:1;fill-rule:evenodd;stroke:#ffffff;stroke-width:3;stroke-linecap:butt;stroke-linejoin:miter;stroke-miterlimit:4;stroke-dasharray:none;stroke-opacity:1"
       d="m 2.502422,439.76906 h 42.995156 v 42.99515 H 2.502422 Z"
       id="path984-9"
       inkscape:connector-curvature="0"
       sodipodi:nodetypes="ccccc" />
    <path
       style="fill:#ffffff;fill-opacity:1;fill-rule:evenodd;stroke:#000000;stroke-width:2.9999125;stroke-linecap:butt;stroke-linejoin:miter;stroke-miterlimit:4;stroke-dasharray:none;stroke-opacity:1"
       d="M 5.4999561,442.76659 H 42.500044 v 37.00009 H 5.4999561 Z"
       id="path984"
       inkscape:connector-curvature="0"
       sodipodi:nodetypes="ccccc" />
    <path
       style="font-style:italic;font-variant:normal;font-weight:bold;font-stretch:normal;font-size:53.33333206px;line-height:125%;font-family:'Droid Serif';-inkscape-font-specification:'Droid Serif Italic';letter-spacing:0px;word-spacing:0px;display:inline;fill:#000000;fill-opacity:1;stroke:none;stroke-width:1.80559456;stroke-linecap:round;stroke-linejoin:round;stroke-miterlimit:4;stroke-dasharray:none;stroke-opacity:1"
       d="m 18.699238,465.94714 c -0.837013,1.64705 -1.883587,3.20117 -2.519135,4.93952 -0.612443,1.48224 1.053403,2.31368 2.308679,2.05716 0.780338,-0.22899 0.403263,0.4807 0.331213,0.94301 -0.197149,0.35399 0.0373,1.24016 -0.554865,1.10709 -3.228249,0 -6.456498,0 -9.6847476,0 0.1379281,-0.68337 0.2758564,-1.36674 0.4137845,-2.0501 1.0513701,0.0438 2.2577331,0.007 2.9011741,-0.98274 1.548358,-2.15193 2.746807,-4.53125 4.118496,-6.7972 3.42798,-5.88922 6.855961,-11.77844 10.283942,-17.66767 1.75544,0 3.51088,0 5.26632,0 1.097936,7.65885 2.173833,15.32116 3.285567,22.97784 0.08545,1.35962 1.132899,2.73655 2.621746,2.46977 0.700882,-0.16465 0.121808,0.71813 0.152192,1.10218 -0.136588,0.42328 -6.86e-4,1.17955 -0.67321,0.94792 -4.077503,0 -8.155007,0 -12.23251,0 0.137928,-0.68337 0.275856,-1.36674 0.413784,-2.0501 1.208588,-0.0251 2.812679,0.17636 3.48923,-1.04621 0.26592,-1.44024 -0.193198,-2.8979 -0.329044,-4.33899 -0.07535,-0.53716 -0.150696,-1.07432 -0.226044,-1.61148 -3.122191,0 -6.244382,0 -9.366572,0 z m 8.407296,-8.82109 c -0.220589,-1.90674 -0.46521,-3.8153 -0.507806,-5.73652 -1.322684,3.14732 -3.190637,6.02292 -4.803252,9.02426 -0.593214,1.06077 -1.186428,2.12154 -1.779642,3.18231 2.595542,0 5.191084,0 7.786626,0 -0.231975,-2.15668 -0.463951,-4.31337 -0.695926,-6.47005 z"
       id="path902-3"
       inkscape:connector-curvature="0" />
  </g>
</svg>
