<?xml version="1.0" encoding="UTF-8" standalone="no"?>
<!-- Created with Inkscape (http://www.inkscape.org/) -->

<svg
   xmlns:dc="http://purl.org/dc/elements/1.1/"
   xmlns:cc="http://creativecommons.org/ns#"
   xmlns:rdf="http://www.w3.org/1999/02/22-rdf-syntax-ns#"
   xmlns:svg="http://www.w3.org/2000/svg"
   xmlns="http://www.w3.org/2000/svg"
   xmlns:xlink="http://www.w3.org/1999/xlink"
   xmlns:sodipodi="http://sodipodi.sourceforge.net/DTD/sodipodi-0.dtd"
   xmlns:inkscape="http://www.inkscape.org/namespaces/inkscape"
   width="48"
   height="48"
   viewBox="0 0 48 48"
   version="1.1"
   id="svg8"
   inkscape:version="0.92.2 5c3e80d, 2017-08-06"
   sodipodi:docname="cr3_logo-48x48-src.svg">
  <defs
     id="defs2">
    <linearGradient
       inkscape:collect="always"
       id="linearGradient1260">
      <stop
         style="stop-color:#2c2723;stop-opacity:1"
         offset="0"
         id="stop1256" />
      <stop
         style="stop-color:#f0e6cb;stop-opacity:1"
         offset="1"
         id="stop1258" />
    </linearGradient>
    <linearGradient
       inkscape:collect="always"
       id="linearGradient1246">
      <stop
         style="stop-color:#9a8000;stop-opacity:1"
         offset="0"
         id="stop1242" />
      <stop
         style="stop-color:#dbc2ae;stop-opacity:1"
         offset="1"
         id="stop1244" />
    </linearGradient>
    <linearGradient
       inkscape:collect="always"
       id="linearGradient1221">
      <stop
         style="stop-color:#8f0000;stop-opacity:1"
         offset="0"
         id="stop1217" />
      <stop
         style="stop-color:#fe4848;stop-opacity:0.98039216"
         offset="1"
         id="stop1219" />
    </linearGradient>
    <linearGradient
       inkscape:collect="always"
       id="linearGradient1187-7">
      <stop
         style="stop-color:#f9f4eb;stop-opacity:1"
         offset="0"
         id="stop1183" />
      <stop
         style="stop-color:#d1a964;stop-opacity:1"
         offset="1"
         id="stop1185" />
    </linearGradient>
    <linearGradient
       inkscape:collect="always"
       id="linearGradient1173">
      <stop
         style="stop-color:#a43428;stop-opacity:1;"
         offset="0"
         id="stop1169" />
      <stop
         style="stop-color:#812820;stop-opacity:1"
         offset="1"
         id="stop1171" />
    </linearGradient>
    <linearGradient
       inkscape:collect="always"
       xlink:href="#linearGradient1173"
       id="linearGradient1175"
       x1="3.0998745"
       y1="274.18762"
       x2="63.566769"
       y2="274.18762"
       gradientUnits="userSpaceOnUse"
       gradientTransform="matrix(0.66151737,0,0,0.66151737,1.9493809,133.01245)" />
    <linearGradient
       inkscape:collect="always"
       xlink:href="#linearGradient1187-7"
       id="linearGradient1189"
       x1="7.8583879"
       y1="272.77707"
       x2="31.849886"
       y2="252.66505"
       gradientUnits="userSpaceOnUse"
       gradientTransform="matrix(0.66151737,0,0,0.66151737,1.9493809,133.01245)" />
    <linearGradient
       inkscape:collect="always"
       xlink:href="#linearGradient1187-7"
       id="linearGradient1197"
       x1="7.5555577"
       y1="275.51724"
       x2="30.811773"
       y2="255.53885"
       gradientUnits="userSpaceOnUse"
       gradientTransform="matrix(0.66151737,0,0,0.66151737,1.9493809,133.01245)" />
    <linearGradient
       inkscape:collect="always"
       xlink:href="#linearGradient1187-7"
       id="linearGradient1207"
       x1="12.086527"
       y1="276.43317"
       x2="34.932663"
       y2="252.90413"
       gradientUnits="userSpaceOnUse"
       gradientTransform="matrix(0.66151737,0,0,0.66151737,1.9493809,133.01245)" />
    <linearGradient
       inkscape:collect="always"
       xlink:href="#linearGradient1187-7"
       id="linearGradient1233"
       x1="60.538391"
       y1="246.88606"
       x2="30.440941"
       y2="260.45001"
       gradientUnits="userSpaceOnUse"
       gradientTransform="matrix(0.66151737,0,0,0.66151737,1.9493567,133.01245)" />
    <linearGradient
       inkscape:collect="always"
       xlink:href="#linearGradient1246"
       id="linearGradient1252"
       gradientUnits="userSpaceOnUse"
       x1="36.432739"
       y1="243.08905"
       x2="52.561687"
       y2="267.61026"
       gradientTransform="matrix(0.66151737,0,0,0.66151737,1.9493809,133.01245)" />
    <linearGradient
       inkscape:collect="always"
       xlink:href="#linearGradient1260"
       id="linearGradient1262"
       x1="36.584152"
       y1="275.54266"
       x2="62.565468"
       y2="265.08575"
       gradientUnits="userSpaceOnUse"
       gradientTransform="matrix(0.66151737,0,0,0.66151737,1.9493825,133.01245)" />
    <radialGradient
       inkscape:collect="always"
       xlink:href="#linearGradient1221"
       id="radialGradient2746"
       cx="49.577095"
       cy="278.2915"
       fx="49.577095"
       fy="278.2915"
       r="5.5515261"
       gradientTransform="matrix(0.18860423,0.45039558,-0.64568602,0.27038256,204.4646,219.93803)"
       gradientUnits="userSpaceOnUse"
       spreadMethod="reflect" />
  </defs>
  <sodipodi:namedview
     id="base"
     pagecolor="#ffffff"
     bordercolor="#666666"
     borderopacity="1.0"
     inkscape:pageopacity="0.0"
     inkscape:pageshadow="2"
     inkscape:zoom="22.4"
     inkscape:cx="26.75847"
     inkscape:cy="29.083682"
     inkscape:document-units="px"
     inkscape:current-layer="layer1"
     showgrid="false"
     units="px"
     inkscape:window-width="1920"
     inkscape:window-height="1002"
     inkscape:window-x="0"
     inkscape:window-y="0"
     inkscape:window-maximized="1"
     inkscape:pagecheckerboard="true" />
  <metadata
     id="metadata5">
    <rdf:RDF>
      <cc:Work
         rdf:about="">
        <dc:format>image/svg+xml</dc:format>
        <dc:type
           rdf:resource="http://purl.org/dc/dcmitype/StillImage" />
        <dc:title></dc:title>
      </cc:Work>
    </rdf:RDF>
  </metadata>
  <g
     inkscape:label="Layer 1"
     inkscape:groupmode="layer"
     id="layer1"
     transform="translate(0,-284.29998)">
    <path
       style="fill:url(#linearGradient1207);fill-opacity:1;fill-rule:evenodd;stroke:none;stroke-width:0.17502646px;stroke-linecap:butt;stroke-linejoin:miter;stroke-opacity:1"
       d="m 4.5967378,307.97112 c 0,0 7.9061582,11.84473 9.6357502,13.88582 1.729593,2.0411 0.06839,0.22 0.812623,-0.12502 0.744231,-0.34501 3.094218,-2.68947 3.094218,-2.68947 l 4.531562,-5.18226 2.559503,-2.62152 1.349916,-1.215 -6.815736,-11.06082 -5.405608,-1.19612 z"
       id="path1199"
       inkscape:connector-curvature="0"
       sodipodi:nodetypes="czzccccccc" />
    <path
       style="fill:#4a1612;fill-opacity:1;fill-rule:evenodd;stroke:#8f2e22;stroke-width:0.52507943;stroke-linecap:butt;stroke-linejoin:miter;stroke-miterlimit:4;stroke-dasharray:none;stroke-opacity:1"
       d="m 23.775107,313.3316 c 0.863136,0.94283 3.514915,4.40097 3.624471,3.86757 -0.800183,-1.56694 -0.709606,-3.69648 -0.189277,-5.1384 l 0.586125,-0.45902 c 0.112663,-0.4971 0.09272,-1.01629 -0.04324,-1.54102 -0.34624,-0.14365 -0.720105,-0.0166 -1.07187,0.16575 -0.968735,1.03504 -2.014822,1.91538 -2.906205,3.10512 z"
       id="path1177"
       inkscape:connector-curvature="0"
       sodipodi:nodetypes="ccccccc" />
    <path
       style="fill:url(#linearGradient1262);fill-opacity:1;fill-rule:evenodd;stroke:none;stroke-width:0.35005295;stroke-linecap:butt;stroke-linejoin:miter;stroke-miterlimit:4;stroke-dasharray:none;stroke-opacity:1"
       d="m 27.929987,309.55242 14.991369,-4.46421 -1.368005,2.69227 -0.309406,1.41443 2.042511,2.39507 -14.04949,5.35287 -1.207641,0.32985 -0.697599,-0.5526 -0.408858,-1.88959 0.287433,-2.76974 0.586125,-0.45902 -0.08744,-1.82832"
       id="path1254"
       inkscape:connector-curvature="0"
       sodipodi:nodetypes="cccccccccccc" />
    <path
       style="color:#000000;font-style:normal;font-variant:normal;font-weight:normal;font-stretch:normal;font-size:medium;line-height:normal;font-family:sans-serif;font-variant-ligatures:normal;font-variant-position:normal;font-variant-caps:normal;font-variant-numeric:normal;font-variant-alternates:normal;font-feature-settings:normal;text-indent:0;text-align:start;text-decoration:none;text-decoration-line:none;text-decoration-style:solid;text-decoration-color:#000000;letter-spacing:normal;word-spacing:normal;text-transform:none;writing-mode:lr-tb;direction:ltr;text-orientation:mixed;dominant-baseline:auto;baseline-shift:baseline;text-anchor:start;white-space:normal;shape-padding:0;clip-rule:nonzero;display:inline;overflow:visible;visibility:visible;opacity:1;isolation:auto;mix-blend-mode:normal;color-interpolation:sRGB;color-interpolation-filters:linearRGB;solid-color:#000000;solid-opacity:1;vector-effect:none;fill:url(#linearGradient1175);fill-opacity:1;fill-rule:evenodd;stroke:none;stroke-width:0.52507943;stroke-linecap:round;stroke-linejoin:round;stroke-miterlimit:4;stroke-dasharray:none;stroke-dashoffset:0;stroke-opacity:1;color-rendering:auto;image-rendering:auto;shape-rendering:auto;text-rendering:auto;enable-background:accumulate"
       d="m 5.3541673,306.47165 c -0.118896,0.0229 -0.20386,0.0898 -0.2550113,0.14798 l -1.0308523,1.15227 c -0.082065,0.0902 -0.091164,0.22514 -0.021964,0.3256 0,0 7.1543553,10.33264 9.7199123,14.03398 0.17994,0.2596 0.489266,0.32544 0.759711,0.31267 0.270445,-0.0128 0.534191,-0.0974 0.740331,-0.25324 2.89257,-2.1874 7.75945,-7.93907 7.780581,-7.96405 l 2.562088,-2.62539 c 0.0093,-0.009 0.01798,-0.0192 0.02584,-0.0297 0,0 0.271276,-0.37459 0.642137,-0.75196 0.37086,-0.37738 0.858988,-0.72155 1.125354,-0.73388 0.03288,-0.001 0.176147,0.0866 0.228689,0.1796 0.03221,0.057 0.03674,0.0866 0.03488,0.16538 -0.0019,0.0788 -0.02021,0.20036 -0.03618,0.36822 -0.01827,0.19207 -5.9e-5,0.35893 0,0.48839 5.9e-5,0.12946 -0.01497,0.20853 -0.05427,0.27003 0.01098,-0.0172 -0.05143,0.0261 -0.189927,0.0672 -0.06925,0.0205 -0.150601,0.0427 -0.239025,0.0943 -0.08842,0.0517 -0.189296,0.15052 -0.227397,0.28296 -0.220003,0.76471 -0.268769,1.84865 -0.228688,2.82824 0.02004,0.4898 0.06331,0.95062 0.125326,1.3295 0.06201,0.37888 0.120045,0.65997 0.262281,0.87341 0.19946,0.2993 0.433429,0.45236 0.625341,0.51551 0.191913,0.0632 0.365644,0.0336 0.365644,0.0336 l -0.02714,0.004 1.280398,-0.12533 c 0.02342,-0.002 0.04645,-0.007 0.06848,-0.0155 L 43.8304,311.94529 c 0.172667,-0.0654 0.225621,-0.28397 0.10207,-0.4212 l -2.156392,-2.40704 c -0.234287,-0.26099 -0.625771,0.0904 -0.391484,0.35143 l 1.901862,2.1215 -14.049492,5.35287 -1.246805,0.12145 c -0.0091,6.6e-4 -0.01816,0.002 -0.02713,0.004 0,0 -0.01388,0.009 -0.09561,-0.0181 -0.08173,-0.0269 -0.207741,-0.0919 -0.351431,-0.30751 -0.02934,-0.0441 -0.124839,-0.31634 -0.182176,-0.66668 -0.05733,-0.35034 -0.09956,-0.79556 -0.118867,-1.26748 -0.0383,-0.93606 0.02376,-1.98518 0.208016,-2.63961 0.01819,-0.009 0.05539,-0.0245 0.112407,-0.0413 0.12454,-0.0369 0.341414,-0.0649 0.483217,-0.28683 0.118667,-0.18574 0.135739,-0.38583 0.135663,-0.55299 -7.6e-5,-0.16717 -0.01443,-0.31353 -0.0026,-0.438 0.01414,-0.14867 0.03685,-0.27108 0.04006,-0.40698 0.0032,-0.13591 -0.02274,-0.29267 -0.103362,-0.43542 -0.13218,-0.23405 -0.366966,-0.46156 -0.709323,-0.44574 -0.577186,0.0267 -1.07401,0.48034 -1.476786,0.8902 -0.389992,0.39684 -0.654152,0.76248 -0.671853,0.78684 l -2.559503,2.62152 c -0.0044,0.004 -0.0088,0.008 -0.01292,0.0129 0,0 -4.939579,5.80576 -7.708228,7.89945 -0.09301,0.0703 -0.285687,0.13956 -0.449625,0.1473 -0.163937,0.008 -0.268614,-0.0379 -0.302334,-0.0866 -2.533907,-3.65568 -9.4297836,-13.61483 -9.6010462,-13.86215 l 0.8366177,-0.97899 c 0.1550842,-0.16579 0.2042469,-0.39914 0.024247,-0.50352 z"
       id="path19"
       inkscape:connector-curvature="0"
       sodipodi:nodetypes="cccccsccccsccccccccccccccccccccccccccccccccscccccccccsccccc" />
    <path
       style="fill:url(#linearGradient1197);fill-opacity:1;fill-rule:evenodd;stroke:#818181;stroke-width:0.35005295;stroke-linecap:butt;stroke-linejoin:miter;stroke-miterlimit:4;stroke-dasharray:none;stroke-opacity:1"
       d="m 4.8224367,305.57043 c 0,0 9.1208433,13.81851 9.4147833,13.83977 0,0 0.255782,0.37437 0.751414,-0.49111 0.495632,-0.86547 4.13607,-6.31249 5.075055,-7.15472 0.938984,-0.84222 1.544571,-1.11626 2.171204,-1.37336 0.626634,-0.2571 1.805953,-0.24153 1.805953,-0.24153 l 2.539464,-0.12581 -6.815736,-11.06082 c 0,0 -1.359213,-1.88787 -2.058559,-2.64069 -0.699346,-0.75282 -2.481405,-0.97426 -3.551663,-0.73481 -1.070258,0.23945 -2.326079,1.54072 -2.326079,1.54072 z"
       id="path1179"
       inkscape:connector-curvature="0"
       sodipodi:nodetypes="cszzzccczzcc" />
    <path
       style="fill:url(#linearGradient1252);fill-opacity:1;fill-rule:evenodd;stroke:#919191;stroke-width:0.35005295;stroke-linecap:butt;stroke-linejoin:miter;stroke-miterlimit:4;stroke-dasharray:none;stroke-opacity:1"
       d="m 28.398694,309.30035 14.963199,-4.16469 -10.001511,-9.53269 -4.799901,3.40596 -5.685219,0.77157 -2.094068,1.32609 5.900118,9.11989 z"
       id="path1240"
       inkscape:connector-curvature="0"
       sodipodi:nodetypes="cccccccc" />
    <path
       style="fill:url(#linearGradient1189);fill-opacity:1;fill-rule:evenodd;stroke:#919191;stroke-width:0.35005295;stroke-linecap:butt;stroke-linejoin:miter;stroke-miterlimit:4;stroke-dasharray:none;stroke-opacity:1"
       d="m 6.6346718,304.0676 c 0,0 7.2414562,11.91184 7.6467482,12.24364 0.405293,0.3318 0.77979,0.24059 1.01662,0.1768 0.236831,-0.0638 2.876798,-4.46007 3.712872,-5.6577 0.836074,-1.19763 1.057545,-1.38285 2.264508,-1.81714 1.206965,-0.43429 4.266169,0.52426 4.266169,0.52426 l 0.688771,0.18471 -6.69784,-10.73721 c 0,0 -1.314122,-2.10664 -2.131631,-2.64924 -0.817509,-0.54259 -1.498227,-0.64449 -2.308895,-0.63898 -0.810668,0.005 -1.170654,0.12875 -2.209374,0.79957 -1.038719,0.67083 -6.2479482,7.57129 -6.2479482,7.57129 z"
       id="path1181"
       inkscape:connector-curvature="0"
       sodipodi:nodetypes="czzzzccczzzc" />
    <path
       style="fill:url(#radialGradient2746);fill-opacity:1;fill-rule:evenodd;stroke:none;stroke-width:0.17502646px;stroke-linecap:butt;stroke-linejoin:miter;stroke-opacity:1"
       d="m 30.453691,312.32425 2.719162,-0.93764 c 0,0 0.399567,0.15547 0.937642,1.03141 0.538075,0.87593 0.759943,3.04517 1.062661,4.15687 0.302718,1.1117 0.457846,1.67981 0.859503,2.32848 0.401657,0.64868 1.765893,1.89091 1.765893,1.89091 0,0 -1.071948,-0.10324 -1.531481,-0.25006 -0.459533,-0.14683 -1.093916,-0.53133 -1.093916,-0.53133 l -0.781369,2.25033 c 0,0 -0.719755,-0.83743 -1.203306,-2.43787 -0.483551,-1.60043 -0.295888,-1.82299 -0.421939,-2.75042 -0.12605,-0.92742 -0.437566,-2.37535 -0.437566,-2.37535 0,0 -0.485906,-1.10369 -0.812623,-1.50023 -0.326717,-0.39654 -1.062661,-0.8751 -1.062661,-0.8751 z"
       id="path1215"
       inkscape:connector-curvature="0"
       sodipodi:nodetypes="cczzzczcczzczc" />
    <path
       style="fill:url(#linearGradient1233);fill-opacity:1;fill-rule:evenodd;stroke:#919191;stroke-width:0.35005295;stroke-linecap:butt;stroke-linejoin:miter;stroke-miterlimit:4;stroke-dasharray:none;stroke-opacity:1"
       d="m 19.76455,298.96285 c 0,0 1.416862,-1.39969 2.07844,-1.9378 0.661578,-0.5381 1.105627,-0.90251 1.812773,-1.10954 0.689974,-0.20199 1.439273,-0.14399 2.094067,0.0156 0.654795,0.15958 0.99463,0.65448 1.765893,0.64072 0.771263,-0.0138 1.662088,-0.88984 2.406614,-1.31271 0.744526,-0.42286 1.565024,-1.07114 2.062811,-1.21893 0.497788,-0.14779 0.71886,-0.0313 0.71886,-0.0313 l 9.22014,9.90775 c 0,0 -0.834385,0.51215 -1.906535,0.75012 -1.07215,0.23797 -3.018618,0.25464 -4.531936,0.28129 -1.16708,0.0206 -2.821881,-0.49551 -3.500529,-0.0938 -0.678648,0.40175 -0.512095,0.82173 -0.843876,1.06266 -0.580692,0.42169 -1.101587,0.25333 -2.062813,0.84388 -0.961227,0.59055 -2.498173,3.26276 -2.498173,3.26276 z"
       id="path1225"
       inkscape:connector-curvature="0"
       sodipodi:nodetypes="czszzzzcczszszcc" />
    <path
       style="fill:none;fill-rule:evenodd;stroke:#474747;stroke-width:0.35005295;stroke-linecap:round;stroke-linejoin:round;stroke-miterlimit:4;stroke-dasharray:none;stroke-opacity:1"
       d="m 27.585879,313.57079 2.867812,-1.24654 2.719162,-0.93764 6.789266,-1.7055 1.281824,-0.4862"
       id="path1272"
       inkscape:connector-curvature="0" />
  </g>
</svg>
