<?xml version="1.0" encoding="UTF-8" standalone="no"?>
<!-- Created with Inkscape (http://www.inkscape.org/) -->

<svg
   xmlns:dc="http://purl.org/dc/elements/1.1/"
   xmlns:cc="http://creativecommons.org/ns#"
   xmlns:rdf="http://www.w3.org/1999/02/22-rdf-syntax-ns#"
   xmlns:svg="http://www.w3.org/2000/svg"
   xmlns="http://www.w3.org/2000/svg"
   xmlns:sodipodi="http://sodipodi.sourceforge.net/DTD/sodipodi-0.dtd"
   xmlns:inkscape="http://www.inkscape.org/namespaces/inkscape"
   width="48"
   height="48"
   viewBox="0 0 48 48"
   version="1.1"
   id="svg8"
   inkscape:version="0.92.2 5c3e80d, 2017-08-06"
   sodipodi:docname="cr3_option_text_bold_hc-48x48-src.svg">
  <defs
     id="defs2" />
  <sodipodi:namedview
     id="base"
     pagecolor="#ffffff"
     bordercolor="#666666"
     borderopacity="1.0"
     inkscape:pageopacity="0.0"
     inkscape:pageshadow="2"
     inkscape:zoom="2.56"
     inkscape:cx="42.944077"
     inkscape:cy="24.915924"
     inkscape:document-units="px"
     inkscape:current-layer="layer1"
     showgrid="false"
     units="px"
     inkscape:window-width="1563"
     inkscape:window-height="996"
     inkscape:window-x="1459"
     inkscape:window-y="0"
     inkscape:window-maximized="0"
     inkscape:pagecheckerboard="true"
     objecttolerance="2"
     guidetolerance="2" />
  <metadata
     id="metadata5">
    <rdf:RDF>
      <cc:Work
         rdf:about="">
        <dc:format>image/svg+xml</dc:format>
        <dc:type
           rdf:resource="http://purl.org/dc/dcmitype/StillImage" />
        <dc:title></dc:title>
      </cc:Work>
    </rdf:RDF>
  </metadata>
  <g
     inkscape:label="Layer 1"
     inkscape:groupmode="layer"
     id="layer1"
     transform="translate(0,-437.26664)">
    <path
       style="fill:#ffffff;fill-opacity:1;fill-rule:evenodd;stroke:#ffffff;stroke-width:3;stroke-linecap:butt;stroke-linejoin:miter;stroke-miterlimit:4;stroke-dasharray:none;stroke-opacity:1"
       d="m 2.502422,439.76906 h 42.995156 v 42.99515 H 2.502422 Z"
       id="path984-9"
       inkscape:connector-curvature="0"
       sodipodi:nodetypes="ccccc" />
    <path
       style="fill:#ffffff;fill-opacity:1;fill-rule:evenodd;stroke:#000000;stroke-width:2.9999125;stroke-linecap:butt;stroke-linejoin:miter;stroke-miterlimit:4;stroke-dasharray:none;stroke-opacity:1"
       d="M 5.4999561,442.76659 H 42.500044 v 37.00009 H 5.4999561 Z"
       id="path984"
       inkscape:connector-curvature="0"
       sodipodi:nodetypes="ccccc" />
    <g
       aria-label="B"
       style="font-style:normal;font-variant:normal;font-weight:normal;font-stretch:normal;font-size:15px;line-height:125%;font-family:Serif;-inkscape-font-specification:Serif;letter-spacing:0px;word-spacing:0px;fill:#000000;fill-opacity:1;stroke:none;stroke-width:1px;stroke-linecap:butt;stroke-linejoin:miter;stroke-opacity:1"
       id="text839">
      <path
         style="font-style:normal;font-variant:normal;font-weight:bold;font-stretch:normal;font-size:32px;font-family:'Noto Serif';-inkscape-font-specification:'Noto Serif Bold'"
         d="m 32.765625,455.65726 c 0.07603,1.70837 -0.817239,3.43987 -2.390625,4.1875 -0.282389,0.37233 -1.893339,0.48984 -1.502747,0.87976 2.065453,0.51831 4.091016,1.91888 4.651185,4.07239 0.601252,2.26416 -0.01898,5.02586 -2.085938,6.34472 -2.532774,1.62232 -5.642554,1.55799 -8.540184,1.54688 -2.87723,0 -5.754461,0 -8.631691,0 0,-0.56771 0,-1.13542 0,-1.70313 0.833046,-0.0698 1.803094,0.21651 2.5,-0.35937 0.725542,-0.93535 0.416598,-2.18091 0.484375,-3.2795 -0.0058,-4.69064 0.01166,-9.3817 -0.0088,-14.07207 0.05785,-0.99616 -0.751306,-1.90186 -1.783144,-1.74213 -0.397481,0 -0.794961,0 -1.192442,0 0,-0.5625 0,-1.125 0,-1.6875 3.571286,0.0181 7.143875,-0.039 10.714218,0.0343 2.326849,0.15145 4.918081,0.51109 6.599213,2.289 0.85597,0.94277 1.196928,2.23884 1.186569,3.48912 z m -10.46875,15.07812 c 1.545435,-0.0636 3.202956,0.24209 4.617187,-0.53906 1.413228,-0.91236 1.436517,-2.80392 1.423096,-4.31128 -0.02361,-1.43804 -0.343939,-3.19037 -1.829834,-3.80932 -1.337724,-0.5463 -2.804251,-0.29959 -4.210449,-0.35596 0,3.00521 0,6.01041 0,9.01562 z m 0,-10.96875 c 1.456992,-0.0222 3.152557,0.18224 4.265625,-0.95312 0.942409,-1.14861 0.866239,-2.75953 0.773438,-4.16016 -0.06097,-1.19884 -0.80081,-2.43033 -2.054688,-2.65234 -0.973774,-0.26397 -1.98727,-0.19223 -2.984375,-0.20313 0,2.65625 0,5.3125 0,7.96875 z"
         id="path841"
         inkscape:connector-curvature="0" />
    </g>
  </g>
</svg>
