<?xml version="1.0" encoding="UTF-8" standalone="no"?>
<!-- Created with Inkscape (http://www.inkscape.org/) -->

<svg
   xmlns:dc="http://purl.org/dc/elements/1.1/"
   xmlns:cc="http://creativecommons.org/ns#"
   xmlns:rdf="http://www.w3.org/1999/02/22-rdf-syntax-ns#"
   xmlns:svg="http://www.w3.org/2000/svg"
   xmlns="http://www.w3.org/2000/svg"
   xmlns:sodipodi="http://sodipodi.sourceforge.net/DTD/sodipodi-0.dtd"
   xmlns:inkscape="http://www.inkscape.org/namespaces/inkscape"
   width="48"
   height="48"
   viewBox="0 0 48 48"
   version="1.1"
   id="svg8"
   inkscape:version="0.92.2 5c3e80d, 2017-08-06"
   sodipodi:docname="cr3_option_text_italic_hc-48x48-src.svg">
  <defs
     id="defs2" />
  <sodipodi:namedview
     id="base"
     pagecolor="#ffffff"
     bordercolor="#666666"
     borderopacity="1.0"
     inkscape:pageopacity="0.0"
     inkscape:pageshadow="2"
     inkscape:zoom="3.6203867"
     inkscape:cx="-46.364523"
     inkscape:cy="76.491509"
     inkscape:document-units="px"
     inkscape:current-layer="layer1"
     showgrid="false"
     units="px"
     inkscape:window-width="1563"
     inkscape:window-height="996"
     inkscape:window-x="1459"
     inkscape:window-y="0"
     inkscape:window-maximized="0"
     inkscape:pagecheckerboard="true"
     objecttolerance="2"
     guidetolerance="2" />
  <metadata
     id="metadata5">
    <rdf:RDF>
      <cc:Work
         rdf:about="">
        <dc:format>image/svg+xml</dc:format>
        <dc:type
           rdf:resource="http://purl.org/dc/dcmitype/StillImage" />
        <dc:title></dc:title>
      </cc:Work>
    </rdf:RDF>
  </metadata>
  <g
     inkscape:label="Layer 1"
     inkscape:groupmode="layer"
     id="layer1"
     transform="translate(0,-437.26664)">
    <path
       style="fill:#ffffff;fill-opacity:1;fill-rule:evenodd;stroke:#ffffff;stroke-width:3;stroke-linecap:butt;stroke-linejoin:miter;stroke-miterlimit:4;stroke-dasharray:none;stroke-opacity:1"
       d="m 2.502422,439.76906 h 42.995156 v 42.99515 H 2.502422 Z"
       id="path984-9"
       inkscape:connector-curvature="0"
       sodipodi:nodetypes="ccccc" />
    <path
       style="fill:#ffffff;fill-opacity:1;fill-rule:evenodd;stroke:#000000;stroke-width:2.9999125;stroke-linecap:butt;stroke-linejoin:miter;stroke-miterlimit:4;stroke-dasharray:none;stroke-opacity:1"
       d="M 5.4999561,442.76659 H 42.500044 v 37.00009 H 5.4999561 Z"
       id="path984"
       inkscape:connector-curvature="0"
       sodipodi:nodetypes="ccccc" />
    <g
       aria-label="B"
       style="font-style:normal;font-variant:normal;font-weight:normal;font-stretch:normal;font-size:15px;line-height:125%;font-family:Serif;-inkscape-font-specification:Serif;letter-spacing:0px;word-spacing:0px;fill:#000000;fill-opacity:1;stroke:none;stroke-width:1px;stroke-linecap:butt;stroke-linejoin:miter;stroke-opacity:1"
       id="text839" />
    <g
       aria-label="I"
       style="font-style:normal;font-variant:normal;font-weight:normal;font-stretch:normal;font-size:15px;line-height:125%;font-family:Serif;-inkscape-font-specification:Serif;letter-spacing:0px;word-spacing:0px;fill:#000000;fill-opacity:1;stroke:none;stroke-width:1px;stroke-linecap:butt;stroke-linejoin:miter;stroke-opacity:1"
       id="text840">
      <path
         style="font-style:italic;font-variant:normal;font-weight:bold;font-stretch:normal;font-size:32px;font-family:'Noto Serif';-inkscape-font-specification:'Noto Serif Bold Italic'"
         d="m 16.078125,472.68851 c 0.114583,-0.56771 0.229167,-1.13542 0.34375,-1.70313 1.103556,0.0288 2.468128,-0.0149 3.075195,-1.10937 0.413658,-0.93743 0.495093,-1.98283 0.744861,-2.97268 1.000027,-4.70913 1.988946,-9.42262 2.996346,-14.12888 0.139171,-1.18107 -1.336774,-1.24686 -2.177003,-1.24149 -0.507527,0.1173 -0.603194,-0.099 -0.419047,-0.54555 0.07759,-0.38089 0.155179,-0.76179 0.232768,-1.14268 3.682292,0 7.364583,0 11.046875,0 -0.119792,0.5625 -0.239583,1.125 -0.359375,1.6875 -1.131683,-0.0192 -2.547805,0.0256 -3.168945,1.14744 -0.415771,0.95972 -0.500548,2.02538 -0.753024,3.03656 -0.97754,4.68142 -1.979459,9.35802 -2.941314,14.04254 -0.145609,1.12896 1.253663,1.24502 2.070314,1.22456 0.459868,-0.0533 0.832373,-0.0422 0.564659,0.49158 -0.08535,0.4045 -0.170707,0.809 -0.25606,1.2135 -3.666667,3e-5 -7.333333,7e-5 -11,1e-4 z"
         id="path856"
         inkscape:connector-curvature="0" />
    </g>
  </g>
</svg>
