<?xml version="1.0" encoding="UTF-8" standalone="no"?>
<!-- Created with Inkscape (http://www.inkscape.org/) -->

<svg
   xmlns:dc="http://purl.org/dc/elements/1.1/"
   xmlns:cc="http://creativecommons.org/ns#"
   xmlns:rdf="http://www.w3.org/1999/02/22-rdf-syntax-ns#"
   xmlns:svg="http://www.w3.org/2000/svg"
   xmlns="http://www.w3.org/2000/svg"
   xmlns:sodipodi="http://sodipodi.sourceforge.net/DTD/sodipodi-0.dtd"
   xmlns:inkscape="http://www.inkscape.org/namespaces/inkscape"
   width="48"
   height="48"
   viewBox="0 0 48 48"
   version="1.1"
   id="svg8"
   inkscape:version="0.92.2 5c3e80d, 2017-08-06"
   sodipodi:docname="cr3_button_next_hc-48x48-src.svg">
  <defs
     id="defs2" />
  <sodipodi:namedview
     id="base"
     pagecolor="#ffffff"
     bordercolor="#666666"
     borderopacity="1.0"
     inkscape:pageopacity="0.0"
     inkscape:pageshadow="2"
     inkscape:zoom="2.8"
     inkscape:cx="37.283854"
     inkscape:cy="45.806761"
     inkscape:document-units="px"
     inkscape:current-layer="layer1"
     showgrid="false"
     units="px"
     inkscape:window-width="1165"
     inkscape:window-height="955"
     inkscape:window-x="2027"
     inkscape:window-y="173"
     inkscape:window-maximized="0"
     inkscape:pagecheckerboard="true" />
  <metadata
     id="metadata5">
    <rdf:RDF>
      <cc:Work
         rdf:about="">
        <dc:format>image/svg+xml</dc:format>
        <dc:type
           rdf:resource="http://purl.org/dc/dcmitype/StillImage" />
        <dc:title></dc:title>
      </cc:Work>
    </rdf:RDF>
  </metadata>
  <g
     inkscape:label="Layer 1"
     inkscape:groupmode="layer"
     id="layer1"
     transform="translate(0,-284.29999)">
    <g
       id="g900"
       transform="matrix(-0.70867,0,0,0.70867,47.118974,121.83721)">
      <path
         style="opacity:1;fill:#fdffff;fill-opacity:1;stroke-width:0.32915503"
         d="m 29.127652,236.35937 c -10.12385,8.94372 -20.2467575,17.88846 -30.371272,26.83145 12.805047,11.26473 25.610902,22.52858 38.416806,33.79236 0.08429,-6.74517 0.168034,-13.49035 0.250765,-20.23553 9.688588,0 19.377176,0 29.065762,0 0,-9.30441 0,-18.60881 0,-27.91322 -9.692416,0 -19.384831,0 -29.077247,0 -0.07945,-6.5282 -0.159299,-13.05639 -0.23928,-19.58459 -2.681844,2.36985 -5.363689,4.73968 -8.045534,7.10953 z"
         id="path893"
         inkscape:connector-curvature="0" />
      <path
         sodipodi:nodetypes="cccccccc"
         inkscape:connector-curvature="0"
         id="path832"
         d="m 32.399014,239.05625 0.170194,14.23302 h 29.607876 v 18.97736 H 32.582174 L 32.39991,287.21041 5.5562498,263.1851 Z"
         style="fill:#000000;stroke-width:0.33876684" />
    </g>
  </g>
</svg>
