<?xml version="1.0" encoding="UTF-8" standalone="no"?>
<!-- Created with Inkscape (http://www.inkscape.org/) -->

<svg
   xmlns:dc="http://purl.org/dc/elements/1.1/"
   xmlns:cc="http://creativecommons.org/ns#"
   xmlns:rdf="http://www.w3.org/1999/02/22-rdf-syntax-ns#"
   xmlns:svg="http://www.w3.org/2000/svg"
   xmlns="http://www.w3.org/2000/svg"
   xmlns:sodipodi="http://sodipodi.sourceforge.net/DTD/sodipodi-0.dtd"
   xmlns:inkscape="http://www.inkscape.org/namespaces/inkscape"
   width="48"
   height="48"
   viewBox="0 0 48 48"
   version="1.1"
   id="svg8"
   inkscape:version="0.92.2 5c3e80d, 2017-08-06"
   sodipodi:docname="cr3_option_font_size_hc-48x48-src.svg">
  <defs
     id="defs2" />
  <sodipodi:namedview
     id="base"
     pagecolor="#ffffff"
     bordercolor="#666666"
     borderopacity="1.0"
     inkscape:pageopacity="0.0"
     inkscape:pageshadow="2"
     inkscape:zoom="3.6203867"
     inkscape:cx="28.540468"
     inkscape:cy="53.368847"
     inkscape:document-units="px"
     inkscape:current-layer="layer1"
     showgrid="false"
     units="px"
     inkscape:window-width="1563"
     inkscape:window-height="996"
     inkscape:window-x="1459"
     inkscape:window-y="0"
     inkscape:window-maximized="0"
     inkscape:pagecheckerboard="true"
     objecttolerance="2"
     guidetolerance="2" />
  <metadata
     id="metadata5">
    <rdf:RDF>
      <cc:Work
         rdf:about="">
        <dc:format>image/svg+xml</dc:format>
        <dc:type
           rdf:resource="http://purl.org/dc/dcmitype/StillImage" />
        <dc:title></dc:title>
      </cc:Work>
    </rdf:RDF>
  </metadata>
  <g
     inkscape:label="Layer 1"
     inkscape:groupmode="layer"
     id="layer1"
     transform="translate(0,-437.26664)">
    <path
       style="fill:#ffffff;fill-opacity:1;fill-rule:evenodd;stroke:#ffffff;stroke-width:3;stroke-linecap:butt;stroke-linejoin:miter;stroke-miterlimit:4;stroke-dasharray:none;stroke-opacity:1"
       d="m 2.502422,439.76906 h 42.995156 v 42.99515 H 2.502422 Z"
       id="path984-9"
       inkscape:connector-curvature="0"
       sodipodi:nodetypes="ccccc" />
    <path
       style="fill:#ffffff;fill-opacity:1;fill-rule:evenodd;stroke:#000000;stroke-width:2.9999125;stroke-linecap:butt;stroke-linejoin:miter;stroke-miterlimit:4;stroke-dasharray:none;stroke-opacity:1"
       d="M 5.4999561,442.76659 H 42.500044 v 37.00009 H 5.4999561 Z"
       id="path984"
       inkscape:connector-curvature="0"
       sodipodi:nodetypes="ccccc" />
    <g
       aria-label="T"
       style="font-style:normal;font-variant:normal;font-weight:normal;font-stretch:normal;font-size:15px;line-height:125%;font-family:Serif;-inkscape-font-specification:Serif;letter-spacing:0px;word-spacing:0px;fill:#000000;fill-opacity:1;stroke:none;stroke-width:1px;stroke-linecap:butt;stroke-linejoin:miter;stroke-opacity:1"
       id="text988">
      <path
         style="font-style:normal;font-variant:normal;font-weight:bold;font-stretch:normal;font-size:26.66666603px;font-family:'Noto Serif';-inkscape-font-specification:'Noto Serif Bold'"
         d="m 20.164067,468.71242 c -0.10165,0.83881 0.371993,1.89072 1.367187,1.73179 0.373264,0 0.746528,0 1.119792,0 0,0.47309 0,0.94618 0,1.41927 -3.068576,0 -6.137153,0 -9.205729,0 0,-0.47309 0,-0.94618 0,-1.41927 0.665785,-0.0497 1.401899,0.14294 2.001139,-0.21567 0.693973,-0.67224 0.433211,-1.71475 0.48584,-2.58493 0,-4.39633 0,-8.79267 0,-13.189 -1.010951,0.032 -2.03529,-0.0818 -3.034057,0.0997 -0.910324,0.16912 -1.306922,1.1036 -1.331631,1.9401 -0.05519,0.50063 -0.110375,1.00125 -0.165562,1.50188 -0.598958,0 -1.197916,0 -1.7968746,0 0.047743,-1.72309 0.095486,-3.44618 0.1432292,-5.16927 5.5381944,0 11.0763894,0 16.6145834,0 0.0434,1.72309 0.08681,3.44618 0.130208,5.16927 -0.594618,0 -1.189236,0 -1.783854,0 -0.152959,-0.92695 -0.09638,-1.91552 -0.530599,-2.77019 -0.683477,-0.98359 -1.964054,-0.73698 -2.99796,-0.77148 -0.338571,0 -0.677141,0 -1.015712,0 0,4.7526 0,9.50521 0,14.25781 z"
         id="path1037"
         inkscape:connector-curvature="0" />
    </g>
    <g
       aria-label="T"
       style="font-style:normal;font-variant:normal;font-weight:normal;font-stretch:normal;font-size:15px;line-height:125%;font-family:Serif;-inkscape-font-specification:Serif;letter-spacing:0px;word-spacing:0px;fill:#000000;fill-opacity:1;stroke:none;stroke-width:1px;stroke-linecap:butt;stroke-linejoin:miter;stroke-opacity:1"
       id="text988-2">
      <path
         style="font-style:normal;font-variant:normal;font-weight:bold;font-stretch:normal;font-size:18.66666603px;font-family:'Noto Serif';-inkscape-font-specification:'Noto Serif Bold'"
         d="m 33.817007,469.65774 c -0.07115,0.58718 0.260408,1.32348 0.957035,1.21228 0.261285,0 0.522569,0 0.783854,0 0,0.33116 0,0.66233 0,0.99349 -2.148003,0 -4.296007,0 -6.44401,0 0,-0.33116 0,-0.66233 0,-0.99349 0.466052,-0.0348 0.981335,0.10006 1.400798,-0.15101 0.485786,-0.47055 0.30325,-1.20032 0.340091,-1.80944 0,-3.07743 0,-6.15487 0,-9.2323 -0.707666,0.0224 -1.424694,-0.0572 -2.12384,0.0697 -0.637239,0.11833 -0.914835,0.77253 -0.932141,1.35806 -0.03863,0.35044 -0.07726,0.70087 -0.115894,1.05131 -0.419273,0 -0.838547,0 -1.25782,0 0.03342,-1.20616 0.06684,-2.41233 0.10026,-3.61849 3.876736,0 7.753472,0 11.630208,0 0.03038,1.20616 0.06077,2.41233 0.09115,3.61849 -0.416233,0 -0.832465,0 -1.248698,0 -0.107069,-0.64886 -0.06747,-1.34086 -0.371419,-1.93912 -0.478432,-0.68854 -1.374846,-0.51583 -2.098575,-0.54 -0.236998,0 -0.473997,0 -0.710995,0 -10e-7,3.32682 -3e-6,6.65365 -4e-6,9.98047 z"
         id="path1040"
         inkscape:connector-curvature="0" />
    </g>
  </g>
</svg>
