<?xml version="1.0" encoding="UTF-8" standalone="no"?>
<!-- Created with Inkscape (http://www.inkscape.org/) -->

<svg
   xmlns:dc="http://purl.org/dc/elements/1.1/"
   xmlns:cc="http://creativecommons.org/ns#"
   xmlns:rdf="http://www.w3.org/1999/02/22-rdf-syntax-ns#"
   xmlns:svg="http://www.w3.org/2000/svg"
   xmlns="http://www.w3.org/2000/svg"
   xmlns:sodipodi="http://sodipodi.sourceforge.net/DTD/sodipodi-0.dtd"
   xmlns:inkscape="http://www.inkscape.org/namespaces/inkscape"
   width="48"
   height="48"
   viewBox="0 0 48 48"
   version="1.1"
   id="svg8"
   inkscape:version="0.92.2 5c3e80d, 2017-08-06"
   sodipodi:docname="cr3_browser_back_hc-48x48-src.svg">
  <defs
     id="defs2">
    <linearGradient
       id="linearGradient2591">
      <stop
         id="stop2593"
         offset="0"
         style="stop-color:#73d216" />
      <stop
         id="stop2595"
         offset="1.0000000"
         style="stop-color:#4e9a06" />
    </linearGradient>
  </defs>
  <sodipodi:namedview
     id="base"
     pagecolor="#ffffff"
     bordercolor="#666666"
     borderopacity="1.0"
     inkscape:pageopacity="0.0"
     inkscape:pageshadow="2"
     inkscape:zoom="6.797702"
     inkscape:cx="11.576611"
     inkscape:cy="14.582501"
     inkscape:document-units="px"
     inkscape:current-layer="layer1"
     showgrid="false"
     units="px"
     inkscape:window-width="1629"
     inkscape:window-height="996"
     inkscape:window-x="1391"
     inkscape:window-y="180"
     inkscape:window-maximized="0"
     inkscape:pagecheckerboard="true" />
  <metadata
     id="metadata5">
    <rdf:RDF>
      <cc:Work
         rdf:about="">
        <dc:format>image/svg+xml</dc:format>
        <dc:type
           rdf:resource="http://purl.org/dc/dcmitype/StillImage" />
        <dc:title />
      </cc:Work>
    </rdf:RDF>
  </metadata>
  <g
     inkscape:label="Layer 1"
     inkscape:groupmode="layer"
     id="layer1"
     transform="translate(0,-437.26664)">
    <path
       inkscape:connector-curvature="0"
       id="path1151"
       d="m 26.177,438.47033 c -8.749446,7.56024 -15.934245,13.69165 -23.6409851,20.43094 -1.3570377,1.21466 -1.58333035,2.7353 -0.3555672,4.2042 7.9125703,7.05752 15.7512163,13.69058 23.9965523,20.94217 2.936868,1.27058 5.620639,-0.32329 5.642,-2.515 0.02756,-2.82775 -0.01685,-4.61694 0,-6.82952 4.276092,0.0139 6.760133,0.1072 10.431537,0.0774 2.827326,-0.0229 3.809725,-1.28602 3.972463,-3.67701 0.01924,-7.02626 0.03133,-13.4335 0,-19.652 -0.09255,-2.01662 -1.087869,-3.34239 -3.91894,-3.40773 -3.376108,-0.0689 -5.967403,-0.0996 -10.48506,-0.13754 0.0099,-1.75604 -0.01753,-3.57041 0,-6.1513 -0.156447,-1.76642 -1.898033,-4.39371 -5.642,-3.28461 z m -2.358,13.43787 c -0.663214,2.47515 0.975153,3.94056 2.685,4.04844 4.335698,0.0226 6.916781,0.0251 11.833,0 -0.02166,4.12235 -0.03103,7.39964 0,11.11 -4.327692,-0.0642 -6.439081,6.2e-4 -11.833,0 -2.609595,0.35506 -2.685861,1.87241 -2.685,4.35914 -3.982351,-3.62977 -6.550027,-6.19015 -11.03,-10.03314 3.853112,-3.34566 7.926778,-6.76851 11.03,-9.48444 z"
       style="color:#000000;font-style:normal;font-variant:normal;font-weight:normal;font-stretch:normal;font-size:medium;line-height:normal;font-family:sans-serif;font-variant-ligatures:normal;font-variant-position:normal;font-variant-caps:normal;font-variant-numeric:normal;font-variant-alternates:normal;font-feature-settings:normal;text-indent:0;text-align:start;text-decoration:none;text-decoration-line:none;text-decoration-style:solid;text-decoration-color:#000000;letter-spacing:normal;word-spacing:normal;text-transform:none;writing-mode:lr-tb;direction:ltr;text-orientation:mixed;dominant-baseline:auto;baseline-shift:baseline;text-anchor:start;white-space:normal;shape-padding:0;clip-rule:nonzero;display:inline;overflow:visible;visibility:visible;opacity:1;isolation:auto;mix-blend-mode:normal;color-interpolation:sRGB;color-interpolation-filters:linearRGB;solid-color:#000000;solid-opacity:1;vector-effect:none;fill:#ffffff;fill-opacity:1;fill-rule:evenodd;stroke:none;stroke-width:3;stroke-linecap:round;stroke-linejoin:round;stroke-miterlimit:10;stroke-dasharray:none;stroke-dashoffset:0;stroke-opacity:1;marker:none;color-rendering:auto;image-rendering:auto;shape-rendering:auto;text-rendering:auto;enable-background:accumulate"
       sodipodi:nodetypes="ccccscscccccccccccccc" />
    <path
       style="color:#000000;font-style:normal;font-variant:normal;font-weight:normal;font-stretch:normal;font-size:medium;line-height:normal;font-family:sans-serif;font-variant-ligatures:normal;font-variant-position:normal;font-variant-caps:normal;font-variant-numeric:normal;font-variant-alternates:normal;font-feature-settings:normal;text-indent:0;text-align:start;text-decoration:none;text-decoration-line:none;text-decoration-style:solid;text-decoration-color:#000000;letter-spacing:normal;word-spacing:normal;text-transform:none;writing-mode:lr-tb;direction:ltr;text-orientation:mixed;dominant-baseline:auto;baseline-shift:baseline;text-anchor:start;white-space:normal;shape-padding:0;clip-rule:nonzero;display:inline;overflow:visible;visibility:visible;opacity:1;isolation:auto;mix-blend-mode:normal;color-interpolation:sRGB;color-interpolation-filters:linearRGB;solid-color:#000000;solid-opacity:1;vector-effect:none;fill:#000000;fill-opacity:1;fill-rule:evenodd;stroke:none;stroke-width:3;stroke-linecap:round;stroke-linejoin:round;stroke-miterlimit:10;stroke-dasharray:none;stroke-dashoffset:0;stroke-opacity:1;marker:none;color-rendering:auto;image-rendering:auto;shape-rendering:auto;text-rendering:auto;enable-background:accumulate"
       d="m 27.825228,440.82619 c -0.344984,0.01 -0.676091,0.13795 -0.9375,0.36328 L 4.815463,460.26564 c -0.6959368,0.60106 -0.692233,1.68107 0.00781,2.27735 l 22.080078,18.80664 c 0.974213,0.82946 2.472959,0.13691 2.472657,-1.14258 v -7.88282 h 12.828125 c 0.828393,-8e-5 1.499917,-0.67161 1.5,-1.5 v -18.80078 c -8.3e-5,-0.82839 -0.671607,-1.49992 -1.5,-1.5 l -12.835938,0.006 v -8.20312 c 2.6e-4,-0.84547 -0.697848,-1.52413 -1.542969,-1.5 z m -1.457031,4.77734 v 6.42578 c 8.2e-5,0.82916 0.672798,1.501 1.501953,1.5 l 12.833985,-0.006 v 15.80078 H 27.87601 c -0.828393,8e-5 -1.499917,0.67161 -1.5,1.5 v 6.13477 L 8.0986661,461.39264 Z"
       id="path8643"
       inkscape:connector-curvature="0"
       sodipodi:nodetypes="ccccccccccccccccccccccccc" />
  </g>
</svg>
