<?xml version="1.0" encoding="UTF-8" standalone="no"?>
<!-- Created with Inkscape (http://www.inkscape.org/) -->

<svg
   xmlns:dc="http://purl.org/dc/elements/1.1/"
   xmlns:cc="http://creativecommons.org/ns#"
   xmlns:rdf="http://www.w3.org/1999/02/22-rdf-syntax-ns#"
   xmlns:svg="http://www.w3.org/2000/svg"
   xmlns="http://www.w3.org/2000/svg"
   xmlns:sodipodi="http://sodipodi.sourceforge.net/DTD/sodipodi-0.dtd"
   xmlns:inkscape="http://www.inkscape.org/namespaces/inkscape"
   width="256"
   height="256"
   viewBox="0 0 67.733332 67.733335"
   version="1.1"
   id="svg8"
   inkscape:version="0.92.2 5c3e80d, 2017-08-06"
   sodipodi:docname="cr3_button_bookmarks_hc-256x256-src.svg">
  <defs
     id="defs2" />
  <sodipodi:namedview
     id="base"
     pagecolor="#ffffff"
     bordercolor="#666666"
     borderopacity="1.0"
     inkscape:pageopacity="0.0"
     inkscape:pageshadow="2"
     inkscape:zoom="0.98994949"
     inkscape:cx="191.85004"
     inkscape:cy="-12.975504"
     inkscape:document-units="px"
     inkscape:current-layer="layer1"
     showgrid="false"
     units="px"
     inkscape:window-width="1340"
     inkscape:window-height="957"
     inkscape:window-x="521"
     inkscape:window-y="228"
     inkscape:window-maximized="0"
     inkscape:pagecheckerboard="true" />
  <metadata
     id="metadata5">
    <rdf:RDF>
      <cc:Work
         rdf:about="">
        <dc:format>image/svg+xml</dc:format>
        <dc:type
           rdf:resource="http://purl.org/dc/dcmitype/StillImage" />
        <dc:title></dc:title>
      </cc:Work>
    </rdf:RDF>
  </metadata>
  <g
     inkscape:label="Layer 1"
     inkscape:groupmode="layer"
     id="layer1"
     transform="translate(0,-229.26666)">
    <path
       inkscape:connector-curvature="0"
       style="fill:#ffffff;fill-opacity:1;fill-rule:evenodd;stroke:#ffffff;stroke-width:11.28888226;stroke-miterlimit:4;stroke-dasharray:none;stroke-opacity:1"
       id="path3019"
       d="m 14.61761,234.9111 c -3.779038,0 -6.9241029,3.04726 -6.9241029,6.70896 v 43.02654 c 0,3.6617 3.1450649,6.70896 6.9241029,6.70896 h 38.49806 c 3.779092,0 6.924157,-3.04726 6.924157,-6.70896 v -43.02654 c 0,-3.6617 -3.145065,-6.70896 -6.924157,-6.70896 z"
       sodipodi:nodetypes="sssssssss" />
    <g
       id="g878"
       transform="matrix(5.3499966,0,0,5.3499966,-209.04644,-1244.5177)">
      <path
         inkscape:connector-curvature="0"
         style="fill:#000000;fill-opacity:1;fill-rule:evenodd;stroke:none;stroke-width:0.272627;stroke-opacity:1"
         id="rect1880"
         d="m 41.795151,276.51243 c -0.708571,0 -1.298273,0.57136 -1.298273,1.25793 v 8.06748 c 0,0.68657 0.589702,1.25793 1.298273,1.25793 h 7.218396 c 0.708571,0 1.298272,-0.57136 1.298272,-1.25793 v -8.06748 c 0,-0.68657 -0.589701,-1.25793 -1.298272,-1.25793 z m 0,0.92248 h 7.218396 c 0.199817,0 0.346206,0.14218 0.346206,0.33545 v 8.06748 c 0,0.19327 -0.146389,0.33545 -0.346206,0.33545 h -7.218396 c -0.199817,0 -0.346206,-0.14218 -0.346206,-0.33545 v -8.06748 c 0,-0.19327 0.146389,-0.33545 0.346206,-0.33545 z" />
      <path
         inkscape:connector-curvature="0"
         style="fill:#000000;fill-opacity:1;fill-rule:evenodd;stroke:none;stroke-width:0.272627;stroke-opacity:1"
         id="path3655"
         d="m 42.316596,277.24203 v 6.70893 l 1.825691,-2.14686 1.774851,2.14686 v -6.70893" />
    </g>
  </g>
</svg>
