<?xml version="1.0" encoding="UTF-8" standalone="no"?>
<!-- Created with Inkscape (http://www.inkscape.org/) -->

<svg
   xmlns:dc="http://purl.org/dc/elements/1.1/"
   xmlns:cc="http://creativecommons.org/ns#"
   xmlns:rdf="http://www.w3.org/1999/02/22-rdf-syntax-ns#"
   xmlns:svg="http://www.w3.org/2000/svg"
   xmlns="http://www.w3.org/2000/svg"
   xmlns:sodipodi="http://sodipodi.sourceforge.net/DTD/sodipodi-0.dtd"
   xmlns:inkscape="http://www.inkscape.org/namespaces/inkscape"
   width="48"
   height="48"
   viewBox="0 0 48 48"
   version="1.1"
   id="svg8"
   inkscape:version="0.92.2 5c3e80d, 2017-08-06"
   sodipodi:docname="cr3_option_font_face_hc-48x48-src.svg">
  <defs
     id="defs2" />
  <sodipodi:namedview
     id="base"
     pagecolor="#ffffff"
     bordercolor="#666666"
     borderopacity="1.0"
     inkscape:pageopacity="0.0"
     inkscape:pageshadow="2"
     inkscape:zoom="6.797702"
     inkscape:cx="35.188968"
     inkscape:cy="18.623299"
     inkscape:document-units="px"
     inkscape:current-layer="layer2"
     showgrid="false"
     units="px"
     inkscape:window-width="1920"
     inkscape:window-height="1132"
     inkscape:window-x="1280"
     inkscape:window-y="0"
     inkscape:window-maximized="1"
     inkscape:pagecheckerboard="true"
     objecttolerance="2"
     guidetolerance="2" />
  <metadata
     id="metadata5">
    <rdf:RDF>
      <cc:Work
         rdf:about="">
        <dc:format>image/svg+xml</dc:format>
        <dc:type
           rdf:resource="http://purl.org/dc/dcmitype/StillImage" />
        <dc:title />
      </cc:Work>
    </rdf:RDF>
  </metadata>
  <g
     inkscape:groupmode="layer"
     id="layer2"
     inkscape:label="Layer 2"
     style="display:none">
    <g
       id="g946"
       transform="translate(-61.338758,-439.22612)">
      <path
         sodipodi:nodetypes="cccccccccccccc"
         style="display:inline;opacity:1;fill:#ffffff;fill-opacity:1;fill-rule:evenodd;stroke:none;stroke-width:1;stroke-linecap:butt;stroke-linejoin:miter;stroke-miterlimit:4;stroke-dasharray:none;stroke-opacity:1"
         d="m 79.910076,442.70164 c -5.371637,13.25069 -11.185523,27.74906 -16.55656,41 3.361877,-0.0183 7.684703,0.008 10.192484,0 1.251668,-2.7656 1.729431,-4.24381 3.034592,-7.435 7.771329,-0.0298 10.418111,-0.022 17.14597,0 1.222422,3.37123 3.236438,7.435 3.236438,7.435 0,0 6.92455,0.14765 10.361,0 -1.82362,-4.32772 -4.56227,-11.28026 -6.40809,-15.72677 -3.4153,-8.42458 -6.830839,-16.84859 -10.245988,-25.27323 -4.184342,-0.0283 -6.194944,-0.0152 -10.759846,0 z m 10.160236,24 c -4.257743,-0.0369 -5.456361,-0.039 -9.384312,0 2.177053,-5.5511 3.206189,-8.15617 4.636852,-12.20007 1.530351,4.22742 3.015808,8.03359 4.74746,12.20007 z"
         id="path935"
         inkscape:connector-curvature="0" />
      <path
         inkscape:r_cy="true"
         inkscape:r_cx="true"
         id="path2211-6"
         d="m 81.323,444.70036 -15,37 h 6 l 3.25,-8 h 19.5 l 3.24999,8 h 6 l -14.99999,-37 z m 4,5 7.71875,19 h -15.4375 z"
         style="display:inline;fill:#000000;fill-opacity:1;fill-rule:evenodd;stroke:none;stroke-width:1;stroke-linecap:butt;stroke-linejoin:miter;stroke-miterlimit:4;stroke-dasharray:none;stroke-opacity:1"
         inkscape:connector-curvature="0" />
    </g>
  </g>
  <g
     inkscape:label="Layer 1"
     inkscape:groupmode="layer"
     id="layer1"
     transform="translate(0,-437.26664)"
     style="display:inline">
    <path
       inkscape:connector-curvature="0"
       id="path922"
       d="m 26.3403,440.91211 c -7.15099,11.24712 -12.96397,23.64758 -20.63086,34.41797 -6.26815,-0.90819 -5.63845,10.47921 0.92774,7.85937 4.96296,-0.45691 15.11451,2.44834 13.69863,-5.8017 -3.20153,-2.27615 -4.73127,-2.38167 -1.20058,-6.72369 4.16384,-0.18381 12.03357,-1.27396 9.46875,4.63867 -5.83636,-1.65332 -7.09138,9.5453 -0.62305,7.88672 5.76861,-0.92597 13.28816,1.97521 17.8911,-1.68412 1.79618,-3.06321 0.13948,-6.36287 -3.08251,-6.39205 -2.54265,-11.35147 -2.35808,-23.59271 -5.89843,-34.54687 -3.25528,-0.61641 -7.45547,-1.05931 -10.55079,0.3457 z m 1.12891,21.49609 c -7.72997,1.88337 2.21304,-11.03123 0,0 z"
       style="font-style:italic;font-variant:normal;font-weight:bold;font-stretch:normal;font-size:53.33333206px;line-height:125%;font-family:'Droid Serif';-inkscape-font-specification:'Droid Serif Italic';letter-spacing:0px;word-spacing:0px;opacity:1;fill:#ffffff;fill-opacity:1;stroke:#ffffff;stroke-width:2;stroke-linecap:round;stroke-linejoin:round;stroke-miterlimit:4;stroke-dasharray:none;stroke-opacity:1" />
    <path
       inkscape:connector-curvature="0"
       id="path902"
       style="font-style:italic;font-variant:normal;font-weight:bold;font-stretch:normal;font-size:53.33333206px;line-height:125%;font-family:'Droid Serif';-inkscape-font-specification:'Droid Serif Italic';letter-spacing:0px;word-spacing:0px;fill:#000000;fill-opacity:1;stroke:#000000;stroke-width:2.5;stroke-linecap:round;stroke-linejoin:round;stroke-miterlimit:4;stroke-dasharray:none;stroke-opacity:1"
       d="m 17.648,468.16366 -2.60417,4.79166 q -0.52083,0.96354 -0.78125,1.69271 -0.23437,0.72917 -0.23437,1.30208 0,0.98959 0.72916,1.45834 0.72917,0.44271 2.26563,0.44271 h 1.06771 l -0.59896,2.83854 H 3.63758 l 0.57292,-2.83854 h 1.11979 q 0.72917,0 1.27604,-0.15625 0.57292,-0.1823 1.09375,-0.65105 0.52083,-0.46875 1.06771,-1.27604 0.57292,-0.80729 1.30208,-2.05729 l 18.09896,-31.09375 h 7.29167 l 4.47916,31.40625 q 0.13021,0.83333 0.33855,1.53646 0.23437,0.70312 0.59895,1.22396 0.36459,0.49479 0.91146,0.78125 0.57292,0.28646 1.40625,0.28646 h 0.96354 L 43.5855,480.6897 H 25.98133 l 0.57292,-2.83854 h 1.22396 q 1.71875,0 2.73437,-0.52084 1.01563,-0.54687 1.01563,-1.71875 0,-0.44271 -0.026,-0.85937 -0.026,-0.44271 -0.0781,-0.83334 l -0.80729,-5.7552 z m 11.64062,-12.21355 q -0.13021,-1.17187 -0.26041,-2.1875 -0.10417,-1.04166 -0.20834,-2.0052 -0.0781,-0.96355 -0.15625,-1.875 -0.0521,-0.91146 -0.0781,-1.875 -0.39062,0.96354 -0.78125,1.79687 -0.39062,0.80729 -0.83333,1.66667 -0.44271,0.83333 -0.98958,1.79687 -0.52084,0.9375 -1.22396,2.1875 l -5.28646,9.45313 h 10.78125 z" />
  </g>
</svg>
