<?xml version="1.0" encoding="UTF-8" standalone="no"?>
<!-- Created with Inkscape (http://www.inkscape.org/) -->

<svg
   xmlns:dc="http://purl.org/dc/elements/1.1/"
   xmlns:cc="http://creativecommons.org/ns#"
   xmlns:rdf="http://www.w3.org/1999/02/22-rdf-syntax-ns#"
   xmlns:svg="http://www.w3.org/2000/svg"
   xmlns="http://www.w3.org/2000/svg"
   xmlns:xlink="http://www.w3.org/1999/xlink"
   xmlns:sodipodi="http://sodipodi.sourceforge.net/DTD/sodipodi-0.dtd"
   xmlns:inkscape="http://www.inkscape.org/namespaces/inkscape"
   width="48"
   height="48"
   viewBox="0 0 48 48"
   version="1.1"
   id="svg8"
   inkscape:version="0.92.2 5c3e80d, 2017-08-06"
   sodipodi:docname="cr3_browser_folder_opds-48x48-src.svg">
  <defs
     id="defs2">
    <inkscape:perspective
       id="perspective156"
       inkscape:persp3d-origin="24 : 16 : 1"
       inkscape:vp_z="48 : 24 : 1"
       inkscape:vp_y="0 : 1000 : 0"
       inkscape:vp_x="0 : 24 : 1"
       sodipodi:type="inkscape:persp3d" />
    <linearGradient
       id="linearGradient4750">
      <stop
         id="stop4752"
         offset="0"
         style="stop-color:#ffffff;stop-opacity:1;" />
      <stop
         id="stop4758"
         offset="0.37931034"
         style="stop-color:#fefefe;stop-opacity:1.0000000;" />
      <stop
         id="stop4754"
         offset="1.0000000"
         style="stop-color:#1d1d1d;stop-opacity:1.0000000;" />
    </linearGradient>
    <linearGradient
       id="linearGradient4126">
      <stop
         id="stop4128"
         offset="0.0000000"
         style="stop-color:#ffffff;stop-opacity:1.0000000;" />
      <stop
         id="stop4130"
         offset="1.0000000"
         style="stop-color:#ffffff;stop-opacity:0.16494845;" />
    </linearGradient>
    <linearGradient
       id="linearGradient3962">
      <stop
         id="stop3964"
         offset="0.0000000"
         style="stop-color:#d3e9ff;stop-opacity:1.0000000;" />
      <stop
         id="stop4134"
         offset="0.15517241"
         style="stop-color:#d3e9ff;stop-opacity:1.0000000;" />
      <stop
         id="stop4346"
         offset="0.75000000"
         style="stop-color:#4074ae;stop-opacity:1.0000000;" />
      <stop
         id="stop3966"
         offset="1.0000000"
         style="stop-color:#36486c;stop-opacity:1.0000000;" />
    </linearGradient>
    <radialGradient
       inkscape:collect="always"
       xlink:href="#linearGradient4825"
       id="radialGradient5989"
       gradientUnits="userSpaceOnUse"
       cx="12.071323"
       cy="12.493138"
       fx="12.071323"
       fy="12.493138"
       r="6.7175145" />
    <linearGradient
       inkscape:collect="always"
       id="linearGradient4825">
      <stop
         style="stop-color:#ffffff;stop-opacity:1;"
         offset="0"
         id="stop4827" />
      <stop
         style="stop-color:#ffffff;stop-opacity:0;"
         offset="1"
         id="stop4829" />
    </linearGradient>
    <radialGradient
       inkscape:collect="always"
       xlink:href="#linearGradient4825"
       id="radialGradient5985"
       gradientUnits="userSpaceOnUse"
       cx="12.071323"
       cy="12.493138"
       fx="12.071323"
       fy="12.493138"
       r="6.7175145" />
    <radialGradient
       inkscape:collect="always"
       xlink:href="#linearGradient4825"
       id="radialGradient5983"
       gradientUnits="userSpaceOnUse"
       cx="12.071323"
       cy="12.493138"
       fx="12.071323"
       fy="12.493138"
       r="6.7175145" />
    <linearGradient
       gradientTransform="matrix(1.2571175,0,0,0.97714444,-273.94375,333.05878)"
       inkscape:collect="always"
       xlink:href="#linearGradient4825"
       id="linearGradient6019"
       gradientUnits="userSpaceOnUse"
       x1="-21.658581"
       y1="15.649428"
       x2="-21.962101"
       y2="21.336346" />
    <linearGradient
       gradientTransform="matrix(1.2865167,0,0,0.99999972,-44.394423,-475.72998)"
       inkscape:collect="always"
       xlink:href="#linearGradient4825"
       id="linearGradient6015"
       gradientUnits="userSpaceOnUse"
       x1="-22.822565"
       y1="28.337734"
       x2="-22.113543"
       y2="22.661524" />
    <radialGradient
       inkscape:collect="always"
       xlink:href="#linearGradient4825"
       id="radialGradient5987"
       gradientUnits="userSpaceOnUse"
       cx="12.071323"
       cy="12.493138"
       fx="12.071323"
       fy="12.493138"
       r="6.7175145" />
    <linearGradient
       gradientTransform="matrix(1.2865168,0,0,0.99999987,-272.20004,338.04732)"
       inkscape:collect="always"
       xlink:href="#linearGradient4825"
       id="linearGradient6011"
       gradientUnits="userSpaceOnUse"
       x1="-25.176178"
       y1="30.057165"
       x2="-22.113543"
       y2="22.661524" />
    <linearGradient
       gradientTransform="matrix(1.2865169,0,0,0.9999999,263.52363,372.77989)"
       inkscape:collect="always"
       xlink:href="#linearGradient4825"
       id="linearGradient6007"
       x1="-25.176178"
       y1="30.057165"
       x2="-22.252472"
       y2="21.041553"
       gradientUnits="userSpaceOnUse" />
    <radialGradient
       inkscape:collect="always"
       xlink:href="#linearGradient4126"
       id="radialGradient4132"
       gradientTransform="matrix(0.999989,0,0,1.000011,-0.06567299,437.26664)"
       cx="15.601279"
       cy="12.142302"
       fx="15.601279"
       fy="12.142302"
       r="43.526714"
       gradientUnits="userSpaceOnUse" />
    <radialGradient
       inkscape:collect="always"
       xlink:href="#linearGradient3962"
       id="radialGradient3968"
       gradientTransform="matrix(0.999989,0,0,1.000011,-0.06567299,437.26664)"
       cx="18.247644"
       cy="15.716079"
       fx="18.247644"
       fy="15.716079"
       r="29.993349"
       gradientUnits="userSpaceOnUse" />
    <radialGradient
       inkscape:collect="always"
       xlink:href="#linearGradient4114"
       id="radialGradient4120"
       gradientTransform="matrix(1.64399,0,0,0.75623549,0,426.99422)"
       cx="15.115514"
       cy="63.965389"
       fx="15.115514"
       fy="63.965389"
       r="12.289036"
       gradientUnits="userSpaceOnUse" />
    <linearGradient
       inkscape:collect="always"
       id="linearGradient4114">
      <stop
         style="stop-color:#000000;stop-opacity:1;"
         offset="0"
         id="stop4116" />
      <stop
         style="stop-color:#000000;stop-opacity:0;"
         offset="1"
         id="stop4118" />
    </linearGradient>
  </defs>
  <sodipodi:namedview
     id="base"
     pagecolor="#ffffff"
     bordercolor="#666666"
     borderopacity="1.0"
     inkscape:pageopacity="0.0"
     inkscape:pageshadow="2"
     inkscape:zoom="9.6134024"
     inkscape:cx="18.001913"
     inkscape:cy="28.52188"
     inkscape:document-units="px"
     inkscape:current-layer="layer1"
     showgrid="false"
     units="px"
     inkscape:window-width="1372"
     inkscape:window-height="996"
     inkscape:window-x="1821"
     inkscape:window-y="0"
     inkscape:window-maximized="0"
     inkscape:pagecheckerboard="true"
     objecttolerance="2"
     guidetolerance="2" />
  <metadata
     id="metadata5">
    <rdf:RDF>
      <cc:Work
         rdf:about="">
        <dc:format>image/svg+xml</dc:format>
        <dc:type
           rdf:resource="http://purl.org/dc/dcmitype/StillImage" />
        <dc:title></dc:title>
      </cc:Work>
    </rdf:RDF>
  </metadata>
  <g
     inkscape:label="Layer 1"
     inkscape:groupmode="layer"
     id="layer1"
     transform="translate(0,-437.26664)">
    <ellipse
       ry="9.2934084"
       rx="20.203051"
       cy="475.36716"
       cx="24.849752"
       style="fill:url(#radialGradient4120);fill-opacity:1;stroke:none;stroke-width:1.11500847;stroke-opacity:1"
       id="path4112" />
    <g
       id="g1199"
       transform="matrix(1.0200394,0,0,1.0200394,-0.74566333,-9.2136352)">
      <path
         id="path3214"
         d="m 43.89418,460.75214 c 0,10.70972 -8.682103,19.39172 -19.390348,19.39172 -10.709226,0 -19.3908387,-8.6821 -19.3908387,-19.39172 0,-10.70923 8.6816127,-19.39035 19.3908387,-19.39035 10.708245,0 19.390348,8.68112 19.390348,19.39035 z"
         style="fill:url(#radialGradient3968);fill-opacity:1;fill-rule:nonzero;stroke:#39396c;stroke-miterlimit:4;stroke-opacity:1"
         inkscape:connector-curvature="0" />
      <g
         transform="matrix(0.982371,0,0,0.982371,0.05540601,437.49955)"
         style="opacity:1;fill:#204a87;fill-opacity:0.71345029;fill-rule:nonzero;stroke:none;stroke-miterlimit:4"
         id="g4136">
        <g
           style="fill:#204a87"
           id="g4138">
          <g
             style="fill:#204a87"
             id="g4142">
            <path
               style="fill:#204a87"
               id="path4144"
               d="m 44.0713,20.7144 c 0,0.2627 0,0 0,0 l -0.5449,0.6172 c -0.334,-0.3936 -0.709,-0.7246 -1.0898,-1.0703 l -0.8359,0.123 -0.7637,-0.8633 v 1.0684 l 0.6543,0.4951 0.4355,0.4932 0.582,-0.6582 c 0.1465,0.2744 0.291,0.5488 0.4365,0.8232 v 0.8223 l -0.6553,0.7402 -1.1992,0.8232 -0.9082,0.9063 -0.582,-0.6602 0.291,-0.7402 -0.5811,-0.6582 -0.9814,-2.0977 -0.8359,-0.9453 -0.2188,0.2461 0.3281,1.1934 0.6172,0.6992 c 0.3525,1.0176 0.7012,1.9902 1.1641,2.9629 0.7178,0 1.3945,-0.0762 2.1074,-0.166 v 0.5762 l -0.8721,2.1392 -0.7998,0.9043 -0.6543,1.4004 c 0,0.7676 0,1.5352 0,2.3027 l 0.2188,0.9063 -0.3633,0.4102 -0.8008,0.4941 -0.8359,0.6992 0.6914,0.7813 -0.9453,0.8242 0.1816,0.5332 -1.418,1.6055 h -0.9443 l -0.7998,0.4941 H 33.6396 V 38.2814 L 33.4228,36.963 c -0.2813,-0.8262 -0.5742,-1.6465 -0.8721,-2.4668 0,-0.6055 0.0361,-1.2051 0.0723,-1.8105 l 0.3643,-0.8223 -0.5098,-0.9883 0.0371,-1.3574 -0.6914,-0.7813 0.3457,-1.1309 -0.5625,-0.6382 H 30.624 l -0.3271,-0.3701 -0.9814,0.6177 -0.3994,-0.4536 -0.9092,0.7817 c -0.6172,-0.6997 -1.2354,-1.3989 -1.8535,-2.0981 l -0.7266,-1.7285 0.6543,-0.9863 -0.3633,-0.4111 0.7988,-1.8936 c 0.6563,-0.8164 1.3418,-1.5996 2.0352,-2.3857 l 1.2363,-0.3291 1.3809,-0.1641 0.9453,0.2471 1.3447,1.3564 0.4727,-0.5342 0.6533,-0.082 1.2363,0.4111 h 0.9453 l 0.6543,-0.5762 0.291,-0.4111 -0.6553,-0.4111 -1.0908,-0.082 c -0.3027,-0.4199 -0.584,-0.8613 -0.9434,-1.2344 l -0.3643,0.1641 -0.1455,1.0703 -0.6543,-0.7402 -0.1445,-0.8242 -0.7266,-0.5742 h -0.292 l 0.7275,0.8223 -0.291,0.7402 -0.5811,0.1641 0.3633,-0.7402 -0.6553,-0.3281 -0.5801,-0.6582 -1.0918,0.2461 -0.1445,0.3281 -0.6543,0.4121 -0.3633,0.9053 -0.9082,0.4521 -0.4004,-0.4521 h -0.4355 v -1.4814 l 0.9453,-0.4941 h 0.7266 l -0.1465,-0.5752 -0.5801,-0.5762 0.9805,-0.2061 0.5449,-0.6162 0.4355,-0.7412 h 0.8008 l -0.2188,-0.5752 0.5098,-0.3291 v 0.6582 l 1.0898,0.2461 1.0898,-0.9043 0.0732,-0.4121 0.9443,-0.6577 c -0.3418,0.0425 -0.6836,0.0737 -1.0176,0.1646 V 9.9766 L 34.2213,9.1538 H 33.858 l -0.7984,0.7402 -0.2188,0.4116 0.2188,0.5767 -0.3643,0.9863 -0.5811,-0.3291 -0.5078,-0.5752 -0.8008,0.5752 -0.291,-1.3159 1.3809,-0.9048 V 8.8247 l 0.873,-0.5757 1.3809,-0.3296 0.9453,0.3296 1.7441,0.3291 -0.4355,0.4932 H 35.458 l 0.9453,0.9873 0.7266,-0.8223 0.2207,-0.3618 c 0,0 2.7871,2.498 4.3799,5.2305 1.5928,2.7334 2.3408,5.9551 2.3408,6.6094 z"
               inkscape:connector-curvature="0" />
          </g>
        </g>
        <g
           style="fill:#204a87"
           id="g4146">
          <g
             style="fill:#204a87"
             id="g4150">
            <path
               style="fill:#204a87"
               id="path4152"
               d="m 26.0703,9.2363 -0.0732,0.4932 0.5098,0.3291 0.8711,-0.5757 -0.4355,-0.4937 -0.582,0.3296 -0.29,-0.0825"
               inkscape:connector-curvature="0" />
          </g>
        </g>
        <g
           style="fill:#204a87"
           id="g4154">
          <g
             style="fill:#204a87"
             id="g4158">
            <path
               style="fill:#204a87"
               id="path4160"
               d="m 26.8701,5.8633 -1.8906,-0.7407 -2.1797,0.2466 -2.6904,0.7402 -0.5088,0.4941 1.6719,1.1514 v 0.6582 l -0.6543,0.6582 0.873,1.729 0.5801,-0.3301 0.7285,-1.1514 c 1.123,-0.3472 2.1299,-0.7407 3.1973,-1.2344 l 0.873,-2.2212"
               inkscape:connector-curvature="0" />
          </g>
        </g>
        <g
           style="fill:#204a87"
           id="g4162">
          <g
             style="fill:#204a87"
             id="g4166">
            <path
               style="fill:#204a87"
               id="path4168"
               d="m 28.833,12.7749 -0.291,-0.7412 -0.5098,0.165 0.1465,0.9043 0.6543,-0.3281"
               inkscape:connector-curvature="0" />
          </g>
        </g>
        <g
           style="fill:#204a87"
           id="g4170">
          <g
             style="fill:#204a87"
             id="g4174">
            <path
               style="fill:#204a87"
               id="path4176"
               d="m 29.123,12.6089 -0.1455,0.9883 0.7998,-0.165 0.5811,-0.5752 -0.5088,-0.4941 C 29.6787,11.9078 29.4824,11.483 29.2685,11.0465 H 28.833 v 0.4932 l 0.29,0.3291 v 0.7402"
               inkscape:connector-curvature="0" />
          </g>
        </g>
        <g
           style="fill:#204a87"
           id="g4178">
          <g
             style="fill:#204a87"
             id="g4182">
            <path
               style="fill:#204a87"
               id="path4184"
               d="m 18.3652,28.2422 -0.582,-1.1523 -1.0903,-0.2466 -0.5815,-1.5625 -1.4536,0.1641 -1.2354,-0.9043 -1.3091,1.1514 v 0.1816 c -0.396,-0.1143 -0.8828,-0.1299 -1.2354,-0.3467 l -0.291,-0.8223 v -0.9053 l -0.8721,0.082 c 0.0728,-0.5762 0.145,-1.1514 0.2183,-1.7275 H 9.4238 L 8.9155,22.812 8.4062,23.0581 7.6791,22.6479 7.6063,21.7426 7.7518,20.7553 8.8426,19.933 h 0.8721 l 0.145,-0.4941 1.0903,0.2461 0.7998,0.9883 0.1455,-1.6465 1.3813,-1.1514 0.5088,-1.2344 1.0176,-0.4111 0.5815,-0.8223 1.3081,-0.248 0.6548,-0.9863 c -0.6543,0 -1.3086,0 -1.9629,0 l 1.2358,-0.5762 h 0.8716 l 1.2363,-0.4121 0.1455,-0.4922 -0.4365,-0.4121 -0.5088,-0.165 0.1455,-0.4932 -0.3633,-0.7402 -0.8726,0.3281 0.1455,-0.6577 -1.0176,-0.5762 -0.7993,1.3979 0.0723,0.4941 -0.7993,0.3301 -0.5093,1.0693 -0.2178,-0.9873 -1.3813,-0.5762 -0.2183,-0.7402 1.8174,-1.0703 0.7998,-0.7402 0.0728,-0.9048 -0.436,-0.2471 -0.5815,-0.0825 -0.3633,0.9053 c 0,0 -0.6079,0.1191 -0.7642,0.1577 -1.9961,1.8394 -6.0293,5.8101 -6.9663,13.3062 0.0371,0.1738 0.6792,1.1816 0.6792,1.1816 l 1.5264,0.9043 1.5264,0.4121 0.6548,0.8232 1.0171,0.7402 0.5815,-0.082 0.436,0.1963 v 0.1328 l -0.5811,1.563 -0.4365,0.6582 0.1455,0.3301 -0.3633,1.2324 1.3086,2.3867 1.3081,1.1523 0.582,0.8223 -0.0732,1.7285 0.4365,0.9863 -0.4365,1.8926 c 0,0 -0.0342,-0.0117 0.0215,0.1777 0.0562,0.1895 2.3291,1.4512 2.4736,1.3438 0.144,-0.1094 0.2671,-0.2051 0.2671,-0.2051 l -0.145,-0.4102 0.5811,-0.5762 0.2183,-0.5762 0.9453,-0.3301 0.7266,-1.8105 -0.2178,-0.4922 0.5078,-0.7402 1.0908,-0.248 0.582,-1.3164 -0.1455,-1.6445 0.8721,-1.2344 0.1455,-1.2344 C 20.7331,29.4607 19.5495,28.8513 18.365,28.242"
               inkscape:connector-curvature="0" />
          </g>
        </g>
        <g
           style="fill:#204a87"
           id="g4186">
          <g
             style="fill:#204a87"
             id="g4190">
            <path
               style="fill:#204a87"
               id="path4192"
               d="m 16.7656,9.5649 0.7266,0.4937 h 0.582 V 9.4829 l -0.7266,-0.3291 -0.582,0.4111"
               inkscape:connector-curvature="0" />
          </g>
        </g>
        <g
           style="fill:#204a87"
           id="g4194">
          <g
             style="fill:#204a87"
             id="g4198">
            <path
               style="fill:#204a87"
               id="path4200"
               d="M 14.876,8.9072 14.5122,9.812 h 0.7271 L 15.6031,8.9892 C 15.9166,8.7675 16.2286,8.5444 16.5479,8.331 l 0.7271,0.2471 c 0.4844,0.3291 0.9688,0.6582 1.4536,0.9868 L 19.4561,8.9072 18.6558,8.5781 18.292,7.8374 16.9111,7.6728 16.8383,7.2612 16.184,7.4262 15.8936,8.002 15.5298,7.2613 l -0.145,0.3291 0.0728,0.8228 -0.5816,0.494"
               inkscape:connector-curvature="0" />
          </g>
        </g>
        <g
           style="fill:#204a87"
           id="g4202">
          <g
             id="g4204"
             style="opacity:0.75;fill:#204a87">
            <path
               style="fill:#204a87"
               d=""
               id="path4206"
               inkscape:connector-curvature="0" />
          </g>
          <g
             style="fill:#204a87"
             id="g4208">
            <path
               style="fill:#204a87"
               d=""
               id="path4210"
               inkscape:connector-curvature="0" />
          </g>
        </g>
        <g
           style="fill:#204a87"
           id="g4212">
          <g
             id="g4214"
             style="opacity:0.75;fill:#204a87">
            <path
               style="fill:#204a87"
               d=""
               id="path4216"
               inkscape:connector-curvature="0" />
          </g>
          <g
             style="fill:#204a87"
             id="g4218">
            <path
               style="fill:#204a87"
               d=""
               id="path4220"
               inkscape:connector-curvature="0" />
          </g>
        </g>
        <g
           style="fill:#204a87"
           id="g4222">
          <g
             style="fill:#204a87"
             id="g4226">
            <path
               style="fill:#204a87"
               id="path4228"
               d="M 17.4922,6.8496 17.856,6.521 18.5831,6.3564 c 0.498,-0.2422 0.998,-0.4053 1.5264,-0.5762 l -0.29,-0.4937 -0.9385,0.1348 -0.4434,0.4419 -0.731,0.106 -0.6499,0.3052 -0.3159,0.1528 -0.1929,0.2583 0.9443,0.1641"
               inkscape:connector-curvature="0" />
          </g>
        </g>
        <g
           style="fill:#204a87"
           id="g4230">
          <g
             style="fill:#204a87"
             id="g4234">
            <path
               style="fill:#204a87"
               id="path4236"
               d="m 18.7285,14.6665 0.4365,-0.6582 -0.6548,-0.4932 0.2183,1.1514"
               inkscape:connector-curvature="0" />
          </g>
        </g>
      </g>
      <path
         id="path4122"
         d="m 42.90942,460.75217 c 0,10.16582 -8.241178,18.40691 -18.4056,18.40691 -10.165354,0 -18.4060669,-8.24118 -18.4060669,-18.40691 0,-10.16535 8.2407129,-18.4056 18.4060669,-18.4056 10.164422,0 18.4056,8.24025 18.4056,18.4056 z"
         style="opacity:0.39560439;fill:none;fill-opacity:1;fill-rule:nonzero;stroke:url(#radialGradient4132);stroke-miterlimit:4;stroke-opacity:1"
         inkscape:connector-curvature="0" />
      <ellipse
         transform="rotate(28.460691)"
         inkscape:r_cy="true"
         inkscape:r_cx="true"
         id="path5991"
         style="color:#000000;display:inline;overflow:visible;visibility:visible;opacity:1;fill:none;fill-opacity:1;fill-rule:evenodd;stroke:url(#linearGradient6007);stroke-width:1;stroke-linecap:round;stroke-linejoin:round;stroke-miterlimit:4;stroke-dasharray:none;stroke-dashoffset:0;stroke-opacity:1;marker:none;marker-start:none;marker-mid:none;marker-end:none"
         cx="239.64388"
         cy="393.82144"
         rx="20.240932"
         ry="9.457552" />
      <ellipse
         style="color:#000000;display:inline;overflow:visible;visibility:visible;opacity:1;fill:none;fill-opacity:1;fill-rule:evenodd;stroke:url(#linearGradient6011);stroke-width:0.99999994;stroke-linecap:round;stroke-linejoin:round;stroke-miterlimit:4;stroke-dasharray:none;stroke-dashoffset:0;stroke-opacity:1;marker:none;marker-start:none;marker-mid:none;marker-end:none"
         id="path6009"
         inkscape:r_cx="true"
         inkscape:r_cy="true"
         transform="rotate(-43.10261)"
         cx="-296.07977"
         cy="359.08887"
         rx="20.240931"
         ry="9.457552" />
      <g
         id="g4933"
         transform="matrix(-1.045772,0.767251,0.767251,1.045772,35.550837,415.12268)"
         inkscape:r_cx="true"
         inkscape:r_cy="true">
        <circle
           style="color:#000000;display:inline;overflow:visible;visibility:visible;opacity:1;fill:url(#radialGradient5987);fill-opacity:1;fill-rule:evenodd;stroke:none;stroke-width:1;stroke-linecap:round;stroke-linejoin:round;stroke-miterlimit:4;stroke-dasharray:none;stroke-dashoffset:0;stroke-opacity:1;marker:none;marker-start:none;marker-mid:none;marker-end:none"
           id="path4935"
           inkscape:r_cx="true"
           inkscape:r_cy="true"
           transform="translate(14.95026,22.93047)"
           cx="12.071323"
           cy="12.493138"
           r="6.7175145" />
        <circle
           transform="matrix(0.308271,0,0,0.308271,23.30035,31.57234)"
           inkscape:r_cy="true"
           inkscape:r_cx="true"
           id="path4937"
           style="color:#000000;display:inline;overflow:visible;visibility:visible;opacity:1;fill:#ffffff;fill-opacity:1;fill-rule:evenodd;stroke:none;stroke-width:1;stroke-linecap:round;stroke-linejoin:round;stroke-miterlimit:4;stroke-dasharray:none;stroke-dashoffset:0;stroke-opacity:1;marker:none;marker-start:none;marker-mid:none;marker-end:none"
           cx="12.071323"
           cy="12.493138"
           r="6.7175145" />
      </g>
      <ellipse
         transform="rotate(-174.37239)"
         inkscape:r_cy="true"
         inkscape:r_cx="true"
         id="path6013"
         style="color:#000000;display:inline;overflow:visible;visibility:visible;opacity:1;fill:none;fill-opacity:1;fill-rule:evenodd;stroke:url(#linearGradient6015);stroke-width:0.99999982;stroke-linecap:round;stroke-linejoin:round;stroke-miterlimit:4;stroke-dasharray:none;stroke-dashoffset:0;stroke-opacity:1;marker:none;marker-start:none;marker-mid:none;marker-end:none"
         cx="-68.27417"
         cy="-454.68845"
         rx="20.240929"
         ry="9.45755" />
      <ellipse
         transform="matrix(0.73014176,-0.6832957,0.68331862,0.7301203,0,0)"
         inkscape:r_cy="true"
         inkscape:r_cx="true"
         id="path6017"
         style="color:#000000;display:inline;overflow:visible;visibility:visible;opacity:1;fill:none;fill-opacity:1;fill-rule:evenodd;stroke:url(#linearGradient6019);stroke-width:0.99999928;stroke-linecap:round;stroke-linejoin:round;stroke-miterlimit:4;stroke-dasharray:none;stroke-dashoffset:0;stroke-opacity:1;marker:none;marker-start:none;marker-mid:none;marker-end:none"
         cx="-297.2778"
         cy="353.61942"
         rx="19.778389"
         ry="9.241395" />
      <g
         inkscape:r_cy="true"
         inkscape:r_cx="true"
         transform="matrix(-0.806276,0.59154,0.59154,0.806276,12.319967,419.23743)"
         id="g5075">
        <circle
           style="color:#000000;display:inline;overflow:visible;visibility:visible;opacity:1;fill:url(#radialGradient5983);fill-opacity:1;fill-rule:evenodd;stroke:none;stroke-width:1;stroke-linecap:round;stroke-linejoin:round;stroke-miterlimit:4;stroke-dasharray:none;stroke-dashoffset:0;stroke-opacity:1;marker:none;marker-start:none;marker-mid:none;marker-end:none"
           id="path5077"
           inkscape:r_cx="true"
           inkscape:r_cy="true"
           transform="translate(14.95026,22.93047)"
           cx="12.071323"
           cy="12.493138"
           r="6.7175145" />
        <circle
           transform="matrix(0.308271,0,0,0.308271,23.30035,31.57234)"
           inkscape:r_cy="true"
           inkscape:r_cx="true"
           id="path5079"
           style="color:#000000;display:inline;overflow:visible;visibility:visible;opacity:1;fill:#ffffff;fill-opacity:1;fill-rule:evenodd;stroke:none;stroke-width:1;stroke-linecap:round;stroke-linejoin:round;stroke-miterlimit:4;stroke-dasharray:none;stroke-dashoffset:0;stroke-opacity:1;marker:none;marker-start:none;marker-mid:none;marker-end:none"
           cx="12.071323"
           cy="12.493138"
           r="6.7175145" />
      </g>
      <g
         id="g4945"
         transform="matrix(-0.806276,0.59154,0.59154,0.806276,13.433427,405.76642)"
         inkscape:r_cx="true"
         inkscape:r_cy="true">
        <circle
           transform="translate(14.95026,22.93047)"
           inkscape:r_cy="true"
           inkscape:r_cx="true"
           id="path4947"
           style="color:#000000;display:inline;overflow:visible;visibility:visible;opacity:1;fill:url(#radialGradient5985);fill-opacity:1;fill-rule:evenodd;stroke:none;stroke-width:1;stroke-linecap:round;stroke-linejoin:round;stroke-miterlimit:4;stroke-dasharray:none;stroke-dashoffset:0;stroke-opacity:1;marker:none;marker-start:none;marker-mid:none;marker-end:none"
           cx="12.071323"
           cy="12.493138"
           r="6.7175145" />
        <circle
           style="color:#000000;display:inline;overflow:visible;visibility:visible;opacity:1;fill:#ffffff;fill-opacity:1;fill-rule:evenodd;stroke:none;stroke-width:1;stroke-linecap:round;stroke-linejoin:round;stroke-miterlimit:4;stroke-dasharray:none;stroke-dashoffset:0;stroke-opacity:1;marker:none;marker-start:none;marker-mid:none;marker-end:none"
           id="path4949"
           inkscape:r_cx="true"
           inkscape:r_cy="true"
           transform="matrix(0.308271,0,0,0.308271,23.30035,31.57234)"
           cx="12.071323"
           cy="12.493138"
           r="6.7175145" />
      </g>
      <g
         inkscape:r_cy="true"
         inkscape:r_cx="true"
         transform="matrix(-0.870227,0.638572,0.638458,0.870381,25.139357,401.95386)"
         id="g4939"
         style="opacity:1">
        <circle
           transform="translate(14.95026,22.93047)"
           inkscape:r_cy="true"
           inkscape:r_cx="true"
           id="path4941"
           style="color:#000000;display:inline;overflow:visible;visibility:visible;opacity:1;fill:url(#radialGradient5989);fill-opacity:1;fill-rule:evenodd;stroke:none;stroke-width:1;stroke-linecap:round;stroke-linejoin:round;stroke-miterlimit:4;stroke-dasharray:none;stroke-dashoffset:0;stroke-opacity:1;marker:none;marker-start:none;marker-mid:none;marker-end:none"
           cx="12.071323"
           cy="12.493138"
           r="6.7175145" />
        <circle
           style="color:#000000;display:inline;overflow:visible;visibility:visible;opacity:1;fill:#ffffff;fill-opacity:1;fill-rule:evenodd;stroke:none;stroke-width:1;stroke-linecap:round;stroke-linejoin:round;stroke-miterlimit:4;stroke-dasharray:none;stroke-dashoffset:0;stroke-opacity:1;marker:none;marker-start:none;marker-mid:none;marker-end:none"
           id="path4943"
           inkscape:r_cx="true"
           inkscape:r_cy="true"
           transform="matrix(0.308271,0,0,0.308271,23.30035,31.57234)"
           cx="12.071323"
           cy="12.493138"
           r="6.7175145" />
      </g>
    </g>
  </g>
</svg>
