<?xml version="1.0" encoding="UTF-8" standalone="no"?>
<!-- Created with Inkscape (http://www.inkscape.org/) -->

<svg
   xmlns:dc="http://purl.org/dc/elements/1.1/"
   xmlns:cc="http://creativecommons.org/ns#"
   xmlns:rdf="http://www.w3.org/1999/02/22-rdf-syntax-ns#"
   xmlns:svg="http://www.w3.org/2000/svg"
   xmlns="http://www.w3.org/2000/svg"
   xmlns:sodipodi="http://sodipodi.sourceforge.net/DTD/sodipodi-0.dtd"
   xmlns:inkscape="http://www.inkscape.org/namespaces/inkscape"
   width="256"
   height="256"
   viewBox="0 0 67.733332 67.733335"
   version="1.1"
   id="svg8"
   inkscape:version="0.92.2 5c3e80d, 2017-08-06"
   sodipodi:docname="cr3_viewer_settings_hc-256x256-src.svg">
  <defs
     id="defs2" />
  <sodipodi:namedview
     id="base"
     pagecolor="#ffffff"
     bordercolor="#666666"
     borderopacity="1.0"
     inkscape:pageopacity="0.0"
     inkscape:pageshadow="2"
     inkscape:zoom="1.2016753"
     inkscape:cx="152.55585"
     inkscape:cy="118.17422"
     inkscape:document-units="px"
     inkscape:current-layer="layer1"
     showgrid="false"
     units="px"
     inkscape:window-width="1157"
     inkscape:window-height="816"
     inkscape:window-x="1325"
     inkscape:window-y="27"
     inkscape:window-maximized="0" />
  <metadata
     id="metadata5">
    <rdf:RDF>
      <cc:Work
         rdf:about="">
        <dc:format>image/svg+xml</dc:format>
        <dc:type
           rdf:resource="http://purl.org/dc/dcmitype/StillImage" />
        <dc:title></dc:title>
      </cc:Work>
    </rdf:RDF>
  </metadata>
  <g
     inkscape:label="Layer 1"
     inkscape:groupmode="layer"
     id="layer1"
     transform="translate(0,-229.26664)">
    <path
       style="fill:#000000;stroke-width:0.25547895"
       d="m 8.5195948,291.0327 c -2.6709515,-1.4091 -3.7373861,-4.66031 -2.3623196,-7.2019 0.7596732,-1.40414 15.3401648,-16.0396 16.6438668,-16.70662 0.94358,-0.48277 2.35865,-0.53441 4.259757,-0.15545 0.258688,0.0516 4.265637,-3.85196 10.907024,-10.62548 8.838037,-9.01388 10.459425,-10.77933 10.253453,-11.16448 -0.425448,-0.79553 -0.285286,-3.24401 0.244495,-4.27096 0.702934,-1.36259 6.020922,-6.26316 6.597816,-6.07993 0.246821,0.0784 1.910872,1.61013 3.697885,3.40385 l 3.249097,3.2613 -2.805995,3.10417 c -3.291462,3.64119 -3.954889,4.02043 -6.79458,3.88393 l -1.823576,-0.0877 -10.395826,10.54309 -10.395833,10.54308 0.280112,0.80412 c 0.411583,1.18152 0.333351,2.50255 -0.220507,3.72351 -0.605492,1.33477 -15.247124,16.24168 -16.663904,16.96582 -1.176639,0.60139 -3.5857599,0.63214 -4.6709652,0.0596 z m 38.2088762,-0.21849 c -6.458494,-1.81493 -10.47624,-8.46542 -8.866338,-14.67626 l 0.356241,-1.37435 -2.016248,-2.03679 c -1.108943,-1.12023 -2.016247,-2.10675 -2.016247,-2.19226 0,-0.0855 1.635721,-1.79532 3.634932,-3.79956 l 3.634932,-3.64409 2.099547,2.09016 2.099537,2.09016 1.308119,-0.30217 c 7.33246,-1.69376 14.156384,3.13303 15.180926,10.738 0.145568,1.08051 -0.214341,4.08069 -0.555871,4.6337 -0.07432,0.12044 -1.874453,-1.50699 -4.000169,-3.61648 -4.171922,-4.1401 -4.785466,-4.50287 -6.601329,-3.90314 -1.159,0.38278 -4.474197,3.75185 -4.795679,4.8736 -0.518111,1.80786 -0.03369,2.60688 4.129443,6.81053 l 3.827824,3.86512 -0.85106,0.31103 c -1.373118,0.50179 -4.994893,0.57502 -6.56856,0.1328 z m -22.632274,-30.0011 -2.041152,-2.02019 -1.968248,0.41288 c -1.677243,0.35183 -2.243626,0.36617 -3.830789,0.097 C 8.8716238,258.05038 4.2638962,251.12978 6.1233992,244.08407 l 0.260481,-0.98697 3.7625258,3.71326 c 3.978114,3.92603 4.573376,4.28868 6.385854,3.89029 0.966552,-0.21244 4.162749,-3.13543 4.724966,-4.32108 0.481605,-1.01565 0.535159,-2.25457 0.131861,-3.05044 -0.155584,-0.30704 -1.897426,-2.18781 -3.870761,-4.17952 l -3.587881,-3.62128 1.125363,-0.31571 c 2.980029,-0.83604 7.077028,-0.12305 9.840356,1.71248 4.216279,2.80064 6.334056,8.15927 5.091172,12.88222 l -0.367751,1.39745 2.154578,2.17654 2.154577,2.17654 -3.641568,3.63773 c -2.002864,2.00075 -3.755928,3.63772 -3.895697,3.63772 -0.139769,0 -1.172644,-0.90909 -2.295278,-2.02019 z"
       id="path41"
       inkscape:connector-curvature="0" />
  </g>
</svg>
