<?xml version="1.0" encoding="UTF-8" standalone="no"?>
<!-- Created with Inkscape (http://www.inkscape.org/) -->

<svg
   xmlns:dc="http://purl.org/dc/elements/1.1/"
   xmlns:cc="http://creativecommons.org/ns#"
   xmlns:rdf="http://www.w3.org/1999/02/22-rdf-syntax-ns#"
   xmlns:svg="http://www.w3.org/2000/svg"
   xmlns="http://www.w3.org/2000/svg"
   xmlns:xlink="http://www.w3.org/1999/xlink"
   xmlns:sodipodi="http://sodipodi.sourceforge.net/DTD/sodipodi-0.dtd"
   xmlns:inkscape="http://www.inkscape.org/namespaces/inkscape"
   width="48"
   height="48"
   viewBox="0 0 48 48"
   version="1.1"
   id="svg8"
   inkscape:version="0.92.2 5c3e80d, 2017-08-06"
   sodipodi:docname="cr3_option_view_mode_scroll-48x48-src.svg">
  <defs
     id="defs2">
    <linearGradient
       inkscape:collect="always"
       id="linearGradient927-3-5">
      <stop
         style="stop-color:#b6eaf8;stop-opacity:1"
         offset="0"
         id="stop923" />
      <stop
         style="stop-color:#ffffff;stop-opacity:0.99585062"
         offset="1"
         id="stop925" />
    </linearGradient>
    <linearGradient
       inkscape:collect="always"
       xlink:href="#linearGradient927-3-5"
       id="linearGradient929"
       x1="47.622471"
       y1="481.98703"
       x2="47.497173"
       y2="445.26749"
       gradientUnits="userSpaceOnUse"
       gradientTransform="matrix(1.2425777,0,0,1.2425777,-33.822927,-115.53715)" />
    <linearGradient
       inkscape:collect="always"
       xlink:href="#linearGradient927-3-5"
       id="linearGradient937"
       x1="42.024235"
       y1="478.88745"
       x2="41.741657"
       y2="472.12045"
       gradientUnits="userSpaceOnUse"
       gradientTransform="matrix(1.2425777,0,0,1.2425777,-34.892921,-115.7144)" />
  </defs>
  <sodipodi:namedview
     id="base"
     pagecolor="#ffffff"
     bordercolor="#666666"
     borderopacity="1.0"
     inkscape:pageopacity="0.0"
     inkscape:pageshadow="2"
     inkscape:zoom="4.8067012"
     inkscape:cx="-14.338963"
     inkscape:cy="16.889379"
     inkscape:document-units="px"
     inkscape:current-layer="layer1"
     showgrid="false"
     units="px"
     inkscape:window-width="1405"
     inkscape:window-height="1050"
     inkscape:window-x="1735"
     inkscape:window-y="78"
     inkscape:window-maximized="0"
     inkscape:pagecheckerboard="true" />
  <metadata
     id="metadata5">
    <rdf:RDF>
      <cc:Work
         rdf:about="">
        <dc:format>image/svg+xml</dc:format>
        <dc:type
           rdf:resource="http://purl.org/dc/dcmitype/StillImage" />
        <dc:title />
      </cc:Work>
    </rdf:RDF>
  </metadata>
  <g
     inkscape:label="Layer 1"
     inkscape:groupmode="layer"
     id="layer1"
     transform="translate(0,-437.26664)">
    <path
       style="fill:#b6eaf8;fill-opacity:1;fill-rule:evenodd;stroke:#34b1e9;stroke-width:2.48515534;stroke-linecap:round;stroke-linejoin:round;stroke-miterlimit:4;stroke-dasharray:none;stroke-opacity:1"
       d="m 21.688906,451.06355 h 21.06852 c 0,0 -0.04298,-1.66018 -0.293595,-2.44016 -0.227722,-0.70875 -0.509999,-1.39849 -1.074668,-1.95774 -0.343963,-0.34067 -1.265378,-0.91583 -1.730603,-1.04972 -6.66138,0 -21.538495,0.24741 -21.538495,0.24741 0,0 2.254246,1.39544 2.922568,2.48585 0.486027,0.79299 0.646273,2.71436 0.646273,2.71436 z"
       id="path921-3"
       inkscape:connector-curvature="0"
       sodipodi:nodetypes="ccacccac" />
    <path
       style="fill:url(#linearGradient929);fill-opacity:1;fill-rule:evenodd;stroke:#34b1e9;stroke-width:2.48515534;stroke-linecap:butt;stroke-linejoin:miter;stroke-miterlimit:4;stroke-dasharray:none;stroke-opacity:1"
       d="m 10.387734,476.89274 c 11.264023,0.0676 13.105507,-0.0201 19.215552,-0.0695 1.123411,0.0154 1.959868,-0.46611 2.946088,-1.04417 1.175582,-0.91043 1.74494,-2.68204 1.74494,-2.68204 0,0 1.807324,-15.34568 2.585095,-23.26586 0.189054,-1.50231 0.434607,-2.70927 1.292159,-3.51105 0.770467,-0.72035 1.486992,-0.70423 1.486992,-0.70423 H 16.260955 c -0.628071,0.14884 -1.283553,0.95593 -1.736541,1.59945 -0.742613,1.05496 -1.175248,2.31803 -1.508048,3.56448 -0.991044,6.80214 -2.628632,26.11288 -2.628632,26.11288 z"
       id="path919"
       inkscape:connector-curvature="0"
       sodipodi:nodetypes="cccccsccacc" />
    <path
       style="fill:url(#linearGradient937);fill-opacity:1;fill-rule:evenodd;stroke:#34b1e9;stroke-width:2.48515534;stroke-linecap:round;stroke-linejoin:round;stroke-miterlimit:4;stroke-dasharray:none;stroke-opacity:1"
       d="M 26.311094,471.40702 H 5.2425739 c 0,0 0.042981,1.66019 0.293595,2.44016 0.2277222,0.70876 0.5099986,1.3985 1.0746682,1.95775 0.3439629,0.34066 1.2653777,0.91583 1.7306025,1.04971 6.6613804,0 21.5384954,-0.2474 21.5384954,-0.2474 0,0 -2.254246,-1.39544 -2.922568,-2.48586 -0.486027,-0.79298 -0.646273,-2.71436 -0.646273,-2.71436 z"
       id="path921"
       inkscape:connector-curvature="0"
       sodipodi:nodetypes="ccacccac" />
  </g>
</svg>
