<?xml version="1.0" encoding="UTF-8" standalone="no"?>
<!-- Created with Inkscape (http://www.inkscape.org/) -->

<svg
   xmlns:dc="http://purl.org/dc/elements/1.1/"
   xmlns:cc="http://creativecommons.org/ns#"
   xmlns:rdf="http://www.w3.org/1999/02/22-rdf-syntax-ns#"
   xmlns:svg="http://www.w3.org/2000/svg"
   xmlns="http://www.w3.org/2000/svg"
   xmlns:sodipodi="http://sodipodi.sourceforge.net/DTD/sodipodi-0.dtd"
   xmlns:inkscape="http://www.inkscape.org/namespaces/inkscape"
   width="256"
   height="256"
   viewBox="0 0 67.733332 67.733335"
   version="1.1"
   id="svg8"
   inkscape:version="0.92.2 5c3e80d, 2017-08-06"
   sodipodi:docname="folder-hc-256x256-src.svg">
  <defs
     id="defs2" />
  <sodipodi:namedview
     id="base"
     pagecolor="#ffffff"
     bordercolor="#666666"
     borderopacity="1.0"
     inkscape:pageopacity="0.0"
     inkscape:pageshadow="2"
     inkscape:zoom="0.9899495"
     inkscape:cx="80.642409"
     inkscape:cy="85.727811"
     inkscape:document-units="px"
     inkscape:current-layer="layer1"
     showgrid="false"
     units="px"
     inkscape:window-width="1920"
     inkscape:window-height="1002"
     inkscape:window-x="0"
     inkscape:window-y="0"
     inkscape:window-maximized="1"
     inkscape:pagecheckerboard="true" />
  <metadata
     id="metadata5">
    <rdf:RDF>
      <cc:Work
         rdf:about="">
        <dc:format>image/svg+xml</dc:format>
        <dc:type
           rdf:resource="http://purl.org/dc/dcmitype/StillImage" />
        <dc:title></dc:title>
      </cc:Work>
    </rdf:RDF>
  </metadata>
  <g
     inkscape:label="Layer 1"
     inkscape:groupmode="layer"
     id="layer1"
     transform="translate(0,-229.26664)">
    <path
       inkscape:connector-curvature="0"
       id="path828"
       d="m 6.2402344,231.70703 c -7.8769705,1.02688 -5.40695165,10.76382 -5.68359378,16.20508 0.31132,14.17642 0.0695303,28.45577 0.40625,42.60351 4.72030458,5.65174 12.73621338,3.78078 18.83398438,4.07618 14.589412,0.1102 29.173351,0.12875 43.6609,0.01 4.585545,0.19398 3.108404,-13.7552 3.247489,-20.24591 -0.118555,-7.28558 0.03299,-15.41786 -0.607608,-22.35742 -1.762154,-3.43565 -6.537657,-1.24627 -6.05664,-5.89844 0.260937,-5.73793 -5.816329,-8.20509 -10.712819,-7.31471 -5.728099,-0.39823 -12.669752,0.61128 -17.595775,-0.56029 -0.364969,-5.10394 -5.221484,-6.50958 -10.183594,-6.54883 -5.101942,0.0247 -10.20973,-0.0473 -15.3085936,0.0312 z"
       style="opacity:1;fill:#ffffff;fill-opacity:1;fill-rule:nonzero;stroke:none;stroke-width:0.25237754"
       sodipodi:nodetypes="ccccccccccccc" />
    <path
       style="fill:#000000;stroke-width:0.25237754"
       d="m 5.5562695,288.35462 v -25.22131 -25.22132 c -0.0039,-0.6767 0.578995,-1.22965 1.240879,-1.23701 h 9.3755225 9.375521 l 0.620439,0.6185 c 0.587085,0.58526 0.620438,0.77491 0.620438,3.52778 v 2.90927 H 40.04774 c 9.17865,0 13.44823,0.0861 13.87463,0.27977 0.93851,0.42629 1.17725,1.2662 1.17725,4.14181 v 2.63398 H 34.41631 13.73308 c -0.659802,0.0176 -1.082624,0.48512 -1.099208,1.16641 v 14.7439 14.7439 l 0.585026,0.5479 c 0.758974,0.71079 1.714266,0.69676 2.404169,-0.0353 l 0.549604,-0.58321 V 267.84175 254.31384 H 38.55448 60.93637 c 0.67295,0.0147 1.23819,0.52241 1.24089,1.23702 v 16.40187 16.40187 c 0.004,0.6767 -0.56772,1.24091 -1.24089,1.23702 H 33.8667 6.7971485 c -0.611108,-0.002 -1.233494,-0.57718 -1.240879,-1.237 z"
       id="path36"
       inkscape:connector-curvature="0"
       sodipodi:nodetypes="cccccccscscscccccccccccccccccccc" />
  </g>
</svg>
