<?xml version="1.0" encoding="UTF-8" standalone="no"?>
<!-- Created with Inkscape (http://www.inkscape.org/) -->

<svg
   xmlns:dc="http://purl.org/dc/elements/1.1/"
   xmlns:cc="http://creativecommons.org/ns#"
   xmlns:rdf="http://www.w3.org/1999/02/22-rdf-syntax-ns#"
   xmlns:svg="http://www.w3.org/2000/svg"
   xmlns="http://www.w3.org/2000/svg"
   xmlns:xlink="http://www.w3.org/1999/xlink"
   xmlns:sodipodi="http://sodipodi.sourceforge.net/DTD/sodipodi-0.dtd"
   xmlns:inkscape="http://www.inkscape.org/namespaces/inkscape"
   width="48"
   height="48"
   viewBox="0 0 48 48"
   version="1.1"
   id="svg8"
   inkscape:version="0.92.2 5c3e80d, 2017-08-06"
   sodipodi:docname="media_flash_sd-48x48-src.svg">
  <defs
     id="defs2">
    <linearGradient
       inkscape:collect="always"
       id="linearGradient967">
      <stop
         style="stop-color:#789bc5;stop-opacity:1"
         offset="0"
         id="stop963" />
      <stop
         style="stop-color:#8eabcb;stop-opacity:1"
         offset="1"
         id="stop965" />
    </linearGradient>
    <linearGradient
       inkscape:collect="always"
       id="linearGradient957">
      <stop
         style="stop-color:#d6d6d6;stop-opacity:1"
         offset="0"
         id="stop953" />
      <stop
         style="stop-color:#ababab;stop-opacity:1"
         offset="1"
         id="stop955" />
    </linearGradient>
    <linearGradient
       inkscape:collect="always"
       xlink:href="#linearGradient957"
       id="linearGradient959"
       x1="48.747109"
       y1="460.23234"
       x2="75.398457"
       y2="460.23234"
       gradientUnits="userSpaceOnUse"
       gradientTransform="translate(-36.386587,51.108434)" />
    <linearGradient
       inkscape:collect="always"
       xlink:href="#linearGradient967"
       id="linearGradient969"
       x1="40.485999"
       y1="472.1012"
       x2="68.181747"
       y2="472.1637"
       gradientUnits="userSpaceOnUse"
       gradientTransform="translate(-29.736989,-1.596515)" />
    <linearGradient
       inkscape:collect="always"
       xlink:href="#linearGradient957"
       id="linearGradient1020"
       gradientUnits="userSpaceOnUse"
       gradientTransform="translate(-37.977577,0.980639)"
       x1="48.747109"
       y1="460.23234"
       x2="75.398457"
       y2="460.23234" />
  </defs>
  <sodipodi:namedview
     id="base"
     pagecolor="#ffffff"
     bordercolor="#666666"
     borderopacity="1.0"
     inkscape:pageopacity="0.0"
     inkscape:pageshadow="2"
     inkscape:zoom="8"
     inkscape:cx="41.551422"
     inkscape:cy="14.005897"
     inkscape:document-units="px"
     inkscape:current-layer="layer1"
     showgrid="false"
     units="px"
     inkscape:window-width="1523"
     inkscape:window-height="998"
     inkscape:window-x="389"
     inkscape:window-y="0"
     inkscape:window-maximized="0"
     inkscape:pagecheckerboard="true"
     objecttolerance="5"
     guidetolerance="5"
     inkscape:snap-path-clip="true"
     inkscape:snap-path-mask="true" />
  <metadata
     id="metadata5">
    <rdf:RDF>
      <cc:Work
         rdf:about="">
        <dc:format>image/svg+xml</dc:format>
        <dc:type
           rdf:resource="http://purl.org/dc/dcmitype/StillImage" />
        <dc:title></dc:title>
      </cc:Work>
    </rdf:RDF>
  </metadata>
  <g
     inkscape:label="Layer 1"
     inkscape:groupmode="layer"
     id="layer1"
     transform="translate(0,-437.26664)">
    <path
       id="path883"
       style="fill:#4771be;fill-opacity:1;fill-rule:evenodd;stroke:none;stroke-width:1px;stroke-linecap:butt;stroke-linejoin:miter;stroke-opacity:1"
       d="m 9.9494989,445.22672 1.1601581,-1.16015 h 26.199219 l 1.160156,1.16015 v 33.35581 l -1.157005,1.15701 H 11.06378 l -1.1088341,-1.10883 z m -2.4427767,-5.6004 H 35.310237 l 5.157993,5.15799 v 7.64045 h -1.498668 v 2.81345 h 0.981875 l 0.544376,0.39062 v 27.27813 H 26.841721 v -0.39008 h -5.230967 v 0.37775 H 7.5251112 v -22.93741 l 0.665331,-0.66534 h 1.1848387 v -9.38547 H 7.5041872 Z"
       inkscape:connector-curvature="0"
       sodipodi:nodetypes="ccccccccccccccccccccccccccccc" />
    <path
       style="fill:#ffffff;fill-opacity:1;fill-rule:evenodd;stroke:none;stroke-width:1px;stroke-linecap:butt;stroke-linejoin:miter;stroke-opacity:1"
       d="M 9.3752809,450.00641 H 7.9225531 l -0.4142722,0.41407 2.097e-4,3.30468 0.4101562,0.41017 h 1.4566341 z"
       id="path887"
       inkscape:connector-curvature="0"
       sodipodi:nodetypes="ccccccc" />
    <path
       style="fill:#264371;fill-opacity:1;fill-rule:evenodd;stroke:none;stroke-width:1px;stroke-linecap:butt;stroke-linejoin:miter;stroke-opacity:1"
       d="m 11.109657,444.06657 -1.1601571,1.16015 0.0039,33.40235 1.1093741,1.10937 h 26.248044 l 1.158203,-1.15625 v -33.35547 l -1.160156,-1.16015 z m 0.734374,0.76563 h 24.728516 l 1.09375,1.11133 V 477.8654 L 36.5745,478.97086 H 11.801063 l -1.046875,-1.06053 -0.0039,-31.9668 z"
       id="path883-3"
       inkscape:connector-curvature="0" />
    <path
       id="path883-3-6-7"
       style="fill:#fafbfd;fill-opacity:1;fill-rule:evenodd;stroke:none;stroke-width:0.95038003px;stroke-linecap:butt;stroke-linejoin:miter;stroke-opacity:1"
       d="m 10.74901,445.94353 1.095355,-1.1103 h 24.72697 l 1.094675,1.1103 v 31.92132 l -1.092,1.107 h -24.773 l -1.046,-1.06101 z"
       inkscape:connector-curvature="0"
       sodipodi:nodetypes="ccccccccc" />
    <path
       style="fill:#233b66;fill-opacity:1;fill-rule:evenodd;stroke:none;stroke-width:1px;stroke-linecap:butt;stroke-linejoin:miter;stroke-opacity:1"
       d="m 13.48425,480.63278 h 21.0315 v 0.875 h -21.0315 z"
       id="path939"
       inkscape:connector-curvature="0"
       sodipodi:nodetypes="ccccc" />
    <path
       style="fill:url(#linearGradient1020);fill-opacity:1;fill-rule:evenodd;stroke:none;stroke-width:0.30000001;stroke-linecap:butt;stroke-linejoin:miter;stroke-miterlimit:4;stroke-dasharray:none;stroke-opacity:1"
       d="m 10.74901,451.04858 26.917,-0.0148 v 11.83207 l -26.917,10.537 z"
       id="path943"
       inkscape:connector-curvature="0"
       sodipodi:nodetypes="ccccc" />
    <path
       style="fill:url(#linearGradient969);fill-opacity:1;fill-rule:evenodd;stroke:none;stroke-width:0.30000001;stroke-linecap:butt;stroke-linejoin:miter;stroke-miterlimit:4;stroke-dasharray:none;stroke-opacity:1"
       d="m 10.74901,473.40284 26.917,-10.537 v 14.999 l -1.092,1.107 h -24.773 l -1.046,-1.061 z"
       id="path961"
       inkscape:connector-curvature="0"
       sodipodi:nodetypes="ccccccc" />
    <rect
       style="opacity:1;fill:#ffffff;fill-opacity:1;fill-rule:nonzero;stroke:none;stroke-width:1.18625271;stroke-linecap:round;stroke-linejoin:round;stroke-miterlimit:4;stroke-dasharray:none;stroke-dashoffset:3;stroke-opacity:1"
       id="rect941"
       width="0.76890677"
       height="0.72521991"
       x="11.511393"
       y="455.11572"
       rx="0"
       ry="0" />
    <text
       xml:space="preserve"
       style="font-style:normal;font-weight:normal;font-size:17.5px;line-height:125%;font-family:Sans;letter-spacing:0px;word-spacing:0px;fill:#ffffff;fill-opacity:1;stroke:none;stroke-width:1px;stroke-linecap:butt;stroke-linejoin:miter;stroke-opacity:1"
       x="12.485699"
       y="456.56415"
       id="text973"><tspan
         sodipodi:role="line"
         id="tspan971"
         x="12.485699"
         y="456.56415"
         style="font-style:normal;font-variant:normal;font-weight:bold;font-stretch:normal;font-size:2.66666675px;font-family:'Noto Sans';-inkscape-font-specification:'Noto Sans Bold';fill:#ffffff;fill-opacity:1">Lock</tspan></text>
    <g
       transform="matrix(0.36305274,0,0,0.36305274,-15.033086,453.42216)"
       style="fill:#ffffff"
       id="g58">
      <path
         inkscape:connector-curvature="0"
         d="m 107.541,55.596 c -1.17,-1.17 -1.21,-2.02 -1.16,-2.62 0.04,-0.51 0.15,-0.85 0.53,-1.16 1.01,-0.84 3.93,-1.47 7.62,-1.66 h 7.57 l -0.971,2.33 h -9.509 c -0.78,0.19 -1.09,0.28 -1,0.53 0.11,0.3 0.79,0.82 1.19,0.83 l 2.33,0.77 c 1.75,0.59 2.68,0.74 3.649,1.48 0.811,0.62 1.641,1.65 1.59,2.66 -0.1,1.73 -2.85,3.39 -4.85,3.44 h -12.429 l 1.359,-4.08 6.99,0.58 c 0.32,0.23 2.33,0.01 2.63,-0.34 0.38,-0.44 -1.979,-1.09 -2.63,-1.41 z"
         id="path50" />
      <path
         inkscape:connector-curvature="0"
         d="m 130.848,50.544 -3.69,2.33 c -1.56,-0.39 -1.75,-0.39 -3.5,-0.58 l 0.97,-2.34 c 2.72,0 3.69,0.2 6.22,0.59 z"
         id="path52" />
      <path
         inkscape:connector-curvature="0"
         d="m 134.918,51.614 c -0.93,-0.47 -1.92,-0.61 -3.01,-0.78 l -3.88,2.33 0.87,0.39 z"
         id="path54" />
      <path
         inkscape:connector-curvature="0"
         d="m 119.968,62.393 c 4.7,0.28 11.091,-0.66 13.9,-1.62 0.87,-0.3 1.4,-0.6 2.8,-1.56 0.99,-0.68 2.42,-1.68 2.96,-2.74 0.5,-0.97 0.25,-1.98 -0.29,-2.63 -0.55,-0.67 -1.409,-0.97 -3.25,-1.75 l -6.6,2.04 c 0,2.24 -3.5,3.21 -7.58,3.21 z"
         id="path56" />
    </g>
    <path
       style="fill:#ff0003;fill-opacity:1;fill-rule:evenodd;stroke:none;stroke-width:1px;stroke-linecap:butt;stroke-linejoin:miter;stroke-opacity:1"
       d="m 34.519776,446.22588 -1.016466,3.7565 h 2.121321 z"
       id="path997"
       inkscape:connector-curvature="0"
       sodipodi:nodetypes="cccc" />
    <path
       style="fill:#a5b6cb;fill-opacity:1;fill-rule:evenodd;stroke:none;stroke-width:1px;stroke-linecap:butt;stroke-linejoin:miter;stroke-opacity:1"
       d="m 10.74901,471.40657 26.917,-10.54583 v 0.80102 l -26.917,10.5845 z"
       id="path999"
       inkscape:connector-curvature="0"
       sodipodi:nodetypes="ccccc" />
  </g>
</svg>
