<?xml version="1.0" encoding="UTF-8" standalone="no"?>
<!-- Created with Inkscape (http://www.inkscape.org/) -->

<svg
   xmlns:dc="http://purl.org/dc/elements/1.1/"
   xmlns:cc="http://creativecommons.org/ns#"
   xmlns:rdf="http://www.w3.org/1999/02/22-rdf-syntax-ns#"
   xmlns:svg="http://www.w3.org/2000/svg"
   xmlns="http://www.w3.org/2000/svg"
   xmlns:xlink="http://www.w3.org/1999/xlink"
   xmlns:sodipodi="http://sodipodi.sourceforge.net/DTD/sodipodi-0.dtd"
   xmlns:inkscape="http://www.inkscape.org/namespaces/inkscape"
   width="48"
   height="48"
   viewBox="0 0 48 48"
   version="1.1"
   id="svg8"
   inkscape:version="0.92.2 5c3e80d, 2017-08-06"
   sodipodi:docname="media_flash_microsd-48x48-src.svg">
  <defs
     id="defs2">
    <linearGradient
       inkscape:collect="always"
       id="linearGradient957">
      <stop
         style="stop-color:#d6d6d6;stop-opacity:1"
         offset="0"
         id="stop953" />
      <stop
         style="stop-color:#ababab;stop-opacity:1"
         offset="1"
         id="stop955" />
    </linearGradient>
    <linearGradient
       inkscape:collect="always"
       xlink:href="#linearGradient957"
       id="linearGradient959"
       x1="48.747109"
       y1="460.23234"
       x2="75.398457"
       y2="460.23234"
       gradientUnits="userSpaceOnUse"
       gradientTransform="translate(-36.386587,51.108434)" />
  </defs>
  <sodipodi:namedview
     id="base"
     pagecolor="#ffffff"
     bordercolor="#666666"
     borderopacity="1.0"
     inkscape:pageopacity="0.0"
     inkscape:pageshadow="2"
     inkscape:zoom="5.6568543"
     inkscape:cx="51.497024"
     inkscape:cy="1.3431912"
     inkscape:document-units="px"
     inkscape:current-layer="layer1"
     showgrid="false"
     units="px"
     inkscape:window-width="1523"
     inkscape:window-height="998"
     inkscape:window-x="389"
     inkscape:window-y="0"
     inkscape:window-maximized="0"
     inkscape:pagecheckerboard="true"
     objecttolerance="5"
     guidetolerance="5"
     inkscape:snap-path-clip="true"
     inkscape:snap-path-mask="true" />
  <metadata
     id="metadata5">
    <rdf:RDF>
      <cc:Work
         rdf:about="">
        <dc:format>image/svg+xml</dc:format>
        <dc:type
           rdf:resource="http://purl.org/dc/dcmitype/StillImage" />
        <dc:title />
      </cc:Work>
    </rdf:RDF>
  </metadata>
  <g
     inkscape:label="Layer 1"
     inkscape:groupmode="layer"
     id="layer1"
     transform="translate(0,-437.26664)">
    <path
       style="fill:#ffffff;fill-opacity:1;fill-rule:evenodd;stroke:none;stroke-width:1px;stroke-linecap:butt;stroke-linejoin:miter;stroke-opacity:1"
       d="m 0.265,444.07767 h 47.36 v 30.31397 H 32.8125 l -5.1875,4.4375 h -5.6875 l -0.544194,-0.49935 -0.06629,-1.32747 -1.748996,-0.0221 -2.077126,1.65728 H 0.265 Z"
       id="path1060"
       inkscape:connector-curvature="0"
       sodipodi:nodetypes="cccccccccccc" />
    <g
       id="g1211"
       transform="translate(-0.50000127,-0.03314211)">
      <g
         id="g452"
         transform="matrix(0,-0.56951294,-0.56951294,0,263.43944,476.83827)">
        <path
           id="path450"
           stroke-miterlimit="3"
           d="M 54.271,381.69 53.65,381.281 H 8.22 l -1.13,0.569 v 1.13 22.4 l -7.09,8.5 0.06,7.74 0.29,0.479 0.57,0.28 h 1.99 v 5.11 L 0,431.46 v 25.89 l 0.13,0.4 0.51,0.07 h 53.381 l 0.34,-0.271 0.06,-0.26 v -47.83 -4.2 l 0.149,-22.83 z"
           inkscape:connector-curvature="0"
           style="stroke:#000000;stroke-width:0.72000003;stroke-linecap:round;stroke-linejoin:round;stroke-miterlimit:3" />
      </g>
      <path
         sodipodi:nodetypes="ccccc"
         inkscape:connector-curvature="0"
         id="path454"
         d="m 4.9921875,445.64064 c 2.2437696,7.52291 2.3077649,22.93562 -0.00781,31.404 H 6.914065 c 2.4683314,-9.02703 2.4864549,-23.23115 0.048827,-31.40402 -0.9251646,0 -1.0358772,2e-5 -1.9707045,2e-5 z"
         style="color:#000000;font-style:normal;font-variant:normal;font-weight:normal;font-stretch:normal;font-size:medium;line-height:normal;font-family:sans-serif;font-variant-ligatures:normal;font-variant-position:normal;font-variant-caps:normal;font-variant-numeric:normal;font-variant-alternates:normal;font-feature-settings:normal;text-indent:0;text-align:start;text-decoration:none;text-decoration-line:none;text-decoration-style:solid;text-decoration-color:#000000;letter-spacing:normal;word-spacing:normal;text-transform:none;writing-mode:lr-tb;direction:ltr;text-orientation:mixed;dominant-baseline:auto;baseline-shift:baseline;text-anchor:start;white-space:normal;shape-padding:0;clip-rule:nonzero;display:inline;overflow:visible;visibility:visible;opacity:1;isolation:auto;mix-blend-mode:normal;color-interpolation:sRGB;color-interpolation-filters:linearRGB;solid-color:#000000;solid-opacity:1;vector-effect:none;fill:#808080;fill-opacity:1;fill-rule:nonzero;stroke:none;stroke-width:2;stroke-linecap:butt;stroke-linejoin:round;stroke-miterlimit:3;stroke-dasharray:none;stroke-dashoffset:0;stroke-opacity:1;color-rendering:auto;image-rendering:auto;shape-rendering:auto;text-rendering:auto;enable-background:accumulate" />
      <g
         id="g476"
         transform="matrix(0,0.56951294,-0.56951294,0,298.05842,445.03497)">
        <desc
           id="desc472">▲</desc>
        <path
           id="path474"
           d="m 5.188,452.339 2.773,-5.543 2.773,5.543 z"
           inkscape:connector-curvature="0"
           style="fill:#ffffff" />
      </g>
      <path
         id="path478"
         d="m 25.342025,467.11042 h 0.461305 v -5.1877 c 0.148074,-0.34797 0.825794,-0.34797 0.996648,0.0456 v 5.09657 h 1.252928 v -5.65526 c 0,-1.2928 -2.323612,-1.36171 -2.773528,-0.66634 -0.410049,-0.71701 -2.716576,-0.65494 -2.716576,0.64925 v 5.64957 h 1.218757 v -5.09145 c 0.170854,-0.39239 0.831489,-0.39239 0.973867,-0.0456 v 5.18314 h 0.449916 z"
         style="fill:#ffffff;stroke-width:0.56951296"
         inkscape:connector-curvature="0" />
      <path
         id="path480"
         d="m 29.747207,462.53496 z m 0,0 c 0.01823,-0.3793 -0.273366,-0.70165 -0.652662,-0.71987 -0.378726,-0.0188 -0.70107,0.27337 -0.719864,0.65266 -0.0011,0.0222 -0.0011,0.0444 0,0.0666 v 2.11233 h 1.372526 z"
         style="fill:#ffffff;stroke-width:0.56951296"
         inkscape:connector-curvature="0" />
      <path
         id="path482"
         d="m 29.747207,462.53496 c 0.01823,-0.3793 -0.273366,-0.70165 -0.652662,-0.71987 -0.378726,-0.0188 -0.70107,0.27337 -0.719864,0.65266 -0.0011,0.0222 -0.0011,0.0444 0,0.0666 v 2.11233 h 1.372526 v -2.11175"
         style="fill:none;stroke-width:0.56951296"
         inkscape:connector-curvature="0" />
      <g
         id="g490"
         style="fill:#ffffff"
         transform="matrix(0.56951294,0,0,0.56951294,-42.099128,234.91886)">
        <circle
           id="circle484"
           r="1.206"
           cx="124.95"
           cy="397" />
        <path
           id="path486"
           d="m 131.159,395.864 h -1.56 v 0.029 c -2.03,0.255 -3.461,2.053 -3.198,4.015 0.229,1.707 1.681,3.015 3.458,3.116 l 1.3,0.01 c 0.509,-0.003 0.961,-0.283 1.13,-0.7 0.221,-0.547 -0.11,-1.146 -0.738,-1.337 -0.088,-0.027 -0.179,-0.045 -0.271,-0.053 l -0.12,-0.01 h -1.291 c -0.861,-0.273 -1.326,-1.152 -1.037,-1.963 0.177,-0.497 0.608,-0.876 1.147,-1.008 h 1.18 c 0.667,0 1.208,-0.471 1.208,-1.05 0,-0.579 -0.541,-1.049 -1.208,-1.049 z"
           inkscape:connector-curvature="0" />
        <path
           id="path488"
           d="m 136.303,398.534 z m 2.02,0.571 c 0.325,-1.408 -0.504,-2.824 -1.853,-3.164 -0.33,-0.084 -0.673,-0.096 -1.008,-0.037 -1.367,-0.238 -2.662,0.726 -2.891,2.154 -0.014,0.084 -0.023,0.17 -0.029,0.256 l -0.009,0.17 v 4.551 h 2.01 v -0.35 -1.631 -2.52 c -0.026,-0.434 0.345,-0.805 0.829,-0.829 0.484,-0.024 0.899,0.308 0.927,0.741 0.001,0.029 0.001,0.059 0,0.088 l 0.005,0.57 h 2.019 z"
           inkscape:connector-curvature="0" />
      </g>
      <path
         id="path492"
         d="m 35.527194,461.88912 m 1.150416,0.3252 c 0.185092,-0.80188 -0.287034,-1.6083 -1.055307,-1.80194 -0.187939,-0.0478 -0.383282,-0.0547 -0.574069,-0.0211 -0.778524,-0.13554 -1.516044,0.41347 -1.646462,1.22674 -0.008,0.0478 -0.0131,0.0968 -0.01652,0.14579 l -0.0051,0.0968 v 2.59185 h 1.144721 v -0.19933 -0.92887 -1.43518 c -0.01481,-0.24717 0.196482,-0.45845 0.472127,-0.47212 0.275644,-0.0137 0.511992,0.17541 0.527938,0.42201 5.7e-4,0.0165 5.7e-4,0.0336 0,0.0501 l 0.0028,0.32463 h 1.149846"
         style="fill:none;stroke-width:0.56951296"
         inkscape:connector-curvature="0" />
      <path
         id="path494"
         d="m 40.642559,462.39029 c 0.02278,-1.13845 -0.816112,-2.08043 -1.872558,-2.10491 -1.057016,-0.0239 -1.932358,0.87932 -1.954569,2.01721 -5.69e-4,0.0296 -5.69e-4,0.0587 0,0.0877 -0.02278,1.13789 0.816112,2.08044 1.872559,2.10436 1.056446,0.0239 1.932357,-0.87876 1.954568,-2.01721 5.7e-4,-0.0285 5.7e-4,-0.0575 0,-0.0872 z m -1.076379,0 c 0,-0.4613 -0.373601,-0.8349 -0.834337,-0.8349 -0.461305,0 -0.834906,0.3736 -0.834906,0.8349 0,0.46131 0.373601,0.83435 0.834906,0.83435 0.460736,0 0.834337,-0.37304 0.834337,-0.83435 z"
         style="fill:#ffffff;stroke-width:0.56951296"
         inkscape:connector-curvature="0" />
      <circle
         style="stroke-width:0.56951296"
         id="circle496"
         r="0.88787067"
         cx="38.787083"
         cy="462.38971" />
      <g
         id="g506"
         style="fill:#ffffff"
         transform="matrix(0.56951294,0,0,0.56951294,-42.099128,234.91886)">
        <path
           id="path498"
           d="m 126.61,406.796 c -0.68,-0.67 -0.7,-1.16 -0.67,-1.511 0.02,-0.299 0.09,-0.489 0.3,-0.67 0.59,-0.479 2.28,-0.85 4.42,-0.959 h 4.38 l -0.56,1.35 h -5.51 c -0.45,0.109 -0.631,0.16 -0.58,0.3 0.069,0.181 0.46,0.479 0.689,0.479 l 1.351,0.451 c 1.01,0.34 1.56,0.43 2.109,0.85 0.47,0.359 0.96,0.96 0.92,1.54 -0.05,1.01 -1.64,1.97 -2.8,2 h -7.199 l 0.79,-2.36 4.05,0.33 c 0.181,0.13 1.341,0.01 1.521,-0.189 0.22,-0.26 -1.15,-0.631 -1.521,-0.82 z"
           inkscape:connector-curvature="0" />
        <path
           id="path500"
           d="m 140.101,403.879 -2.141,1.35 c -0.899,-0.23 -1.01,-0.23 -2.02,-0.34 l 0.56,-1.35 c 1.581,0.001 2.141,0.11 3.601,0.34 z"
           inkscape:connector-curvature="0" />
        <path
           id="path502"
           d="m 142.461,404.493 c -0.54,-0.27 -1.109,-0.35 -1.739,-0.45 l -2.251,1.351 0.51,0.229 z"
           inkscape:connector-curvature="0" />
        <path
           sodipodi:nodetypes="ccccccccc"
           id="path504"
           d="m 133.805,410.737 c 2.72,0.16 6.4685,-0.3402 8.05,-0.939 0.5194,-0.2282 0.907,-0.3885 1.7849,-0.8903 0.569,-0.4288 1.2341,-0.9797 1.5551,-1.5997 0.28,-0.56 0.14,-1.14 -0.17,-1.52 -0.32,-0.391 -1.0237,-0.7647 -1.891,-1.01 l -3.819,1.18 c 0,1.29 -2.021,1.859 -4.391,1.859 z"
           inkscape:connector-curvature="0" />
      </g>
    </g>
  </g>
</svg>
