<?xml version="1.0" encoding="UTF-8" standalone="no"?>
<svg
   xmlns:osb="http://www.openswatchbook.org/uri/2009/osb"
   xmlns:dc="http://purl.org/dc/elements/1.1/"
   xmlns:cc="http://creativecommons.org/ns#"
   xmlns:rdf="http://www.w3.org/1999/02/22-rdf-syntax-ns#"
   xmlns:svg="http://www.w3.org/2000/svg"
   xmlns="http://www.w3.org/2000/svg"
   xmlns:xlink="http://www.w3.org/1999/xlink"
   xmlns:sodipodi="http://sodipodi.sourceforge.net/DTD/sodipodi-0.dtd"
   xmlns:inkscape="http://www.inkscape.org/namespaces/inkscape"
   sodipodi:docname="cr3_option_text_hinting-48x48-src.svg"
   inkscape:version="1.0 (4035a4fb49, 2020-05-01)"
   id="svg8"
   version="1.1"
   viewBox="0 0 48 48"
   height="48"
   width="48">
  <defs
     id="defs2">
    <linearGradient
       osb:paint="solid"
       id="linearGradient2414">
      <stop
         id="stop2412"
         offset="0"
         style="stop-color:#484a4c;stop-opacity:1;" />
    </linearGradient>
    <filter
       id="filter1638"
       inkscape:label="Drop Shadow"
       style="color-interpolation-filters:sRGB">
      <feFlood
         id="feFlood1628"
         result="flood"
         flood-color="rgb(0,0,0)"
         flood-opacity="0.498039" />
      <feComposite
         id="feComposite1630"
         result="composite1"
         operator="in"
         in2="SourceGraphic"
         in="flood" />
      <feGaussianBlur
         id="feGaussianBlur1632"
         result="blur"
         stdDeviation="1.5"
         in="composite1" />
      <feOffset
         id="feOffset1634"
         result="offset"
         dy="2"
         dx="-0.5" />
      <feComposite
         id="feComposite1636"
         result="composite2"
         operator="over"
         in2="offset"
         in="SourceGraphic" />
    </filter>
    <linearGradient
       y2="533.91449"
       x2="81.17614"
       y1="496.92746"
       x1="81.17614"
       gradientTransform="translate(-57.098872,-54.977545)"
       gradientUnits="userSpaceOnUse"
       id="linearGradient886"
       xlink:href="#linearGradient922"
       inkscape:collect="always" />
    <linearGradient
       id="linearGradient922"
       inkscape:collect="always">
      <stop
         id="stop918"
         offset="0"
         style="stop-color:#dfe0e1;stop-opacity:1" />
      <stop
         id="stop920"
         offset="1"
         style="stop-color:#ffffff;stop-opacity:0.99615383" />
    </linearGradient>
  </defs>
  <sodipodi:namedview
     inkscape:document-rotation="0"
     guidetolerance="2"
     objecttolerance="2"
     inkscape:pagecheckerboard="true"
     inkscape:window-maximized="0"
     inkscape:window-y="9"
     inkscape:window-x="1704"
     inkscape:window-height="1117"
     inkscape:window-width="1488"
     units="px"
     showgrid="false"
     inkscape:current-layer="layer1"
     inkscape:document-units="px"
     inkscape:cy="28.886613"
     inkscape:cx="28.202723"
     inkscape:zoom="11.313709"
     inkscape:pageshadow="2"
     inkscape:pageopacity="0.0"
     borderopacity="1.0"
     bordercolor="#666666"
     pagecolor="#ffffff"
     id="base" />
  <metadata
     id="metadata5">
    <rdf:RDF>
      <cc:Work
         rdf:about="">
        <dc:format>image/svg+xml</dc:format>
        <dc:type
           rdf:resource="http://purl.org/dc/dcmitype/StillImage" />
        <dc:title></dc:title>
      </cc:Work>
    </rdf:RDF>
  </metadata>
  <g
     transform="translate(0,-437.26664)"
     id="layer1"
     inkscape:groupmode="layer"
     inkscape:label="Layer 1">
    <g
       transform="translate(0.5)"
       id="g1646">
      <g
         id="g884"
         transform="translate(0,-1.5)"
         style="filter:url(#filter1638)">
        <path
           sodipodi:nodetypes="ccccc"
           inkscape:connector-curvature="0"
           id="path984-9"
           d="m 3,440.26664 h 42 v 42 H 3 Z"
           style="fill:url(#linearGradient886);fill-opacity:1;fill-rule:evenodd;stroke:none;stroke-width:1.5;stroke-linecap:butt;stroke-linejoin:miter;stroke-miterlimit:4;stroke-dasharray:none;stroke-opacity:1" />
        <path
           sodipodi:nodetypes="cccccccccc"
           inkscape:connector-curvature="0"
           id="path984-9-5"
           d="m 1.5,438.76664 v 45 h 45 v -45 z m 1.5,1.5 h 42 v 42 H 3 Z"
           style="color:#000000;font-style:normal;font-variant:normal;font-weight:normal;font-stretch:normal;font-size:medium;line-height:normal;font-family:sans-serif;font-variant-ligatures:normal;font-variant-position:normal;font-variant-caps:normal;font-variant-numeric:normal;font-variant-alternates:normal;font-feature-settings:normal;text-indent:0;text-align:start;text-decoration:none;text-decoration-line:none;text-decoration-style:solid;text-decoration-color:#000000;letter-spacing:normal;word-spacing:normal;text-transform:none;writing-mode:lr-tb;direction:ltr;text-orientation:mixed;dominant-baseline:auto;baseline-shift:baseline;text-anchor:start;white-space:normal;shape-padding:0;clip-rule:nonzero;display:inline;overflow:visible;visibility:visible;opacity:1;isolation:auto;mix-blend-mode:normal;color-interpolation:sRGB;color-interpolation-filters:linearRGB;solid-color:#000000;solid-opacity:1;vector-effect:none;fill:#9f9f9f;fill-opacity:1;fill-rule:evenodd;stroke:none;stroke-width:1.5;stroke-linecap:butt;stroke-linejoin:miter;stroke-miterlimit:4;stroke-dasharray:none;stroke-dashoffset:0;stroke-opacity:1;color-rendering:auto;image-rendering:auto;shape-rendering:auto;text-rendering:auto;enable-background:accumulate" />
      </g>
      <path
         style="color:#000000;font-style:normal;font-variant:normal;font-weight:normal;font-stretch:normal;font-size:medium;line-height:normal;font-family:sans-serif;font-variant-ligatures:normal;font-variant-position:normal;font-variant-caps:normal;font-variant-numeric:normal;font-variant-alternates:normal;font-feature-settings:normal;text-indent:0;text-align:start;text-decoration:none;text-decoration-line:none;text-decoration-style:solid;text-decoration-color:#000000;letter-spacing:normal;word-spacing:normal;text-transform:none;writing-mode:lr-tb;direction:ltr;text-orientation:mixed;dominant-baseline:auto;baseline-shift:baseline;text-anchor:start;white-space:normal;shape-padding:0;clip-rule:nonzero;display:inline;overflow:visible;visibility:visible;opacity:1;isolation:auto;mix-blend-mode:normal;color-interpolation:sRGB;color-interpolation-filters:linearRGB;solid-color:#000000;solid-opacity:1;vector-effect:none;fill:#ffffff;fill-opacity:1;fill-rule:evenodd;stroke:none;stroke-width:1.5;stroke-linecap:butt;stroke-linejoin:miter;stroke-miterlimit:4;stroke-dasharray:none;stroke-dashoffset:0;stroke-opacity:1;color-rendering:auto;image-rendering:auto;shape-rendering:auto;text-rendering:auto;enable-background:accumulate"
         d="m 3,438.76664 v 42 h 42 v -42 z m 1.5,1.5 h 39 v 39 h -39 z"
         id="path984-9-3"
         inkscape:connector-curvature="0"
         sodipodi:nodetypes="cccccccccc" />
    </g>
    <path
       inkscape:connector-curvature="0"
       id="path4107-6"
       d="m 23.830487,441.76957 v 35.99414 h 1.5 v -35.99414 z"
       style="color:#000000;font-style:normal;font-variant:normal;font-weight:normal;font-stretch:normal;font-size:medium;line-height:normal;font-family:sans-serif;font-variant-ligatures:normal;font-variant-position:normal;font-variant-caps:normal;font-variant-numeric:normal;font-variant-alternates:normal;font-feature-settings:normal;text-indent:0;text-align:start;text-decoration:none;text-decoration-line:none;text-decoration-style:solid;text-decoration-color:#000000;letter-spacing:normal;word-spacing:normal;text-transform:none;writing-mode:lr-tb;direction:ltr;text-orientation:mixed;dominant-baseline:auto;baseline-shift:baseline;text-anchor:start;white-space:normal;shape-padding:0;clip-rule:nonzero;display:inline;overflow:visible;visibility:visible;opacity:1;isolation:auto;mix-blend-mode:normal;color-interpolation:sRGB;color-interpolation-filters:linearRGB;solid-color:#000000;solid-opacity:1;vector-effect:none;fill:#636465;fill-opacity:1;fill-rule:evenodd;stroke:none;stroke-width:1.5;stroke-linecap:butt;stroke-linejoin:miter;stroke-miterlimit:4;stroke-dasharray:none;stroke-dashoffset:0;stroke-opacity:1;color-rendering:auto;image-rendering:auto;shape-rendering:auto;text-rendering:auto;enable-background:accumulate" />
    <g
       transform="matrix(0.16924476,0,0,0.16924476,28.643126,362.93232)"
       id="g1803">
      <path
         sodipodi:nodetypes="ccccccccccccccccccccccccccccccccccc"
         id="path1697"
         d="m -106.74353,639.6275 v -5 h 5 5 v 5 5 h -5 -5 z m 0,-20 v -5 h -5 -5 v -10 -10 h 5 5 v 10 10 h 10 10 v 5 5 h -10 -10 z m -30,-40 v -5 h 5 5 v 5 5 h -5 -5 z"
         style="fill:#cbcbcb" />
      <path
         sodipodi:nodetypes="cccccccccccccccccccccccccccccccccccccccccccc"
         id="path1695"
         d="m -76.74353,589.6275 v -5 h -10 -10 v -5 -5 h 10 10 v 5 5 h 5 5 v 5 5 h -5 -5 z m -40,-20 v -5 h 5 5 v 5 5 h -5 -5 z m 40,-15 v -10 h 5 5 v 10 10 h -5 -5 z m -40,-35 v -5 h 5 5 v 5 5 h -5 -5 z"
         style="fill:#b2b2b2" />
      <path
         sodipodi:nodetypes="cccccccccccccccccccccccccccccccccccccccccccccccccccccccccccccccccccccccc"
         id="path1693"
         d="m -86.74353,629.6275 v -5 h 5 5 v 5 5 h -5 -5 z m 10,-30 v -5 h 5 5 v 5 5 h -5 -5 z m 0,-20 v -5 h 5 5 v 5 5 h -5 -5 z m -30,-10 v -5 h 5 5 v 5 5 h -5 -5 z m -20,-20 v -5 h 5 5 v 5 5 h -5 -5 z m 70,-10 v -5 h 5 5 v 5 5 h -5 -5 z m -40,-10 v -5 h 5 5 v 5 5 h -5 -5 z m 20,-10 v -5 h 5 5 v 5 5 h -5 -5 z"
         style="fill:#b5b5b5;fill-opacity:1" />
      <path
         sodipodi:nodetypes="ccccccccccccccccccccccccccccccccccccccccccccccccccccccccccccccccccccccccc"
         id="path1691"
         d="m -136.74353,619.6275 v -5 h 5 5 v 5 5 h -5 -5 z m 50,0 v -5 h 10 10 v 5 5 h -10 -10 z m -30,-30 v -5 h 5 5 v -5 -5 h 5 5 v -5 -5 h 10 10 v 5 5 h -10 -10 v 5 5 h -5 -5 v 5 5 h -5 -5 z m 0,-40 v -5 h 5 5 v 5 5 h -5 -5 z m 40,-10 v -5 h -5 -5 v -5 -5 h -10 -10 v -5 -5 h 15 15 v 10 10 h 5 5 v 5 5 h -5 -5 z"
         style="fill:#828282;fill-opacity:1" />
      <path
         sodipodi:nodetypes="cccccccccccccccccccccccccccccccccccccccccccccccccccccccccccccc"
         id="path1689"
         d="m -126.74353,629.6275 v -5 h 5 5 v -5 -5 h 5 5 v 5 5 h -5 -5 v 5 5 h -5 -5 z m 50,-20 v -5 h 5 5 v 5 5 h -5 -5 z m 20,-30 v -35 h 5 5 v 35 35 h -5 -5 z m -80,10 v -5 h 5 5 v 5 5 h -5 -5 z m 10,-60 v -5 h 5 5 v 5 5 h -5 -5 z m 20,0 v -5 h 5 5 v 5 5 h -5 -5 z"
         style="fill:#828282;fill-opacity:1" />
      <path
         sodipodi:nodetypes="ccccccccccccccccccccccccccccccccccccccccccccccccccccc"
         id="path1687"
         d="m -66.74353,629.6275 v -5 h 5 5 v -5 -5 h 5 5 v 5 5 h -5 -5 v 5 5 h -5 -5 z m -70,-20 v -5 h 5 5 v 5 5 h -5 -5 z m 10,-30 v -5 h 5 5 v 5 5 h -5 -5 z m 50,-10 v -5 h 5 5 v 5 5 h -5 -5 z m 10,-40 v -5 h 5 5 v 5 5 h -5 -5 z"
         style="fill:#707070;fill-opacity:1" />
      <path
         sodipodi:nodetypes="ccccccccccccccccccccccccccccccccccccccccccccccccccccccccccccccccccccccc"
         id="path1685"
         d="m -116.74353,629.6275 v -5 h -5 -5 v -10 -10 h -5 -5 v -5 -5 h 5 5 v -5 -5 h 5 5 v -5 -5 h 5 5 v 5 5 h -5 -5 v 20 20 h 15 15 v 5 5 h -15 -15 z m 60,0 v -5 h -5 -5 v -45 -45 h -5 -5 v -5 -5 h 5 5 v 5 5 h 5 5 v 45 45 h 10 10 v 5 5 h -10 -10 z m -70,-90 v -5 h 5 5 v -5 -5 h 5 5 v 10 10 h -10 -10 z"
         style="fill:#000000;fill-opacity:1" />
    </g>
    <g
       transform="matrix(0.16924476,0,0,0.16924476,59.616121,317.66634)"
       id="g1786">
      <path
         sodipodi:nodetypes="ccccccccccccccccccccccccccccccccccccccccccccccccccccccccccccccccccccccc"
         style="fill:#cbcbcb"
         d="m -162.71569,889.39743 v -5 h -5 -5 v -10 -10 h 5 5 v 10 10 h 10 10 v 5 5 h -10 -10 z m 60,0 v -5 h 4.999997 5 v 5 5 h -5 -4.999997 z m -50,-40 v -5 h 10 10 v 5 5 h -10 -10 z m -30,-30 v -5 h 5 5 v 5 5 h -5 -5 z m 30,-20 v -5 h 5 5 v 5 5 h -5 -5 z m 40,0 v -5 h 5 5 v 5 5 h -5 -5 z m -70,-10 v -5 h 5 5 v 5 5 h -5 -5 z"
         id="path1697-5" />
      <path
         sodipodi:nodetypes="ccccccccccccccccccccccccccccccccccccccccccccccccccccccccccccccccccccccc"
         style="fill:#b2b2b2"
         d="m -142.71569,899.39743 v -5 h 5 5 v 5 5 h -5 -5 z m 10,-40 v -5 h 5 5 v 5 5 h -5 -5 z m -60,-10 v -5 h 5 5 v -5 -5 h 5 5 v 5 5 h -5 -5 v 5 5 h -5 -5 z m 60,-25 v -10 h 5 5 v 10 10 h -5 -5 z m -40,-5 v -5 h 5 5 v 5 5 h -5 -5 z m 30,-20 v -5 h 5 5 v 5 5 h -5 -5 z m 20,-10 v -5 h 5 5 v 5 5 h -5 -5 z"
         id="path1695-3" />
      <path
         sodipodi:nodetypes="ccccccccccccccccccccccccccccccccccccccccccccccccccccccccccccccccccccccccccccccc"
         style="fill:#8e8e8e"
         d="m -182.71569,899.39743 v -5 h -5 -5 v -5 -5 h 5 5 v 5 5 h 5 5 v 5 5 h -5 -5 z m 50,-10 v -5 h 5 5 v 5 5 h -5 -5 z m 0,-20 v -5 h 5 5 v 5 5 h -5 -5 z m -40,-10 v -5 h 5 5 v -5 -5 h 5 5 v 5 5 h -5 -5 v 5 5 h -5 -5 z m 40,-10 v -5 h 5 5 v 5 5 h -5 -5 z m 0,-40 v -5 h 5 5 v 5 5 h -5 -5 z m -30,-10 v -5 h 5 5 v 5 5 h -5 -5 z"
         id="path1693-5" />
      <path
         sodipodi:nodetypes="ccccccccc"
         style="fill:#6f6f6f"
         d="m -112.71569,809.39743 v -5 h 5 5 v 5 5 h -5 -5 z"
         id="path1691-6" />
      <path
         sodipodi:nodetypes="cccccccccccccccccccccccccccccccccccccccccccccccccccccccccccccc"
         style="fill:#2b2b2b;fill-opacity:1"
         d="m -172.71569,889.39743 v -5 h 5 5 v 5 5 h -5 -5 z m 30,0 v -5 h 5 5 v -5 -5 h 5 5 v 5 5 h -5 -5 v 5 5 h -5 -5 z m 30,-40 v -35 h 5 5 v 35 35 h -5 -5 z m -60,-10 v -5 h 5 5 v 5 5 h -5 -5 z m 0,-50 v -5 h 5 5 v 5 5 h -5 -5 z m 40,0 v -5 h 5 5 v 5 5 h -5 -5 z"
         id="path1689-2" />
      <path
         sodipodi:nodetypes="ccccccccccccccccccccccccccccccccccccccccccccccccccccccccccccccccccccccccccccccccccccccccc"
         style="fill:#212121;fill-opacity:1"
         d="m -172.71569,899.39743 v -5 h 5 5 v 5 5 h -5 -5 z m 20,0 v -5 h 5 5 v 5 5 h -5 -5 z m 30,0 v -5 h 5 5 v 5 5 h -5 -5 z m -70,-20 v -5 h 5 5 v 5 5 h -5 -5 z m 0,-20 v -5 h 5 5 v 5 5 h -5 -5 z m 30,-20 v -5 h 5 5 v 5 5 h -5 -5 z m -10,-30 v -5 h -5 -5 v -5 -5 h 5 5 v 5 5 h 5 5 v 5 5 h -5 -5 z m 40,-10 v -5 h 5 5 v 5 5 h -5 -5 z m -30,-10 v -5 h 5 5 v 5 5 h -5 -5 z"
         id="path1687-9" />
      <path
         sodipodi:nodetypes="ccccccccccccccccccccccccccccccccccccccccccccccccccccccccccccccccccccccccccccccccccccc"
         style="fill:#000000;fill-opacity:1"
         d="m -162.71569,899.39743 v -5 h 5 5 v 5 5 h -5 -5 z m 50,0 v -5 h -5 -5 v -25 -25 h -15 -15 v -5 -5 h 15 15 v -20 -20 h 5 5 v 45 45 h 5 5 v 5 5 h 4.999997 5 v 5 5 h -9.999997 -10 z m -70,-15 v -10 h -5 -5 v -5 -5 h 5 5 v -10 -10 h 10 10 v 5 5 h -5 -5 v 20 20 h -5 -5 z m 0,-75 v -5 h 5 5 v -5 -5 h 5 5 v 5 5 h -5 -5 v 5 5 h -5 -5 z m 30,-20 v -5 h 10 10 v 5 5 h -10 -10 z"
         id="path1685-1" />
    </g>
  </g>
</svg>
