<?xml version="1.0" encoding="UTF-8" standalone="no"?>
<!-- Created with Inkscape (http://www.inkscape.org/) -->

<svg
   xmlns:osb="http://www.openswatchbook.org/uri/2009/osb"
   xmlns:dc="http://purl.org/dc/elements/1.1/"
   xmlns:cc="http://creativecommons.org/ns#"
   xmlns:rdf="http://www.w3.org/1999/02/22-rdf-syntax-ns#"
   xmlns:svg="http://www.w3.org/2000/svg"
   xmlns="http://www.w3.org/2000/svg"
   xmlns:xlink="http://www.w3.org/1999/xlink"
   xmlns:sodipodi="http://sodipodi.sourceforge.net/DTD/sodipodi-0.dtd"
   xmlns:inkscape="http://www.inkscape.org/namespaces/inkscape"
   width="48"
   height="48"
   viewBox="0 0 48 48"
   version="1.1"
   id="svg8"
   inkscape:version="0.92.2 5c3e80d, 2017-08-06"
   sodipodi:docname="cr3_browser_book_chm-48x48-src.svg">
  <defs
     id="defs2">
    <linearGradient
       inkscape:collect="always"
       id="linearGradient923">
      <stop
         style="stop-color:#eeeeee;stop-opacity:1"
         offset="0"
         id="stop919" />
      <stop
         style="stop-color:#d7d7d7;stop-opacity:1"
         offset="1"
         id="stop921" />
    </linearGradient>
    <linearGradient
       inkscape:collect="always"
       id="linearGradient905">
      <stop
         style="stop-color:#abd5ff;stop-opacity:1"
         offset="0"
         id="stop901" />
      <stop
         style="stop-color:#9bcdff;stop-opacity:1"
         offset="1"
         id="stop903" />
    </linearGradient>
    <linearGradient
       inkscape:collect="always"
       id="linearGradient897">
      <stop
         style="stop-color:#ffffff;stop-opacity:1"
         offset="0"
         id="stop893" />
      <stop
         style="stop-color:#eaebfb;stop-opacity:1"
         offset="1"
         id="stop895" />
    </linearGradient>
    <linearGradient
       inkscape:collect="always"
       id="linearGradient889">
      <stop
         style="stop-color:#ffffff;stop-opacity:1;"
         offset="0"
         id="stop885" />
      <stop
         style="stop-color:#e0e0ec;stop-opacity:1"
         offset="1"
         id="stop887" />
    </linearGradient>
    <linearGradient
       inkscape:collect="always"
       id="linearGradient881">
      <stop
         style="stop-color:#0066be;stop-opacity:1"
         offset="0"
         id="stop877" />
      <stop
         style="stop-color:#072d80;stop-opacity:1"
         offset="1"
         id="stop879" />
    </linearGradient>
    <linearGradient
       id="linearGradient2414"
       osb:paint="solid">
      <stop
         style="stop-color:#484a4c;stop-opacity:1;"
         offset="0"
         id="stop2412" />
    </linearGradient>
    <linearGradient
       inkscape:collect="always"
       xlink:href="#linearGradient881"
       id="linearGradient883"
       x1="-46.825558"
       y1="467.87671"
       x2="-15.070754"
       y2="486.18921"
       gradientUnits="userSpaceOnUse"
       gradientTransform="matrix(0.98959275,0,0,0.98959275,53.760176,-4.5371141)" />
    <linearGradient
       inkscape:collect="always"
       xlink:href="#linearGradient889"
       id="linearGradient891"
       x1="10.37402"
       y1="444.93945"
       x2="13.358251"
       y2="474.19601"
       gradientUnits="userSpaceOnUse"
       gradientTransform="matrix(0.98959275,0,0,0.98959275,13.272575,3.2065081)" />
    <linearGradient
       inkscape:collect="always"
       xlink:href="#linearGradient897"
       id="linearGradient899"
       x1="9.7795429"
       y1="449.96539"
       x2="21.710938"
       y2="475.9516"
       gradientUnits="userSpaceOnUse"
       gradientTransform="matrix(0.98959275,0,0,0.98959275,0.76458399,4.7809402)" />
    <linearGradient
       inkscape:collect="always"
       xlink:href="#linearGradient905"
       id="linearGradient907"
       x1="7.0710678"
       y1="453.28668"
       x2="43.731831"
       y2="470.78757"
       gradientUnits="userSpaceOnUse"
       gradientTransform="matrix(0.98959275,0,0,0.98959275,4.9049085e-8,5.2888678)" />
    <linearGradient
       inkscape:collect="always"
       xlink:href="#linearGradient923"
       id="linearGradient925"
       x1="10.299004"
       y1="490.47305"
       x2="19.915401"
       y2="513.10046"
       gradientUnits="userSpaceOnUse"
       gradientTransform="matrix(0.98959275,0,0,0.98959275,12.919933,-34.49118)" />
    <filter
       style="color-interpolation-filters:sRGB;"
       inkscape:label="Drop Shadow"
       id="filter925">
      <feFlood
         flood-opacity="0.498039"
         flood-color="rgb(0,0,0)"
         result="flood"
         id="feFlood915" />
      <feComposite
         in="flood"
         in2="SourceGraphic"
         operator="in"
         result="composite1"
         id="feComposite917" />
      <feGaussianBlur
         in="composite1"
         stdDeviation="1.5"
         result="blur"
         id="feGaussianBlur919" />
      <feOffset
         dx="-0.5"
         dy="1.5"
         result="offset"
         id="feOffset921" />
      <feComposite
         in="SourceGraphic"
         in2="offset"
         operator="over"
         result="composite2"
         id="feComposite923" />
    </filter>
  </defs>
  <sodipodi:namedview
     id="base"
     pagecolor="#ffffff"
     bordercolor="#666666"
     borderopacity="1.0"
     inkscape:pageopacity="0.0"
     inkscape:pageshadow="2"
     inkscape:zoom="5.6568544"
     inkscape:cx="23.814485"
     inkscape:cy="12.167874"
     inkscape:document-units="px"
     inkscape:current-layer="layer1"
     showgrid="false"
     units="px"
     inkscape:window-width="1476"
     inkscape:window-height="1128"
     inkscape:window-x="1716"
     inkscape:window-y="0"
     inkscape:window-maximized="0"
     inkscape:pagecheckerboard="true"
     objecttolerance="2"
     guidetolerance="2" />
  <metadata
     id="metadata5">
    <rdf:RDF>
      <cc:Work
         rdf:about="">
        <dc:format>image/svg+xml</dc:format>
        <dc:type
           rdf:resource="http://purl.org/dc/dcmitype/StillImage" />
        <dc:title></dc:title>
      </cc:Work>
    </rdf:RDF>
  </metadata>
  <g
     inkscape:label="Layer 1"
     inkscape:groupmode="layer"
     id="layer1"
     transform="translate(0,-437.26664)">
    <g
       id="g913"
       style="filter:url(#filter925)">
      <path
         sodipodi:nodetypes="cccccccc"
         inkscape:connector-curvature="0"
         id="path875"
         d="m 0.74207372,442.07589 11.11160328,28.35479 9.181724,11.91758 c 1.382239,1.1458 3.889669,0.54289 5.445557,0.0618 l 20.776869,-8.86745 -11.239698,-28.53659 -20.696794,11.33779 z"
         style="fill:url(#linearGradient907);fill-opacity:1;fill-rule:evenodd;stroke:url(#linearGradient883);stroke-width:1.48438907;stroke-linecap:butt;stroke-linejoin:round;stroke-miterlimit:4;stroke-dasharray:none;stroke-opacity:1" />
      <path
         sodipodi:nodetypes="cccccccc"
         inkscape:connector-curvature="0"
         id="path875-6"
         d="m 4.5767459,444.92097 9.3798161,24.02532 7.944733,10.55689 c 1.29477,1.05834 3.518571,0.66659 5.074459,0.18555 l 16.4474,-7.63046 -9.631608,-25.56781 -18.470211,9.8534 z"
         style="fill:#d5d5d5;fill-opacity:1;fill-rule:evenodd;stroke:#4b4b4b;stroke-width:0.49479637;stroke-linecap:butt;stroke-linejoin:round;stroke-miterlimit:4;stroke-dasharray:none;stroke-opacity:1" />
      <path
         sodipodi:nodetypes="ccccc"
         inkscape:connector-curvature="0"
         id="path909"
         d="m 24.013082,479.25181 c 7.700268,-1.94826 11.936962,-5.9994 17.410647,-8.31876 l -8.906335,-23.62653 c -7.545644,-0.47418 -13.792449,3.25741 -17.68897,8.04044 z"
         style="fill:url(#linearGradient925);fill-opacity:1;fill-rule:evenodd;stroke:#4b4b4b;stroke-width:0.49479637;stroke-linecap:butt;stroke-linejoin:miter;stroke-miterlimit:4;stroke-dasharray:none;stroke-opacity:1" />
      <path
         sodipodi:nodetypes="ccccc"
         inkscape:connector-curvature="0"
         id="path871"
         d="m 14.890742,454.82068 c 0,0 6.501823,-11.00645 10.102608,-15.78807 l 9.446594,24.35997 c -3.542472,4.95654 -10.426862,15.85923 -10.426862,15.85923 z"
         style="fill:url(#linearGradient891);fill-opacity:1;fill-rule:evenodd;stroke:#4b4b4b;stroke-width:0.49479637;stroke-linecap:butt;stroke-linejoin:round;stroke-miterlimit:4;stroke-dasharray:none;stroke-opacity:1" />
      <path
         sodipodi:nodetypes="ccccc"
         inkscape:connector-curvature="0"
         id="path873"
         d="m 14.890742,454.82068 c -3.024252,-3.5068 -5.2175541,-7.6696 -8.9852869,-10.38919 4.3177679,7.02322 6.5362939,15.48965 9.8481749,23.30008 2.773767,3.51021 4.370462,8.40363 8.259452,11.52024 z"
         style="fill:url(#linearGradient899);fill-opacity:1;fill-rule:evenodd;stroke:#4b4b4b;stroke-width:0.49479637;stroke-linecap:butt;stroke-linejoin:round;stroke-miterlimit:4;stroke-dasharray:none;stroke-opacity:1" />
    </g>
    <g
       aria-label="CHM"
       style="font-style:normal;font-variant:normal;font-weight:normal;font-stretch:normal;font-size:15px;line-height:125%;font-family:Serif;-inkscape-font-specification:Serif;letter-spacing:0px;word-spacing:0px;fill:#000000;fill-opacity:1;stroke:none;stroke-width:1px;stroke-linecap:butt;stroke-linejoin:miter;stroke-opacity:1"
       id="text859"
       transform="translate(35.874999,-34.124999)">
      <path
         style="font-style:normal;font-variant:normal;font-weight:bold;font-stretch:normal;font-family:'Noto Sans';-inkscape-font-specification:'Noto Sans Bold'"
         d="m -22.479,492.79446 c -0.874746,-0.0348 -1.736381,0.44313 -2.149658,1.21857 -0.610925,1.10164 -0.613925,2.42987 -0.44383,3.64606 0.133917,0.91163 0.624408,1.87511 1.546118,2.193 1.109387,0.37656 2.304034,0.0633 3.385742,-0.26041 0.32927,-0.19653 0.454166,-0.11923 0.393562,0.22408 0,0.51601 0,1.03203 0,1.54804 -1.369591,0.55093 -2.912911,0.70195 -4.35933,0.39713 -1.229422,-0.2581 -2.300919,-1.12178 -2.811967,-2.26961 -0.61274,-1.35267 -0.68647,-2.89873 -0.484722,-4.35196 0.22954,-1.53275 1.103197,-3.04142 2.542455,-3.71865 1.735795,-0.83788 3.824689,-0.58725 5.516396,0.2385 -0.244141,0.61523 -0.488281,1.23047 -0.732422,1.8457 -0.760254,-0.34153 -1.550619,-0.71558 -2.402344,-0.71045 z"
         id="path861"
         inkscape:connector-curvature="0" />
      <path
         d="m -8.7021446,501.76663 h -2.2631834 v -4.62158 h -4.240723 v 4.62158 h -2.270508 v -10.70801 h 2.270508 v 4.19678 h 4.240723 v -4.19678 h 2.2631834 z"
         style="font-style:normal;font-variant:normal;font-weight:bold;font-stretch:normal;font-family:'Noto Sans';-inkscape-font-specification:'Noto Sans Bold'"
         id="path863"
         inkscape:connector-curvature="0" />
      <path
         style="font-style:normal;font-variant:normal;font-weight:bold;font-stretch:normal;font-family:'Noto Sans';-inkscape-font-specification:'Noto Sans Bold'"
         d="m -1.4584923,501.76663 c -0.859375,-2.80029 -1.71875,-5.60059 -2.578125,-8.40088 -0.1485933,0.25151 0.026813,0.81069 -0.00504,1.17508 0.1285603,2.25115 0.06175,4.50641 0.078278,6.75979 -0.046602,0.15054 0.114252,0.50853 -0.1254018,0.46601 -0.6344689,0 -1.2689379,0 -1.9034068,0 0,-3.56934 0,-7.13867 0,-10.70801 1.0302734,0 2.0605469,0 3.0908203,0 0.8447266,2.72949 1.6894531,5.45899 2.53417971,8.18848 0.13077923,-0.0849 0.12988466,-0.3517 0.21016952,-0.50637 0.84058802,-2.56071 1.68117607,-5.12141 2.52176407,-7.68211 1.0302734,0 2.0605468,0 3.0908203,0 0,3.56934 0,7.13867 0,10.70801 -0.7055664,0 -1.4111327,0 -2.1166991,0 0.010494,-2.13387 -0.024803,-4.26846 0.026046,-6.40173 0.026475,-0.66156 0.055159,-1.32303 0.083813,-1.9845 -0.1636088,0.0353 -0.1345237,0.33698 -0.2227914,0.47645 -0.868119,2.63659 -1.736238,5.27319 -2.60435705,7.90978 -0.69335798,0 -1.38671597,0 -2.08007395,0 z"
         id="path865"
         inkscape:connector-curvature="0" />
    </g>
  </g>
</svg>
