/* XPM */
static char * cr3_xpm[] = {
"32 32 212 2",
"  	g None",
". 	g #FFFFFF",
"+ 	g #FEFEFE",
"@ 	g #F8F8F8",
"# 	g #919191",
"$ 	g #5B5B5B",
"% 	g #2E2E2E",
"& 	g #373737",
"* 	g #B5B5B5",
"= 	g #EAEAEA",
"- 	g #939393",
"; 	g #656565",
"> 	g #353535",
", 	g #323232",
"' 	g #727272",
") 	g #E4E4E4",
"! 	g #7F7F7F",
"~ 	g #000000",
"{ 	g #474747",
"] 	g #DCDCDC",
"^ 	g #4A4A4A",
"/ 	g #C5C5C5",
"( 	g #FDFDFD",
"_ 	g #212121",
": 	g #404040",
"< 	g #4E4E4E",
"[ 	g #2B2B2B",
"} 	g #424242",
"| 	g #A5A5A5",
"1 	g #696969",
"2 	g #454545",
"3 	g #181818",
"4 	g #0B0B0B",
"5 	g #222222",
"6 	g #6E6E6E",
"7 	g #090909",
"8 	g #858585",
"9 	g #EEEEEE",
"0 	g #262626",
"a 	g #A1A1A1",
"b 	g #060606",
"c 	g #777777",
"d 	g #272727",
"e 	g #010101",
"f 	g #8B8B8B",
"g 	g #5E5E5E",
"h 	g #D5D5D5",
"i 	g #E0E0E0",
"j 	g #434343",
"k 	g #DEDEDE",
"l 	g #FBFBFB",
"m 	g #F4F4F4",
"n 	g #0E0E0E",
"o 	g #BCBCBC",
"p 	g #4C4C4C",
"q 	g #A9A9A9",
"r 	g #A4A4A4",
"s 	g #E7E7E7",
"t 	g #D3D3D3",
"u 	g #D6D6D6",
"v 	g #D1D1D1",
"w 	g #D4D4D4",
"x 	g #E5E5E5",
"y 	g #141414",
"z 	g #AAAAAA",
"A 	g #565656",
"B 	g #ABABAB",
"C 	g #6C6C6C",
"D 	g #050505",
"E 	g #DADADA",
"F 	g #737373",
"G 	g #636363",
"H 	g #2F2F2F",
"I 	g #C7C7C7",
"J 	g #747474",
"K 	g #878787",
"L 	g #909090",
"M 	g #B3B3B3",
"N 	g #7D7D7D",
"O 	g #B2B2B2",
"P 	g #848484",
"Q 	g #626262",
"R 	g #AEAEAE",
"S 	g #5A5A5A",
"T 	g #545454",
"U 	g #8F8F8F",
"V 	g #9B9B9B",
"W 	g #7B7B7B",
"X 	g #BABABA",
"Y 	g #B4B4B4",
"Z 	g #CCCCCC",
"` 	g #6D6D6D",
" .	g #4B4B4B",
"..	g #959595",
"+.	g #ACACAC",
"@.	g #444444",
"#.	g #4F4F4F",
"$.	g #3F3F3F",
"%.	g #080808",
"&.	g #1D1D1D",
"*.	g #A6A6A6",
"=.	g #585858",
"-.	g #ADADAD",
";.	g #FAFAFA",
">.	g #B9B9B9",
",.	g #464646",
"'.	g #6A6A6A",
").	g #3B3B3B",
"!.	g #040404",
"~.	g #F5F5F5",
"{.	g #CBCBCB",
"].	g #C1C1C1",
"^.	g #F1F1F1",
"/.	g #D9D9D9",
"(.	g #EBEBEB",
"_.	g #151515",
":.	g #8D8D8D",
"<.	g #6B6B6B",
"[.	g #ECECEC",
"}.	g #C4C4C4",
"|.	g #C3C3C3",
"1.	g #BBBBBB",
"2.	g #EFEFEF",
"3.	g #828282",
"4.	g #3A3A3A",
"5.	g #4D4D4D",
"6.	g #888888",
"7.	g #F6F6F6",
"8.	g #929292",
"9.	g #767676",
"0.	g #797979",
"a.	g #979797",
"b.	g #FCFCFC",
"c.	g #C2C2C2",
"d.	g #989898",
"e.	g #E2E2E2",
"f.	g #DBDBDB",
"g.	g #E1E1E1",
"h.	g #F7F7F7",
"i.	g #F2F2F2",
"j.	g #8A8A8A",
"k.	g #555555",
"l.	g #808080",
"m.	g #787878",
"n.	g #9C9C9C",
"o.	g #B6B6B6",
"p.	g #BEBEBE",
"q.	g #B7B7B7",
"r.	g #E9E9E9",
"s.	g #CECECE",
"t.	g #D7D7D7",
"u.	g #BDBDBD",
"v.	g #9E9E9E",
"w.	g #8C8C8C",
"x.	g #343434",
"y.	g #414141",
"z.	g #686868",
"A.	g #303030",
"B.	g #161616",
"C.	g #616161",
"D.	g #666666",
"E.	g #A2A2A2",
"F.	g #CACACA",
"G.	g #575757",
"H.	g #C6C6C6",
"I.	g #D2D2D2",
"J.	g #DFDFDF",
"K.	g #C8C8C8",
"L.	g #C9C9C9",
"M.	g #999999",
"N.	g #838383",
"O.	g #020202",
"P.	g #121212",
"Q.	g #969696",
"R.	g #A8A8A8",
"S.	g #CFCFCF",
"T.	g #676767",
"U.	g #DDDDDD",
"V.	g #EDEDED",
"W.	g #A3A3A3",
"X.	g #646464",
"Y.	g #707070",
"Z.	g #282828",
"`.	g #E6E6E6",
" +	g #E3E3E3",
".+	g #383838",
"++	g #333333",
"@+	g #595959",
"#+	g #717171",
"$+	g #D0D0D0",
"%+	g #8E8E8E",
"&+	g #505050",
"*+	g #525252",
"=+	g #F0F0F0",
"-+	g #6F6F6F",
";+	g #515151",
">+	g #484848",
",+	g #9A9A9A",
"'+	g #9D9D9D",
")+	g #5F5F5F",
"!+	g #7C7C7C",
"~+	g #3D3D3D",
"{+	g #757575",
"]+	g #A7A7A7",
"^+	g #7A7A7A",
"/+	g #252525",
"(+	g #1B1B1B",
"_+	g #3E3E3E",
":+	g #C0C0C0",
"<+	g #F9F9F9",
"[+	g #A0A0A0",
"}+	g #9F9F9F",
". . . . . . . . . . . . . . . . . . . . . . . . . . . . . . . . ",
". . . . . . . . . . . . . . . . . . . . . . . . . . . . . . . . ",
". . . . . . . . . . . . . . . . . . . . . . . . . . . . . . . . ",
". . . . . . . . . + . . . . . + . . . . . + . . . . . + . . . . ",
". . . . . . . + . @ # $ % & * + . . . + . = - ; > , ' ) . . . . ",
". . . . . . + . ! ~ ~ ~ ~ ~ { . . . . ] ^ ~ ~ ~ ~ ~ ~ ~ / + . . ",
". . . . . + ( _ ~ : < [ ~ ~ } . . . | ~ ~ { 1 2 ~ 3 ~ ~ 4 . + . ",
". . . . . . 5 6 . . . . . 7 8 + . 9 0 a . . . b c . d ~ e . . . ",
". . . + . f g . + . . . + - h + + i . + . . 1 j . k ~ ~ ' . . . ",
". . . . . ~ + . . . + . . + l + . + . . m h n . o ~ ~ p . + . . ",
". . . + q b . r ' c s . . . + . t u v w x y z A ~ 0 B . + . . . ",
". . . . C D E # F G H h . . I F J K L M ' ~ [ N ] . + . . . . . ",
". . . . p ~ L O P Q ^ ; ) R S T U V W X ~ ~ ~ L @ Y Z . . + . . ",
". . + . ` ~ ~  ...+.` @.#.$.$.1 P %.z &.*.~ ~ ~ =.k -.o + + . . ",
". + ;.>.) ~ ~ ~ ~ ~ ,.'.).^ S | y ~ !.~.E w ~ ~ ~ * / {.].^.. . ",
". E /.(.~.B ~ ~ ~ ~ ~ ~ ~ ~ ~ _.. :.. h <.z [.4 ~ . }.h Z |.k . ",
"+ m 1.i (.2.. 3.#.& , 4.5.'.6.7.L 8.r 9.9.0.a.b.G x {.c.I q d.. ",
"+ e.| f.g.) = h.( . h.+ i.i ].j.$.4.k.A '.l.S m.h a.8.n.1.o.p.q.",
"( o.2./.= s [./.r.s.t.u.v.w.N x., y.y.z.A.B.C.C D.` 0.E.E.F.:.~.",
"~.G.H.e.I.J.r.(.e.x J.K.L.M.N.m.5 $.> O.P._ _ p Q.R.) i e.S.] + ",
"(.T.^ /.J.U.V.r.i.) i w q.W.X.Y.9.5 Z.~ d k.# *.| X U.g.`.p.. . ",
".  +Q Q /.t  +x s = `.t | .+4.@.A.++y @+J #+N.6.W.Y K.$+x f }.. ",
". . z ' %+t t s `.`.k 1.S ; ` &+X.y 2 *+,.6 l.<.U q.* v t t.C =+",
". . i.9.W 1.F.g.g.`.f.` -+T.Y.9.j 2 } 2 ;+>+} '.j.,+'+# E.a.,+)+",
". . . L.Y.n.v S.e.x !+!+3.l.l.> Y.~+: & ; 1 6 J G c T.{+L %+u.7.",
". + . 7.6.w.R o.s '+6.'+]+^+'.F.W /+(+_+< k.{+L ' -./ b.7.. . . ",
". . . + ^.l.n.:+v.V M -.L P (.. v &+% F , g W | q . . . + . . . ",
". . . . . B d.| O p.X n.9.<+. . . ].g ` / I.[+w p.=+. . . . . . ",
". . . . . ~.8 / p.p.}+8.. + . + + h.I.~.. + ) ;.. u . . . . . . ",
". . . . . . e.K H.d.z . . . . . + . . + . + i.U.;.^.U.. . . . . ",
". . . . . . . O L H.. . + . . . . . . . . . . }.w o.f.. . . . . ",
". . . . . . . . g.. . . . . . . . . . . . . + . 9 . + . . . . . "};
