/* XPM */
static char *cr_[] = {
/* columns rows colors chars-per-pixel */
"48 48 256 2 ",
"   c #280708",
".  c #320605",
"X  c #3C0A0A",
"o  c #2E0F11",
"O  c #281416",
"+  c #361A1C",
"@  c #281E22",
"#  c #3B393A",
"$  c #480D0B",
"%  c #520D09",
"&  c #580A07",
"*  c #451816",
"=  c #521814",
"-  c #57130E",
";  c #69130C",
":  c #6B1B15",
">  c #702116",
",  c #542421",
"<  c #4F3832",
"1  c #5B342D",
"2  c #742820",
"3  c #6D3C36",
"4  c #6E443A",
"5  c #484848",
"6  c #5B544C",
"7  c #5A5B56",
"8  c #585857",
"9  c #5A4641",
"0  c #63544F",
"q  c #755041",
"w  c #625852",
"e  c #664B43",
"r  c #7A6858",
"t  c #696661",
"y  c #6C6C69",
"u  c #716E67",
"i  c #74736C",
"p  c #7A766D",
"a  c #7C786A",
"s  c #7A7A76",
"d  c #89150B",
"f  c #921A13",
"g  c #8D1915",
"h  c #B41A05",
"j  c #892219",
"k  c #BD240E",
"l  c #B42412",
"z  c #A52812",
"x  c #9E3A2D",
"c  c #97352A",
"v  c #8F3C38",
"b  c #A12F27",
"n  c #A1332D",
"m  c #A43B37",
"M  c #D42D14",
"N  c #CB3017",
"B  c #D5351B",
"V  c #E63917",
"C  c #EF3B1D",
"Z  c #E8381A",
"A  c #904F3B",
"S  c #844B3A",
"D  c #B74432",
"F  c #F0411B",
"G  c #E9461E",
"H  c #CE5233",
"J  c #F84122",
"K  c #F25D36",
"L  c #9F4142",
"P  c #955F4B",
"I  c #A75847",
"U  c #A24846",
"Y  c #976E5F",
"T  c #87765A",
"R  c #AA6A57",
"E  c #857F74",
"W  c #877667",
"Q  c #BB7A6B",
"!  c #CF6348",
"~  c #F96747",
"^  c #9D876C",
"/  c #8D897C",
"(  c #868277",
")  c #948A75",
"_  c #938C7C",
"`  c #928675",
"'  c #94907C",
"]  c #B09F6C",
"[  c #A79878",
"{  c #BB9372",
"}  c #ACA07A",
"|  c #BDAA7C",
" . c #B6A47F",
".. c #C89A79",
"X. c #FB8569",
"o. c #C4AD7B",
"O. c #C5AA78",
"+. c #CAB37A",
"@. c #C7B07A",
"#. c #838682",
"$. c #8C8C87",
"%. c #8A8A87",
"&. c #938E80",
"*. c #9C9484",
"=. c #9F9A86",
"-. c #9B968A",
";. c #9B968C",
":. c #9C9995",
">. c #A39E8A",
",. c #A89C8B",
"<. c #A89B85",
"1. c #B89D80",
"2. c #A19C90",
"3. c #ABA48D",
"4. c #ADA48A",
"5. c #B4AA8D",
"6. c #B8A685",
"7. c #A4A194",
"8. c #ABA694",
"9. c #A3A29B",
"0. c #ADAA9D",
"q. c #AAA69B",
"w. c #B6AC94",
"e. c #BAAC93",
"r. c #B4AC9A",
"t. c #B8AC98",
"y. c #B6B091",
"u. c #BAB395",
"i. c #BCB39C",
"p. c #8690A3",
"a. c #AAAAA4",
"s. c #BDB4A1",
"d. c #BEB9AC",
"f. c #B6B2A5",
"g. c #ADB0B1",
"h. c #BFBDB7",
"j. c #C49986",
"k. c #C4AC83",
"l. c #C3AE8A",
"z. c #C8AE8C",
"x. c #C9B884",
"c. c #CCB58C",
"v. c #C8B487",
"b. c #D5BA8D",
"n. c #CAB592",
"m. c #CEBC94",
"M. c #C2B499",
"N. c #C9BD9E",
"B. c #C5B698",
"V. c #D2BD93",
"C. c #D5BA97",
"Z. c #CBA893",
"A. c #FFA488",
"S. c #C5BAA3",
"D. c #C9BCA1",
"F. c #C4BDAB",
"G. c #C9BFAC",
"H. c #C2B6A4",
"J. c #D4B9A5",
"K. c #C0BEB4",
"L. c #DCC28D",
"P. c #D6C096",
"I. c #D9C39A",
"U. c #E9C68C",
"Y. c #E2C793",
"T. c #EBCA92",
"R. c #E3CB9C",
"E. c #EBCD9C",
"W. c #E5C991",
"Q. c #F3CE9D",
"!. c #F4CB96",
"~. c #ECD29C",
"^. c #F4D19F",
"/. c #F1C78B",
"(. c #CAC1A5",
"). c #CDC5AA",
"_. c #D2C4A5",
"`. c #DECAA4",
"'. c #D4C9AB",
"]. c #D6C6A8",
"[. c #DCD1AD",
"{. c #CBC4B3",
"}. c #CFC9B2",
"|. c #CAC7BF",
" X c #D1C6B3",
".X c #D4CAB6",
"XX c #DACCB4",
"oX c #D5CBBB",
"OX c #D0C5B8",
"+X c #DDD2B4",
"@X c #DBD4BC",
"#X c #E4CEAA",
"$X c #E9CDA4",
"%X c #F4CEA0",
"&X c #ECD3A3",
"*X c #E1D2AD",
"=X c #EDD5AA",
"-X c #EDD9AD",
";X c #E4D1A5",
":X c #F2D5A5",
">X c #F2D3AC",
",X c #F2D9AE",
"<X c #F5D8A8",
"1X c #E2D3B3",
"2X c #ECD5B3",
"3X c #EDDCB4",
"4X c #E1D6BB",
"5X c #E3D9BF",
"6X c #ECDABA",
"7X c #EAD6B9",
"8X c #F3D6B4",
"9X c #F3DBB4",
"0X c #F4DDBB",
"qX c #F8DEBE",
"wX c #F9D9B4",
"eX c #F4E1BC",
"rX c #F8E6BE",
"tX c #DAD7CE",
"yX c #DBD6C3",
"uX c #E2DBC4",
"iX c #EDDEC4",
"pX c #E4DECC",
"aX c #EBDFCA",
"sX c #F4DEC2",
"dX c #EEE1C5",
"fX c #E6E2CA",
"gX c #F2E3C4",
"hX c #F9E4C3",
"jX c #FBE9C7",
"kX c #F3E6CA",
"lX c #F9E4CA",
"zX c #F5E9CD",
"xX c #FAEBCC",
"cX c #F0E8C6",
"vX c #FCF3CE",
"bX c #E9E3D2",
"nX c #EAE6DA",
"mX c #F5ECD4",
"MX c #FAEDD4",
"NX c #F4EDDA",
"BX c #F9EEDA",
"VX c #F0E6D1",
"CX c #FBF1D4",
"ZX c #FBF3DB",
"AX c #F6F3D9",
"SX c #EDECE3",
"DX c #F4F2E6",
"FX c #FBF5E3",
"GX c #FEF8E5",
"HX c #F6F5EB",
"JX c #FAF7EB",
"KX c #FEFBEC",
"LX c #FDFCF3",
"PX c #FEFEFA",
"IX c #F8F7F0",
"UX c None",
/* pixels */
"UXUXUXUXUXUXUXUXUXUXUXUXUXUXUXUXUXUXUXUXUXUXUXUXUXUXUXUXUXUXUXUXUXUXUXUXUXUXUXUXUXUXUXUXUXUXUXUX",
"UXUXUXUXUXUXUXUXUXUXUXUXUXUXUXUXUXUXUXUXUXUXUXUXUXUXUXUXUXUXUXUXUXUXUXUXUXUXUXUXUXUXUXUXUXUXUXUX",
"UXUXUXUXUXUXUXUXUXUXUXUXUXUXUXUXUXUXUXUXUXUXUXUXUXUXUXUXUXUXUXUXUXUXUXUXUXUXUXUXUXUXUXUXUXUXUXUX",
"UXUXUXUXUXUXUXUXUXUXUXUXUXUXUXUXUXUXUXUXUXUXUXUXUXUXUXUXUXUXUXUXUXUXUXUXUXUXUXUXUXUXUXUXUXUXUXUX",
"UXUXUXUXUXUXUXUXUXUXUXUXUXUXUXUXUXUXUXUXUXUXUXUXUXUXUXUXUXUXUXUXUXUXUXUXUXUXUXUXUXUXUXUXUXUXUXUX",
"UXUXUXUXUXUXUXUXUXUXUXUXUXUXUXUXUXUXUXUXUXUXUXUXUXUXUXUXUXUXUXUXUXUXUXUXUXUXUXUXUXUXUXUXUXUXUXUX",
"UXUXUXUXUXUXUXUXUXUXUXUXUXUXUXUXUXUXUXUXUXUXUXUXUXUXUXUXUXUXUXUXUXUXUXUXUXUXUXUXUXUXUXUXUXUXUXUX",
"UXUXUXUXUXUXUXUXUXUXUXUXUXUXUXUXUXUXUXUXUXUXUXUXUXUXUXUXUXUXUXUXUXUXUXUXUXUXUXUXUXUXUXUXUXUXUXUX",
"UXUXUXUXUXUXUXUXUXUXUXUXUXUXUXUXUXUXUXUXUXUXUXUXUXUXUXUXUXUXUXUXPXPXPXUXUXUXUXUXUXUXUXUXUXUXUXUX",
"UXUXUXUXUXUXUXUXUXUXUXUXUXUXUXUXUXUXUXUXUXUXUXUXUXUXUXUXUXUXUXKXeXiXkXUXUXUXUXUXUXUXUXUXUXUXUXUX",
"UXUXUXUXUXUXUXUXUXUXUXBXcXkX5XUXUXUXUXUXUXUXUXUXUXUXUXUXUXHXzXgXBXGXGXmXUXUXUXUXUXUXUXUXUXUXUXUX",
"UXUXUXUXUXUXUXUXUXUXxX,X:X&XE.&X).UXUXUXUXUXUX4XiXiXkXBXBX9XeXzXBXFXFXBXUXUXUXUXUXUXUXUXUXUXUXUX",
"UXUXUXUXUXUXUXUXUXAXjX<X%X^.T.~.2XUXUXUXUX].1X`.`.2X0X9XlXwX8XsXNXFXFXBXGXUXUXUXUXUXUXUXUXUXUXUX",
"UXUXUXUXUXUXUXUXZXMXjXwX<XQ.^.:X-X*XUXUXB.V.C.R.=X3X6X8X>X>X>XsXlXBXNXBXmXmXUXUXUXUXUXUXUXUXUXUX",
"UXUXUXUXUXUXUXKXAXCXjXsXwXrX,X:X:X-Xu.4.n.n.P.L.&X3X2X=X>X#X2X7XiXMXBXlXsXgXzXUXUXUXUXUXUXUXUXUX",
"UXUXUXUXUXUXJXKXKXGXxXgX9X9X-X&X~.=X*X<.l.m.L.W.&X&X=X=X>X>X#X1X8X6XqX0X0XgXgXkXNXUXUXUXUXUXUXUX",
"UXUXUXUXUXPXDXLXKXGXAXcX3X<X=X~.~.~.-Xe.l.n.Y.U.E.=X&X-X-X&X&X9X8XsXsXlXlXBXVXBXmXGXNXUXUXUXUXUX",
"UXUXUXUXPXPXHXJXGXZXCXmXdX9X,X=X~.~.:X&X1.k.c.b.E.;X-X&X&X~.E.>XqXlXlXsXBXBXnXnXZXNXzXKXUXUXUXUX",
"UXUXSXPXLXPXLXHXGXmXmXVXzXxXeX9X:X^.^.Q.C.k.v.P.E.&X=X&X&XE.E.%X8X8X9X0XMXMXnXbXzXd..XKXPXUXUXUX",
"UXUXUXLXLXLXLXJXHXJXKXZXAXzXeX9X-X%X!.Q.%Xk.z.m.I.~.~.;XE.$XE.E.,X=X,X0X0XhXlXxXMX@X@XLXUXUXUXUX",
"UXUXUXUXHXPXLXJXHXHXGXKXZXxXcXzXeX&X/./.T.Y.k.c.I.I.;XE.E.R.$X2XsX=X,XeXeXjXxXZXCXCXtXp.UXUXUXUX",
"UXUXUXuX(.JXLXKXKXHXLXKXJXGXGXFXcX=XU./.U.E.c.v.V.P.;XE.U.Y.2X6XG.$.g.h.K.a.a.2.>.-.2.(.CX{.UXUX",
"UXUXJXmX+X).JXGXGXPXDXDXGXGXGXZXhX,XE.U./.E.$X6.c.P.b.L.Y.&XzXK.%._ _ &.,.,.8.i.D.[.+Xa.9.UXUXUX",
"UXUXM.ZXdX).yXFXGXPXPXKXZXCXMXxX9X,XeXR.E.&X&XC.5.P.m.V.P.M.i ( 3.e.M.D.'.}.d.;./ #.:.OX(.UXUXUX",
"UXI y..XmX1Xu.NXGXKXLXKXZXvXMXjX,X<X-XfX*X2X=X:XB.N.n.V. Xi ,.M.D.J.1Xa.$.%.*.M. XOXoXyXUXUXUXUX",
"UXI fX5.uXdX'.(.KXKXKXLXGXzXAXrX:X~.&X3XbX8.8X2X2X>.B.F.i _ i.r./ s #.r. XS.H. XOXoXq.8.UXUXUXUX",
"UXUXj.@X5.VX5X].pXKXKXLXJXGXNXcX,X:XeX8.7 a i ,.S..X0.s #.( i E s.G.H.H.t.G.G.G.G.{..X#.% UXUXUX",
"UXUXg XX'.i.mX1X(.KXAXZXGXHXFXAXvXAX=.' s.i.&.E p 7 5 o w *.,.-.t.F.oX.XoX XoXoX{.F.a.f.S UXUXUX",
"UXUXUXc fXu.oXdX+XyXGXAXGXLXKXFXAXs.=.u.p t E ) ' 0 % o 5 t *.s. XF.2.0.d.2.r.q.f..X+XXXD.2 UXUX",
"UXUXUXUXR yXw.fX2XN.pXZXKXKXKXLXnXa >.a [ |  .[ q %   o 8 y *.-.r > z $./ 5.G.'.).G.N.6.Y 2 - UX",
"UXUXUXUXd J.'.s.dX1Xi.SXJXJXKXPX$.3.s  .| O.] 3 & X . @ y 7 8 1 h V V ! *.w.D.J.N.^ 3 ; & UXUXUX",
"UXUXUXUXUXc fXB.XX1XP.|.JXHXJX|.3.( [ | k.] S : . , = @ 8 5.#X/ ; V F G u ` W e $ % - UXUXUXUXUX",
"UXUXUXUXUXUXQ @X5.BX;XD.LXIXSX*./ ) @.+.| A UXUXO * * O 6 r ) <.< N X.A.e * $ UXUXUXUXUXUXUXUXUX",
"UXUXUXUXUXUXf J.(.N.7Xm.SXPX>.3.W 6.@.+.P UXUXUXUX, X @ # T [ / 5 d X.~ D UXUXUXUXUXUXUXUXUXUXUX",
"UXUXUXUXUXUXUXx fX5.uX$X).d.r.u | @.+.R d UXUXUXUXUX  O # 6 w 9 + > C Z B UXUXUXUXUXUXUXUXUXUXUX",
"UXUXUXUXUXUXUXUXQ @Xe.gX`.B.` ' @.@.{ f UXUXUXUXUXUXUX  O + + = UXUXk N B UXUXUXUXUXUXUXUXUXUXUX",
"UXUXUXUXUXUXUXUXUXZ.u.aXNXG.^ @.o.O.g UXUXUXUXUXUXUXUXUXUXUXUXUXUXUXh M M UXUXUXUXUXUXUXUXUXUXUX",
"UXUXUXUXUXUXUXUXUXc +X4.tX<.+.@.z.b UXUXUXUXUXUXUXUXUXUXUXUXUXUXUXUXl B M Z UXUXUXUXUXUXUXUXUXUX",
"UXUXUXUXUXUXUXUXUXUXR [.6.6.@.c.n UXUXUXUXUXUXUXUXUXUXUXUXUXUXUXUXUXl C J ~ UXUXUXUXUXUXUXUXUXUX",
"UXUXUXUXUXUXUXUXUXUXUX..x.x.n.m UXUXUXUXUXUXUXUXUXUXUXUXUXUXUXUXUXUXUXK UXUX! UXUXUXUXUXUXUXUXUX",
"UXUXUXUXUXUXUXUXUXUXUXj I.6.L UXUXUXUXUXUXUXUXUXUXUXUXUXUXUXUXUXUXUXUXH UXUXUXUXUXUXUXUXUXUXUXUX",
"UXUXUXUXUXUXUXUXUXUXUXUXm L UXUXUXUXUXUXUXUXUXUXUXUXUXUXUXUXUXUXUXUXUXUXUXUXUXUXUXUXUXUXUXUXUXUX",
"UXUXUXUXUXUXUXUXUXUXUXUXUXUXUXUXUXUXUXUXUXUXUXUXUXUXUXUXUXUXUXUXUXUXUXUXUXUXUXUXUXUXUXUXUXUXUXUX",
"UXUXUXUXUXUXUXUXUXUXUXUXUXUXUXUXUXUXUXUXUXUXUXUXUXUXUXUXUXUXUXUXUXUXUXUXUXUXUXUXUXUXUXUXUXUXUXUX",
"UXUXUXUXUXUXUXUXUXUXUXUXUXUXUXUXUXUXUXUXUXUXUXUXUXUXUXUXUXUXUXUXUXUXUXUXUXUXUXUXUXUXUXUXUXUXUXUX",
"UXUXUXUXUXUXUXUXUXUXUXUXUXUXUXUXUXUXUXUXUXUXUXUXUXUXUXUXUXUXUXUXUXUXUXUXUXUXUXUXUXUXUXUXUXUXUXUX",
"UXUXUXUXUXUXUXUXUXUXUXUXUXUXUXUXUXUXUXUXUXUXUXUXUXUXUXUXUXUXUXUXUXUXUXUXUXUXUXUXUXUXUXUXUXUXUXUX",
"UXUXUXUXUXUXUXUXUXUXUXUXUXUXUXUXUXUXUXUXUXUXUXUXUXUXUXUXUXUXUXUXUXUXUXUXUXUXUXUXUXUXUXUXUXUXUXUX"
};
