/* XPM */
static char *cr_[] = {
/* columns rows colors chars-per-pixel */
"32 32 223 2 ",
"   c #2D0B0D",
".  c #360605",
"X  c #3D0C0B",
"o  c #351A1B",
"O  c #331E20",
"+  c #2B2022",
"@  c #342626",
"#  c #302C2F",
"$  c #392F31",
"%  c #460404",
"&  c #400D0C",
"*  c #590403",
"=  c #4C1917",
"-  c #6F221C",
";  c #432524",
":  c #4F2522",
">  c #502723",
",  c #4B3E3E",
"<  c #6A2A21",
"1  c #61463D",
"2  c #78473A",
"3  c #4E4E4C",
"4  c #5F4B43",
"5  c #664240",
"6  c #765243",
"7  c #6C6150",
"8  c #676766",
"9  c #716C63",
"0  c #75746C",
"q  c #7F7D72",
"w  c #941C0C",
"e  c #9F2111",
"r  c #9E2A19",
"t  c #BA3C28",
"y  c #A53230",
"u  c #CC2B14",
"i  c #D32D14",
"p  c #CF3018",
"a  c #D43217",
"s  c #DE341A",
"d  c #F03915",
"f  c #874135",
"g  c #96563E",
"h  c #A4463A",
"j  c #D34E2F",
"k  c #E54628",
"l  c #F14427",
"z  c #E15633",
"x  c #A85B50",
"c  c #9D674F",
"v  c #95715D",
"b  c #B7735A",
"n  c #807361",
"m  c #9F7165",
"M  c #827A73",
"N  c #957F73",
"B  c #D95F45",
"V  c #F95F41",
"C  c #8D8676",
"Z  c #86837A",
"A  c #928672",
"S  c #998C77",
"D  c #92867B",
"F  c #938E7D",
"G  c #9F9273",
"H  c #B78666",
"J  c #AD907B",
"K  c #AC9C7A",
"L  c #BE9370",
"P  c #ABA17D",
"I  c #BAA473",
"U  c #B7A47B",
"Y  c #BFAA7D",
"T  c #C38C7C",
"R  c #C19C7A",
"E  c #FF8F6F",
"W  c #C4AB7C",
"Q  c #C5B27B",
"!  c #C8B27C",
"~  c #8B8B85",
"^  c #8F8E88",
"/  c #969386",
"(  c #9B9585",
")  c #9B9886",
"_  c #9E9A8A",
"`  c #999891",
"'  c #AC9D84",
"]  c #A39B8D",
"[  c #BDA683",
"{  c #B0A38D",
"}  c #B8A489",
"|  c #BCAB8B",
" . c #AAA191",
".. c #AEAA92",
"X. c #A6A59E",
"o. c #A8A498",
"O. c #B4A590",
"+. c #B6AA92",
"@. c #B8AA94",
"#. c #B2AD9D",
"$. c #BDB29B",
"%. c #9CA3B0",
"&. c #AFADA8",
"*. c #B4ADA1",
"=. c #B6B2A6",
"-. c #BDB4A2",
";. c #BFB8A2",
":. c #BDB7A9",
">. c #BEB8AB",
",. c #C39B84",
"<. c #C3AF87",
"1. c #C9A28E",
"2. c #C0AC8A",
"3. c #C9B38C",
"4. c #CFBE8E",
"5. c #D1B78C",
"6. c #D4BB8E",
"7. c #DABE8C",
"8. c #C5B292",
"9. c #CBB794",
"0. c #CFBB92",
"q. c #C3B99E",
"w. c #CCBA9C",
"e. c #D1BC92",
"r. c #D1BE9D",
"t. c #C2B6A4",
"y. c #C4BBA3",
"u. c #CABEA3",
"i. c #C6BDAD",
"p. c #CBBBAA",
"a. c #D1B5A1",
"s. c #C6BFB1",
"d. c #DBC394",
"f. c #D7C099",
"g. c #D9C59B",
"h. c #DDCA9F",
"j. c #E4C78E",
"k. c #EBC68A",
"l. c #EDC88C",
"z. c #E6C992",
"x. c #EECB95",
"c. c #E8C59B",
"v. c #E6C998",
"b. c #EACE9C",
"n. c #F3CA93",
"m. c #ECD19E",
"M. c #F6D09F",
"N. c #CCC2A6",
"B. c #CBC2AD",
"V. c #D2C5A5",
"C. c #DAC6A6",
"Z. c #DFCBA6",
"A. c #D2C3AC",
"S. c #D2C9AE",
"D. c #DDCCA8",
"F. c #CCC3B3",
"G. c #CEC9B3",
"H. c #CFCAB8",
"J. c #D0C5B4",
"K. c #D2CBB3",
"L. c #D5CAB8",
"P. c #DFD0B2",
"I. c #DFD7BF",
"U. c #DFD9BE",
"Y. c #E7CDA5",
"T. c #ECCFA3",
"R. c #E3CFA8",
"E. c #E6D1A6",
"W. c #EDD4A3",
"Q. c #E2D0AA",
"!. c #ECD4AA",
"~. c #EDD9AD",
"^. c #F1D6A4",
"/. c #F3D4AE",
"(. c #F2D9AD",
"). c #E1D4B5",
"_. c #EED4B6",
"`. c #EDDAB2",
"'. c #E3D4B9",
"]. c #E4D9BB",
"[. c #ECDBBD",
"{. c #F9D7B3",
"}. c #F1DAB3",
"|. c #FADCB3",
" X c #F4D7B8",
".X c #F5DAB9",
"XX c #F4E0BA",
"oX c #F9E5BE",
"OX c #CBCBC5",
"+X c #D9D7CC",
"@X c #DFDCD3",
"#X c #E2D9C2",
"$X c #EDDDC3",
"%X c #E2DDC8",
"&X c #F3DFC1",
"*X c #EFE3CE",
"=X c #F4E4C4",
"-X c #F9E2C1",
";X c #F6E8C7",
":X c #F2E5CA",
">X c #F9E2C9",
",X c #F6E9CC",
"<X c #FCEBCC",
"1X c #E6E1D1",
"2X c #ECE4D1",
"3X c #E7E6DE",
"4X c #EAE6DB",
"5X c #F0E6D1",
"6X c #F4EBD3",
"7X c #FAEDD4",
"8X c #F1ECDB",
"9X c #F8EED9",
"0X c #FCF3D6",
"qX c #FAF2DB",
"wX c #F5F1E1",
"eX c #FAF5E5",
"rX c #FEF9E5",
"tX c #F6F7ED",
"yX c #F8F6EC",
"uX c #FEFAEB",
"iX c #FEFCF2",
"pX c #FEFDFA",
"aX c None",
/* pixels */
"aXaXaXaXaXaXaXaXaXaXaXaXaXaXaXaXaXaXaXaXaXaXaXaXaXaXaXaXaXaXaXaX",
"aXaXaXaXaXaXaXaXaXaXaXaXaXaXaXaXaXaXaXaXaXaXaXaXaXaXaXaXaXaXaXaX",
"aXaXaXaXaXaXaXaXaXaXaXaXaXaXaXaXaXaXaXaXaXaXaXaXaXaXaXaXaXaXaXaX",
"aXaXaXaXaXaXaXaXaXaXaXaXaXaXaXaXaXaXaXaXaXaXaXaXaXaXaXaXaXaXaXaX",
"aXaXaXaXaXaXaXaXaXaXaXaXaXaXaXaXaXaXaXaXaXaXaXaXaXaXaXaXaXaXaXaX",
"aXaXaXaXaXaXaXaXaXaXaXaXaXaXaXaXaXaXaXaXaXaXpXaXaXaXaXaXaXaXaXaX",
"aXaXaXaXaXaXaXaXaXaXaXaXaXaXaXaXaXaXaXaXaX;X:XaXaXaXaXaXaXaXaXaX",
"aXaXaXaXaXaXaXXX(.W.E.aXaXaXaXaX$X:X9X:X=X9XeXqXaXaXaXaXaXaXaXaX",
"aXaXaXaXaXaX0X|.M.x.W.).aXaXC.R.R.[. X{. X6XeX9XqXaXaXaXaXaXaXaX",
"aXaXaXaXaXqX0X-X|.(.^.!.aX8.9.d.!.}.!.!._.&X7X7X=X:XaXaXaXaXaXaX",
"aXaXaXaXuXuXqX:X`.~.m.W.C.2.6.j.W.W.~.W.R._..X&X&X>X,XaXaXaXaXaX",
"aXaXaXpXuXuXqX6XXX(.W.m.W.| 3.7.m.!./.T.T. X>X>X9X4X8X9X8XaXaXaX",
"aXaXpXiXtXeX8X6X6XoX(.W.M.c.[ e.b.W.W.m.b./.(.}.<X6X2XG.#XpXaXaX",
"aXaX4XiXpXtXuXrX0X:X=X^.n.n.5.3.g.E.m.b.E..X(.XX-X<X0X6XOX%.aXaX",
"aXaX#X1XiXuXtXuXeXrXqX}.k.l.v.<.0.h.z.z.[.i.^ &.=.&.o. .#.U.aXaX",
"aXp.9XS.2XrXpXiXqXqX<X~.~.x.W.f.| 0.d.w.~ _ { @.N.-._ / *.>.aXaX",
"aX} K.[.N.qXuXuX0X7XoX^.`.].Q./.w.9.w.Z @.q.q.#.` ] y.L.H.aXaXaX",
"aX,.K.#XP.1XiXiXeXqXoXW.~.Z C +.A.;.~ Z Z ] #.t.t.p.B.F.:.5 aXaX",
"aXaXa.;.*XN.wXqXuXeX9X6X/ .._ q 0 , o q ] $.s.F.F.s.s.F.=.m aXaX",
"aXaXaXV.y.[.G.qXuXuXuX_ ) S K P 6 . O 8 ] D f N ( t.p.A.V.J - aX",
"aXaXaXT S.'.D.+XtXuX@X) C W I 2 % X $ 9 9 w d j _ @.} v < * aXaX",
"aXaXaXaX1.q.:XN.pXtX] C W <.g aX  = # 0 K 1 k E 4 > : aXaXaXaXaX",
"aXaXaXaXh V.u.g.4X=.F U ! c aXaXaX& + 7 A 3 r V t aXaXaXaXaXaXaX",
"aXaXaXaXaXT G.'.f.) G Q H aXaXaXaXaX  @ ; aXe a p aXaXaXaXaXaXaX",
"aXaXaXaXaXaX,.L.2XK Q L aXaXaXaXaXaXaXaXaXaXaXu i aXaXaXaXaXaXaX",
"aXaXaXaXaXaXaXw.| Q R aXaXaXaXaXaXaXaXaXaXaXaXs l aXaXaXaXaXaXaX",
"aXaXaXaXaXaXaXb 4.,.y aXaXaXaXaXaXaXaXaXaXaXaXz aXB aXaXaXaXaXaX",
"aXaXaXaXaXaXaXaXx aXaXaXaXaXaXaXaXaXaXaXaXaXaXaXaXaXaXaXaXaXaXaX",
"aXaXaXaXaXaXaXaXaXaXaXaXaXaXaXaXaXaXaXaXaXaXaXaXaXaXaXaXaXaXaXaX",
"aXaXaXaXaXaXaXaXaXaXaXaXaXaXaXaXaXaXaXaXaXaXaXaXaXaXaXaXaXaXaXaX",
"aXaXaXaXaXaXaXaXaXaXaXaXaXaXaXaXaXaXaXaXaXaXaXaXaXaXaXaXaXaXaXaX",
"aXaXaXaXaXaXaXaXaXaXaXaXaXaXaXaXaXaXaXaXaXaXaXaXaXaXaXaXaXaXaXaX"
};
