/* XPM */
static char *cr3_xpm[] = {
/* width height num_colors chars_per_pixel */
"32 32 3 1",
/* colors */
"  c None",
". c #000000",
"0 c #ffffff",
/* pixels */
"                                ",
"                                ",
"                                ",
"                                ",
"                                ",
"                                ",
"      ......    ..........      ",
"     .000000..  .000000000.     ",
"    .000000000. .0000000000.    ",
"   .0000000000. .00000000000.   ",
"  .00000....00. .0000...0000.   ",
"  .0000.    .0. .0000. .0000.   ",
" .0000.      .  .0000. .0000.   ",
" .0000.         .0000..00000.   ",
" .0000.         .0000000000.    ",
" .0000.         .000000000.     ",
" .0000.         .000000000.     ",
" .0000.      .  .0000.0000.     ",
"  .0000.    .0. .0000.00000.    ",
"  .00000....00. .0000..00000.   ",
"   .0000000000. .0000..00000.   ",
"    .000000000. .0000. .00000.  ",
"     .000000..  .0000.  .00000. ",
"      ......    ......   ...... ",
"                                ",
"                                ",
"                                ",
"                                ",
"                                ",
"                                ",
"                                ",
"                                "
};
