<?xml version="1.0" encoding="UTF-8" standalone="no"?>
<!-- Created with Inkscape (http://www.inkscape.org/) -->

<svg
   xmlns:dc="http://purl.org/dc/elements/1.1/"
   xmlns:cc="http://creativecommons.org/ns#"
   xmlns:rdf="http://www.w3.org/1999/02/22-rdf-syntax-ns#"
   xmlns:svg="http://www.w3.org/2000/svg"
   xmlns="http://www.w3.org/2000/svg"
   xmlns:sodipodi="http://sodipodi.sourceforge.net/DTD/sodipodi-0.dtd"
   xmlns:inkscape="http://www.inkscape.org/namespaces/inkscape"
   width="48"
   height="48"
   viewBox="0 0 48 48"
   version="1.1"
   id="svg8"
   inkscape:version="0.92.2 5c3e80d, 2017-08-06"
   sodipodi:docname="cr3_option_touch_hc-48x48-src.svg">
  <defs
     id="defs2" />
  <sodipodi:namedview
     id="base"
     pagecolor="#ffffff"
     bordercolor="#666666"
     borderopacity="1.0"
     inkscape:pageopacity="0.0"
     inkscape:pageshadow="2"
     inkscape:zoom="10.260487"
     inkscape:cx="34.314107"
     inkscape:cy="30.527433"
     inkscape:document-units="px"
     inkscape:current-layer="layer1"
     showgrid="false"
     units="px"
     inkscape:window-width="1467"
     inkscape:window-height="998"
     inkscape:window-x="445"
     inkscape:window-y="0"
     inkscape:window-maximized="0"
     inkscape:pagecheckerboard="true"
     scale-x="1" />
  <metadata
     id="metadata5">
    <rdf:RDF>
      <cc:Work
         rdf:about="">
        <dc:format>image/svg+xml</dc:format>
        <dc:type
           rdf:resource="http://purl.org/dc/dcmitype/StillImage" />
        <dc:title></dc:title>
      </cc:Work>
    </rdf:RDF>
  </metadata>
  <g
     inkscape:label="Layer 1"
     inkscape:groupmode="layer"
     id="layer1"
     transform="translate(0,-284.2993)">
    <g
       id="g841"
       transform="translate(-9.9701656,48.053105)">
      <path
         sodipodi:nodetypes="cccccccccccccc"
         style="color:#000000;font-style:normal;font-variant:normal;font-weight:normal;font-stretch:normal;font-size:medium;line-height:normal;font-family:sans-serif;font-variant-ligatures:normal;font-variant-position:normal;font-variant-caps:normal;font-variant-numeric:normal;font-variant-alternates:normal;font-feature-settings:normal;text-indent:0;text-align:start;text-decoration:none;text-decoration-line:none;text-decoration-style:solid;text-decoration-color:#000000;letter-spacing:normal;word-spacing:normal;text-transform:none;writing-mode:lr-tb;direction:ltr;text-orientation:mixed;dominant-baseline:auto;baseline-shift:baseline;text-anchor:start;white-space:normal;shape-padding:0;clip-rule:nonzero;display:inline;overflow:visible;visibility:visible;opacity:1;isolation:auto;mix-blend-mode:normal;color-interpolation:sRGB;color-interpolation-filters:linearRGB;solid-color:#000000;solid-opacity:1;vector-effect:none;fill:#ffffff;fill-opacity:1;fill-rule:nonzero;stroke:none;stroke-width:2.44518542;stroke-linecap:butt;stroke-linejoin:miter;stroke-miterlimit:4;stroke-dasharray:none;stroke-dashoffset:0;stroke-opacity:1;color-rendering:auto;image-rendering:auto;shape-rendering:auto;text-rendering:auto;enable-background:accumulate"
         d="m 52.842851,245.04784 c -3.113068,2.17063 -5.818912,5.65721 -9.961882,4.28541 -4.965117,-0.27009 -10.364388,-0.60311 -14.985249,1.13496 -3.685441,-0.0999 -9.47473,-1.47936 -10.689885,3.39883 -0.705332,2.41217 -0.02904,5.43033 2.158564,6.86352 -2.680489,3.84955 -8.81739,7.32366 -6.8925,12.82441 1.403097,4.38482 8.294409,5.56563 10.347406,1.01145 1.826413,-3.63827 4.04368,-0.81254 6.31798,0.85728 3.862162,3.71923 10.033825,2.24407 13.082502,-1.73209 2.512327,-3.66358 7.867295,-2.30347 11.118538,-5.17283 4.284076,-1.81694 1.590117,-7.32498 2.330301,-11.00675 2.69e-4,-4.86183 7.07e-4,-9.72365 7.07e-4,-14.58549 -0.942185,0.7071 -1.884369,1.4142 -2.82656,2.1213 z"
         id="path855"
         inkscape:connector-curvature="0" />
      <path
         inkscape:connector-curvature="0"
         id="path5"
         d="m 53.866747,246.54649 -1.956507,1.46807 -4.718794,3.54047 c -0.404952,-0.044 -2.718351,-0.3039 -6.037851,-0.46359 -3.595622,-0.17299 -7.796298,-0.22689 -10.66972,0.46084 l -0.07175,0.0179 -0.06899,0.0249 c -0.611004,0.22652 -0.849913,0.52805 -1.096913,0.77404 -0.003,0.003 -0.0025,0.003 -0.0055,0.006 -0.70957,-0.0307 -5.609919,-0.24606 -8.006774,-0.25111 l -0.244218,-0.001 -0.224902,0.0938 c -0.877657,0.36292 -1.427695,1.05151 -1.738503,1.80612 -0.45611,1.10738 -0.443893,2.31217 -0.100723,3.3887 0.239879,0.7525 0.683334,1.57269 1.604666,2.05447 0.678071,0.35458 1.33504,0.41642 1.966165,0.42221 -1.611494,1.8335 -6.578657,7.47555 -8.052307,9.26926 l -0.136596,0.16695 -0.07175,0.20282 c -0.497137,1.41085 -0.619793,3.17914 0.451183,4.5753 1.041532,1.35779 2.782934,1.95208 4.451121,1.59225 l 0.387713,-0.0828 0.263535,-0.2939 c 1.334939,-1.48429 4.103573,-4.47791 5.007167,-5.45558 l 1.98962,1.75644 0.162813,-0.069 2.4615,1.9496 0.253876,-0.0359 0.02622,0.28147 0.449804,0.32425 c 0,0 0.485912,0.35268 1.11347,0.73679 0.627558,0.38411 1.347271,0.81961 2.188307,1.01827 0.930546,0.2198 1.810749,0.1044 2.563602,-0.0648 0.87004,-0.19558 1.696792,-0.55683 2.429766,-1.05138 1.097999,-0.74084 2.268003,-1.92354 3.239687,-2.95408 0.806273,-0.8551 1.223194,-1.35011 1.419779,-1.57983 0.640235,-0.11913 4.751411,-0.8949 7.218928,-1.93443 1.320178,-0.55616 3.028583,-1.80335 3.028583,-1.80335 l 0.522931,-0.36426 z m -2.444943,4.88989 -0.0014,13.31058 c -0.510139,0.33579 -1.506725,1.00828 -2.054469,1.23903 -2.030261,0.85532 -7.141662,1.87372 -7.141662,1.87372 l -0.424968,0.08 -0.280092,0.33114 c 0,0 -0.699784,0.8274 -1.622603,1.80612 -0.92282,0.97871 -2.102568,2.1138 -2.828518,2.60361 -0.480461,0.32418 -1.041022,0.56856 -1.599147,0.69402 -0.558299,0.12552 -1.087976,0.1595 -1.46531,0.0704 -0.21732,-0.0514 -0.932046,-0.39429 -1.473589,-0.72575 -0.254079,-0.15552 -0.28056,-0.18241 -0.449803,-0.29665 l 4.882987,-5.61564 -1.844746,-1.60329 -4.97957,5.72603 -0.02898,0.004 -1.032064,-0.81682 0.02484,-1.36872 c 0.03718,-0.18546 0.0061,-0.25626 0.158672,-0.59054 0.05931,-0.1299 0.444836,-0.70387 0.945139,-1.30112 0.500303,-0.59726 1.123251,-1.27704 1.727465,-1.91236 1.20843,-1.27064 2.335942,-2.35664 2.335942,-2.35664 l -1.697111,-1.76058 c 0,0 -1.157265,1.11628 -2.409069,2.43253 -0.625901,0.65812 -1.276907,1.36684 -1.830947,2.02826 -0.55404,0.66141 -1.003554,1.21472 -1.295599,1.8544 -0.222521,0.4874 -0.198087,0.80267 -0.275953,1.19487 l -0.837517,-0.73955 c -0.0032,-0.16791 -0.01013,-0.20123 -0.0028,-0.44843 0.01545,-0.51796 0.121162,-1.16309 0.158672,-1.25696 0.376664,-0.94265 1.59954,-2.5542 2.715377,-3.79987 1.115837,-1.24567 2.108281,-2.18279 2.108281,-2.18279 l -1.679174,-1.77714 c 0,0 -1.059295,1.00089 -2.249016,2.32905 -1.189722,1.32815 -2.526456,2.92575 -3.165181,4.52424 -0.299573,0.74973 -0.312395,1.4617 -0.331143,2.09035 -0.0099,0.33179 -9.89e-4,0.39368 0.0042,0.60295 -0.399348,0.4318 -3.460779,3.7468 -5.135484,5.59495 -0.623022,0.0133 -1.417731,-0.26473 -1.720567,-0.65953 -0.303651,-0.39585 -0.352339,-1.29919 -0.109001,-2.11932 1.761302,-2.12024 9.123003,-10.5 9.123003,-10.5 l 0.259396,-0.29389 0.266295,-2.65467 -1.578451,0.26491 c 0,0 -0.586301,0.0972 -1.292839,0.13108 -0.706539,0.0339 -1.553074,-0.10209 -1.632262,-0.1435 -0.07052,-0.0369 -0.308345,-0.31664 -0.40841,-0.63054 -0.173728,-0.54499 -0.15893,-1.25017 0.03311,-1.71643 0.06814,-0.16544 0.213155,-0.28595 0.321486,-0.37254 2.592113,0.0259 8.097839,0.25525 8.097839,0.25525 l 0.609855,0.0276 0.387714,-0.47188 c 0,0 0.113779,-0.13648 0.266295,-0.28838 0.129901,-0.12937 0.249445,-0.19623 0.189027,-0.1835 2.296619,-0.52673 6.407056,-0.55187 9.876356,-0.38496 3.511006,0.16891 6.385551,0.48982 6.385551,0.48982 l 0.481538,0.0538 z"
         style="color:#000000;font-style:normal;font-variant:normal;font-weight:normal;font-stretch:normal;font-size:medium;line-height:normal;font-family:sans-serif;font-variant-ligatures:normal;font-variant-position:normal;font-variant-caps:normal;font-variant-numeric:normal;font-variant-alternates:normal;font-feature-settings:normal;text-indent:0;text-align:start;text-decoration:none;text-decoration-line:none;text-decoration-style:solid;text-decoration-color:#000000;letter-spacing:normal;word-spacing:normal;text-transform:none;writing-mode:lr-tb;direction:ltr;text-orientation:mixed;dominant-baseline:auto;baseline-shift:baseline;text-anchor:start;white-space:normal;shape-padding:0;clip-rule:nonzero;display:inline;overflow:visible;visibility:visible;opacity:1;isolation:auto;mix-blend-mode:normal;color-interpolation:sRGB;color-interpolation-filters:linearRGB;solid-color:#000000;solid-opacity:1;vector-effect:none;fill:#000000;fill-opacity:1;fill-rule:nonzero;stroke:none;stroke-width:2.44449186;stroke-linecap:butt;stroke-linejoin:miter;stroke-miterlimit:4;stroke-dasharray:none;stroke-dashoffset:0;stroke-opacity:1;color-rendering:auto;image-rendering:auto;shape-rendering:auto;text-rendering:auto;enable-background:accumulate" />
    </g>
  </g>
</svg>
