<?xml version="1.0" encoding="UTF-8" standalone="no"?>
<!-- Created with Inkscape (http://www.inkscape.org/) -->

<svg
   xmlns:dc="http://purl.org/dc/elements/1.1/"
   xmlns:cc="http://creativecommons.org/ns#"
   xmlns:rdf="http://www.w3.org/1999/02/22-rdf-syntax-ns#"
   xmlns:svg="http://www.w3.org/2000/svg"
   xmlns="http://www.w3.org/2000/svg"
   xmlns:sodipodi="http://sodipodi.sourceforge.net/DTD/sodipodi-0.dtd"
   xmlns:inkscape="http://www.inkscape.org/namespaces/inkscape"
   width="48"
   height="48"
   viewBox="0 0 48 48"
   version="1.1"
   id="svg8"
   inkscape:version="0.92.4 5da689c313, 2019-01-14"
   sodipodi:docname="cr3_option_text_multilang_hc-48x48-src.svg">
  <defs
     id="defs2" />
  <sodipodi:namedview
     id="base"
     pagecolor="#ffffff"
     bordercolor="#666666"
     borderopacity="1.0"
     inkscape:pageopacity="0.0"
     inkscape:pageshadow="2"
     inkscape:zoom="5.6568542"
     inkscape:cx="59.440485"
     inkscape:cy="12.690592"
     inkscape:document-units="px"
     inkscape:current-layer="layer1"
     showgrid="false"
     units="px"
     inkscape:window-width="1563"
     inkscape:window-height="996"
     inkscape:window-x="349"
     inkscape:window-y="2"
     inkscape:window-maximized="0"
     inkscape:pagecheckerboard="true"
     objecttolerance="2"
     guidetolerance="2" />
  <metadata
     id="metadata5">
    <rdf:RDF>
      <cc:Work
         rdf:about="">
        <dc:format>image/svg+xml</dc:format>
        <dc:type
           rdf:resource="http://purl.org/dc/dcmitype/StillImage" />
        <dc:title></dc:title>
      </cc:Work>
    </rdf:RDF>
  </metadata>
  <g
     inkscape:label="Layer 1"
     inkscape:groupmode="layer"
     id="layer1"
     transform="translate(0,-437.26664)">
    <path
       style="fill:#ffffff;fill-opacity:1;fill-rule:evenodd;stroke:#ffffff;stroke-width:3;stroke-linecap:butt;stroke-linejoin:miter;stroke-miterlimit:4;stroke-dasharray:none;stroke-opacity:1"
       d="m 2.502422,439.76906 h 42.995156 v 42.99515 H 2.502422 Z"
       id="path984-9"
       inkscape:connector-curvature="0"
       sodipodi:nodetypes="ccccc" />
    <path
       style="fill:#ffffff;fill-opacity:1;fill-rule:evenodd;stroke:#000000;stroke-width:2.9999125;stroke-linecap:butt;stroke-linejoin:miter;stroke-miterlimit:4;stroke-dasharray:none;stroke-opacity:1"
       d="M 5.4999561,442.76659 H 42.500044 v 37.00009 H 5.4999561 Z"
       id="path984"
       inkscape:connector-curvature="0"
       sodipodi:nodetypes="ccccc" />
    <g
       aria-label="ёж"
       style="font-style:normal;font-weight:normal;font-size:17.5px;line-height:125%;font-family:Sans;letter-spacing:0px;word-spacing:0px;fill:#000000;fill-opacity:1;stroke:none;stroke-width:1px;stroke-linecap:butt;stroke-linejoin:miter;stroke-opacity:1"
       id="text856" />
    <g
       aria-label="it"
       style="font-style:normal;font-weight:normal;font-size:17.5px;line-height:125%;font-family:Sans;letter-spacing:0px;word-spacing:0px;fill:#000000;fill-opacity:1;stroke:none;stroke-width:1px;stroke-linecap:butt;stroke-linejoin:miter;stroke-opacity:1"
       id="text856-8">
      <path
         id="path878"
         style="font-style:italic;font-variant:normal;font-weight:bold;font-stretch:normal;font-size:18.66666603px;font-family:'Noto Serif';-inkscape-font-specification:'Noto Serif Bold Italic'"
         d="m 26.858755,459.88116 q -1.026666,0 -1.735999,-0.54134 -0.690667,-0.54133 -0.690667,-1.64266 0,-0.336 0.056,-0.76534 0.056,-0.448 0.130667,-0.80266 l 1.119999,-5.17067 h -1.437333 l 0.205334,-0.952 q 0.802666,0 1.847999,-0.57867 1.045334,-0.59733 1.922667,-2.03466 h 1.082667 l -0.485334,2.296 h 2.258667 l -0.261333,1.26933 h -2.277334 l -1.12,5.11467 q -0.09333,0.41066 -0.149333,0.74666 -0.03733,0.336 -0.03733,0.59734 0,0.46666 0.261333,0.70933 0.261333,0.224 0.672,0.224 0.429333,0 0.784,-0.14933 0.373333,-0.14934 0.672,-0.336 l 0.429333,0.70933 q -0.616,0.52267 -1.4,0.91467 -0.765333,0.392 -1.848,0.392 z m -5.908291,-11.872 q -0.616,0 -1.045333,-0.28 -0.410667,-0.29867 -0.410667,-0.87734 0,-0.82133 0.522667,-1.176 0.522666,-0.35466 1.213333,-0.35466 0.597333,0 1.045333,0.28 0.448,0.26133 0.448,0.896 0,0.76533 -0.56,1.13866 -0.541333,0.37334 -1.213333,0.37334 z m -0.914667,11.872 q -1.064,0 -1.642666,-0.504 -0.578667,-0.52267 -0.578667,-1.41867 0,-0.392 0.07467,-0.952 0.07467,-0.56 0.224,-1.26933 l 0.728,-3.472 q 0.056,-0.24267 0.09333,-0.48534 0.03733,-0.24266 0.03733,-0.31733 0,-0.504 -0.224,-0.63467 -0.224,-0.14933 -0.765333,-0.14933 h -0.336 l 0.186667,-0.98933 h 4.405333 l -1.288,6.06666 q -0.112,0.504 -0.186667,0.952 -0.07467,0.448 -0.07467,0.84 0,0.84 0.653333,0.84 0.298667,0 0.541333,-0.112 0.242667,-0.112 0.56,-0.31733 l 0.448,0.63467 q -0.448,0.46666 -1.138666,0.87733 -0.690667,0.41067 -1.717334,0.41067 z m 14.682737,16.67263 q -1.792,0 -2.725334,-0.952 -0.914666,-0.97066 -0.914666,-2.55733 0,-0.616 0.112,-1.288 h -1.474667 l -0.989333,4.61067 h -2.314667 l 0.952,-4.61067 h -1.362666 q -0.373334,1.232 -1.157334,2.33333 -0.784,1.08267 -1.904,1.77334 -1.12,0.672 -2.538666,0.672 -1.381333,0 -2.053333,-0.59734 -0.653334,-0.616 -0.653334,-1.41866 0,-0.616 0.541334,-1.064 0.541333,-0.46667 1.568,-0.46667 0,1.008 0.242666,1.71733 0.261334,0.69067 0.821334,0.69067 0.56,0 1.045333,-0.46667 0.485333,-0.48533 0.858666,-1.26933 0.373334,-0.80267 0.578667,-1.71733 0.224,-0.93334 0.224,-1.82934 0,-1.10133 -0.392,-1.792 -0.392,-0.69066 -1.344,-0.69066 -0.858666,0 -1.418666,0.392 -0.56,0.392 -0.989334,1.008 -0.07467,-0.0933 -0.130666,-0.28 -0.03733,-0.18667 -0.03733,-0.448 0,-0.448 0.354667,-0.93334 0.354667,-0.504 1.101333,-0.84 0.746667,-0.35466 1.922667,-0.35466 1.792,0 2.706666,1.008 0.933334,0.98933 0.933334,2.576 0,0.29866 -0.03733,0.54133 -0.01867,0.224 -0.07467,0.56 h 1.381333 l 0.952,-4.55467 h 2.370667 l -0.970667,4.55467 h 1.456 q 0.392,-1.232 1.157333,-2.296 0.784,-1.064 1.904,-1.71733 1.12,-0.672 2.538667,-0.672 1.381333,0 2.034666,0.59733 0.672,0.59733 0.672,1.41867 0,0.616 -0.541333,1.08266 -0.541333,0.448 -1.568,0.448 0,-1.008 -0.261333,-1.69866 -0.242667,-0.70934 -0.802667,-0.70934 -0.56,0 -1.045333,0.504 -0.485334,0.48534 -0.858667,1.30667 -0.373333,0.80267 -0.597333,1.75467 -0.205334,0.93333 -0.205334,1.82933 0,1.08267 0.392,1.736 0.392,0.65333 1.344,0.65333 0.877334,0 1.418667,-0.392 0.56,-0.392 0.989333,-1.008 0.07467,0.0933 0.112,0.28 0.056,0.18667 0.056,0.448 0,0.448 -0.354666,0.952 -0.354667,0.48534 -1.101334,0.84 -0.746666,0.336 -1.922666,0.336 z m -22.10425,0 q -1.138666,0 -2.090666,-0.41066 -0.9333334,-0.42934 -1.5120001,-1.288 -0.56,-0.85867 -0.56,-2.16534 0,-1.04533 0.4106667,-2.184 0.4106666,-1.13866 1.2133334,-2.10933 0.802667,-0.98933 1.978666,-1.60533 1.176,-0.616 2.725334,-0.616 1.325333,0 2.072,0.57866 0.746666,0.57867 0.746666,1.624 0,1.008 -0.728,1.86667 -0.709333,0.85867 -1.978666,1.4 -1.250667,0.52267 -2.856,0.52267 h -0.690667 q -0.01867,0.18666 -0.03733,0.37333 0,0.18667 0,0.336 0,1.08267 0.504,1.68 0.504,0.57867 1.530666,0.57867 0.914667,0 1.624,-0.46667 0.709334,-0.48533 1.101334,-1.04533 0.242666,0.29866 0.242666,0.80266 0,0.448 -0.392,0.952 -0.392,0.48534 -1.213333,0.84 -0.802667,0.336 -2.090667,0.336 z m -1.138666,-5.45066 h 0.168 q 0.933333,0 1.661333,-0.31734 0.746667,-0.336 1.176,-0.91466 0.429333,-0.57867 0.429333,-1.36267 0,-0.57867 -0.242666,-0.896 -0.242667,-0.31733 -0.672,-0.31733 -0.597334,0 -1.12,0.57866 -0.522667,0.57867 -0.896,1.456 -0.354667,0.87734 -0.504,1.77334 z m 4.928,-6.34667 q -0.522667,0 -0.84,-0.28 -0.317334,-0.29867 -0.317334,-0.87733 0,-0.65334 0.336,-1.064 0.336,-0.41067 0.914667,-0.41067 0.504,0 0.821333,0.28 0.336,0.28 0.336,0.87733 0,0.82134 -0.410666,1.15734 -0.392,0.31733 -0.84,0.31733 z m -4.162667,0 q -0.522667,0 -0.84,-0.28 -0.317333,-0.29867 -0.317333,-0.87733 0,-0.65334 0.336,-1.064 0.336,-0.41067 0.914666,-0.41067 0.504,0 0.821334,0.28 0.336,0.28 0.336,0.87733 0,0.82134 -0.410667,1.15734 -0.392,0.31733 -0.84,0.31733 z" />
    </g>
  </g>
</svg>
