<?xml version="1.0" encoding="UTF-8" standalone="no"?>
<svg
   xmlns:dc="http://purl.org/dc/elements/1.1/"
   xmlns:cc="http://creativecommons.org/ns#"
   xmlns:rdf="http://www.w3.org/1999/02/22-rdf-syntax-ns#"
   xmlns:svg="http://www.w3.org/2000/svg"
   xmlns="http://www.w3.org/2000/svg"
   xmlns:sodipodi="http://sodipodi.sourceforge.net/DTD/sodipodi-0.dtd"
   xmlns:inkscape="http://www.inkscape.org/namespaces/inkscape"
   width="48"
   height="48"
   viewBox="0 0 48 48"
   version="1.1"
   id="svg8"
   inkscape:version="1.0.1 (3bc2e813f5, 2020-09-07)"
   sodipodi:docname="cr3_button_light_hc-48x48-src.svg">
  <defs
     id="defs2" />
  <sodipodi:namedview
     id="base"
     pagecolor="#ffffff"
     bordercolor="#666666"
     borderopacity="1.0"
     inkscape:pageopacity="0.0"
     inkscape:pageshadow="2"
     inkscape:zoom="11.313708"
     inkscape:cx="29.534066"
     inkscape:cy="33.605015"
     inkscape:document-units="px"
     inkscape:current-layer="g1699"
     showgrid="false"
     units="px"
     inkscape:window-width="1558"
     inkscape:window-height="1002"
     inkscape:window-x="354"
     inkscape:window-y="0"
     inkscape:window-maximized="0"
     inkscape:pagecheckerboard="true"
     objecttolerance="2"
     guidetolerance="2"
     inkscape:document-rotation="0" />
  <metadata
     id="metadata5">
    <rdf:RDF>
      <cc:Work
         rdf:about="">
        <dc:format>image/svg+xml</dc:format>
        <dc:type
           rdf:resource="http://purl.org/dc/dcmitype/StillImage" />
        <dc:title />
      </cc:Work>
    </rdf:RDF>
  </metadata>
  <g
     inkscape:label="Layer 1"
     inkscape:groupmode="layer"
     id="layer1"
     transform="translate(0,-284.29999)">
    <ellipse
       style="opacity:1;fill:none;fill-opacity:1;fill-rule:evenodd;stroke:#4a8b00;stroke-width:2.5;stroke-linecap:butt;stroke-linejoin:miter;stroke-miterlimit:10;stroke-dasharray:none;stroke-dashoffset:8;stroke-opacity:1;paint-order:markers fill stroke"
       id="path870"
       cx="24"
       cy="308.29999"
       r="22.514143" />
    <g
       id="g1699"
       transform="matrix(1.1,0,0,1.1,-2.39981,-30.824999)">
      <path
         inkscape:r_cy="true"
         inkscape:r_cx="true"
         id="path1711"
         d="m 19.952971,324.13831 v 0.30642 c 0,1.86706 1.904485,3.52667 4.04703,3.52667 2.142544,0 4.047029,-1.65961 4.047029,-3.52667 v -0.30642 z"
         style="fill:#ffffff;fill-opacity:1;fill-rule:nonzero;stroke:none;stroke-width:2.7;stroke-miterlimit:4;stroke-dasharray:none;stroke-opacity:1"
         sodipodi:nodetypes="cssscc" />
      <path
         style="fill:none;fill-opacity:1;fill-rule:evenodd;stroke:#ffffff;stroke-width:2;stroke-linecap:round;stroke-linejoin:round;stroke-miterlimit:4;stroke-dasharray:none;stroke-opacity:1"
         d="m 16.767954,322.29781 c 2.002776,3.93016 14.091687,3.35736 14.560833,-0.37991 0.228628,-0.83231 0.05781,-1.40389 -0.243353,-2.00608 0.629254,-1.39889 0.118574,-0.38161 0.176234,-1.47094 -0.174658,-0.40026 -0.217877,-0.54745 -0.602862,-0.83973 0.499728,-0.43934 0.609293,-0.70341 0.784689,-1.12318 0.137885,-0.62604 -0.189089,-1.20227 -0.420852,-1.49539 -0.150169,-0.77266 -0.687289,-2.19086 -2.374018,-3.00978 -3.033512,-1.04691 -6.875748,-0.77539 -7.691978,-0.72228 -0.793022,0.16729 -3.307661,0.93611 -3.76346,1.65028 -0.550418,0.44045 -0.747961,1.64218 -0.959124,2.73763 -0.01465,0.86124 0.178943,1.13735 0.663946,1.49592 -0.296489,0.2899 -0.04313,0.33791 -0.283636,0.86109 -0.09765,0.5847 -0.03891,1.15034 0.309306,1.87105 -0.107953,0.46969 -0.516163,1.43634 -0.155725,2.43132 z"
         id="path1469"
         sodipodi:nodetypes="ccccccccccccccc" />
      <path
         sodipodi:nodetypes="csssssc"
         id="path1467"
         d="m 24.041806,289.3609 c -6.719073,0 -13.005149,5.83252 -13.005149,12.38766 0,6.71953 4.629498,7.58618 4.629498,10.06263 0,2.90968 3.609606,6.76711 8.555811,6.69414 5.320624,-0.0785 8.441002,-3.80693 8.441002,-6.90066 0,-2.64497 4.290979,-2.40562 4.290979,-9.63032 0,-6.55514 -6.193067,-12.61345 -12.912141,-12.61345 z"
         style="color:#000000;display:inline;overflow:visible;visibility:visible;fill:none;fill-opacity:1;fill-rule:nonzero;stroke:#ffffff;stroke-width:2;stroke-linecap:round;stroke-linejoin:round;stroke-miterlimit:4;stroke-dasharray:none;stroke-dashoffset:0;stroke-opacity:1;marker:none;marker-start:none;marker-mid:none;marker-end:none"
         inkscape:r_cx="true"
         inkscape:r_cy="true" />
      <path
         style="color:#000000;font-style:normal;font-variant:normal;font-weight:normal;font-stretch:normal;font-size:medium;line-height:normal;font-family:sans-serif;font-variant-ligatures:normal;font-variant-position:normal;font-variant-caps:normal;font-variant-numeric:normal;font-variant-alternates:normal;font-variant-east-asian:normal;font-feature-settings:normal;font-variation-settings:normal;text-indent:0;text-align:start;text-decoration:none;text-decoration-line:none;text-decoration-style:solid;text-decoration-color:#000000;letter-spacing:normal;word-spacing:normal;text-transform:none;writing-mode:lr-tb;direction:ltr;text-orientation:mixed;dominant-baseline:auto;baseline-shift:baseline;text-anchor:start;white-space:normal;shape-padding:0;shape-margin:0;inline-size:0;clip-rule:nonzero;display:inline;overflow:visible;visibility:visible;opacity:1;isolation:auto;mix-blend-mode:normal;color-interpolation:sRGB;color-interpolation-filters:linearRGB;solid-color:#000000;solid-opacity:1;vector-effect:none;fill:#ffffff;fill-opacity:1;fill-rule:evenodd;stroke:none;stroke-width:2;stroke-linecap:round;stroke-linejoin:round;stroke-miterlimit:4;stroke-dasharray:none;stroke-dashoffset:0;stroke-opacity:1;color-rendering:auto;image-rendering:auto;shape-rendering:auto;text-rendering:auto;enable-background:accumulate;stop-color:#000000;stop-opacity:1"
         d="m 16.427685,299.65234 c -0.683309,0.005 -1.160925,0.67778 -0.939453,1.32422 l 4.322266,12.59375 c 0.178532,0.52261 0.74691,0.80156 1.269531,0.62305 l 5.853516,-0.13867 c 0.531783,0.1488 1.083519,-0.16161 1.232422,-0.69336 l 3.486328,-12.43945 c 0.242968,-0.87311 -0.707683,-1.59331 -1.482422,-1.12305 -2.708696,1.64571 -4.180639,2.58138 -5.759766,2.68359 -1.579126,0.10221 -3.631936,-0.59907 -7.498047,-2.70703 -0.148443,-0.0814 -0.315105,-0.12369 -0.484375,-0.12305 z"
         id="path1715"
         sodipodi:nodetypes="ccccccccscc" />
    </g>
    <g
       id="g1055"
       transform="translate(1.9e-4)">
      <path
         inkscape:r_cy="true"
         inkscape:r_cx="true"
         id="path1063"
         d="m 19.952971,324.13831 v 0.30642 c 0,1.86706 1.904485,3.52667 4.04703,3.52667 2.142544,0 4.047029,-1.65961 4.047029,-3.52667 v -0.30642 z"
         style="fill:#000000;fill-opacity:1;fill-rule:nonzero;stroke:none;stroke-width:2.7;stroke-miterlimit:4;stroke-dasharray:none;stroke-opacity:1"
         sodipodi:nodetypes="cssscc" />
      <path
         style="fill:#fff5f5;fill-opacity:1;fill-rule:evenodd;stroke:#000000;stroke-width:2;stroke-linecap:round;stroke-linejoin:round;stroke-miterlimit:4;stroke-dasharray:none;stroke-opacity:1"
         d="m 18.010487,322.91195 c 1.718752,2.87304 12.082115,1.6959 12.018663,-0.14342 0.228628,-0.83231 -0.235619,-0.97049 -0.536781,-1.57268 0.674453,-0.83055 0.370787,-1.2722 0.3318,-1.46519 -0.174658,-0.40026 -0.325763,-0.56425 -0.710748,-0.85653 0.499728,-0.43934 0.609293,-0.70341 0.784689,-1.12318 0.137885,-0.62604 -0.189089,-1.20227 -0.420852,-1.49539 -0.150169,-0.77266 0.06378,-1.52698 -1.622949,-2.3459 -3.033512,-1.04691 -6.154105,-0.48569 -6.970335,-0.43258 -0.793022,0.16729 -1.354759,0.26544 -1.80904,0.69911 -0.550418,0.44045 -0.993093,1.36656 -1.204256,2.46201 -0.01465,0.86124 0.360772,1.13735 0.845775,1.49592 -0.296489,0.2899 -0.497235,0.51964 -0.737745,1.04282 -0.161423,0.65298 0.11896,1.26731 0.581586,1.68932 -0.107953,0.46969 -0.910245,1.05071 -0.549807,2.04569 z"
         id="path1061"
         sodipodi:nodetypes="ccccccccccccccc" />
      <path
         sodipodi:nodetypes="csssssc"
         id="path1059"
         d="m 24,289.52858 c -6.719073,0 -12.17519,5.32298 -12.17519,11.87812 0,6.71953 4.931976,7.46375 4.931976,9.9402 0,2.90968 2.891615,6.20918 7.64633,6.09007 5.055917,-0.12664 7.142435,-2.99634 7.142435,-6.09007 0,-2.64497 4.629639,-2.7155 4.629639,-9.9402 0,-6.55514 -5.456116,-11.87812 -12.17519,-11.87812 z"
         style="color:#000000;display:inline;overflow:visible;visibility:visible;fill:none;fill-opacity:1;fill-rule:nonzero;stroke:#000000;stroke-width:2;stroke-linecap:round;stroke-linejoin:round;stroke-miterlimit:4;stroke-dasharray:none;stroke-dashoffset:0;stroke-opacity:1;marker:none;marker-start:none;marker-mid:none;marker-end:none"
         inkscape:r_cx="true"
         inkscape:r_cy="true" />
      <path
         style="fill:none;fill-rule:evenodd;stroke:#000000;stroke-width:2;stroke-linecap:round;stroke-linejoin:round;stroke-miterlimit:4;stroke-dasharray:none;stroke-opacity:1"
         d="m 22.294642,313.26771 -3.17828,-9.65106 c 3.041528,1.72881 6.860178,1.53407 9.56953,-0.19335 l -3.262956,9.75166"
         id="path1057"
         sodipodi:nodetypes="cccc" />
    </g>
  </g>
</svg>
