<?xml version="1.0" encoding="UTF-8" standalone="no"?>
<svg
   xmlns:dc="http://purl.org/dc/elements/1.1/"
   xmlns:cc="http://creativecommons.org/ns#"
   xmlns:rdf="http://www.w3.org/1999/02/22-rdf-syntax-ns#"
   xmlns:svg="http://www.w3.org/2000/svg"
   xmlns="http://www.w3.org/2000/svg"
   xmlns:sodipodi="http://sodipodi.sourceforge.net/DTD/sodipodi-0.dtd"
   xmlns:inkscape="http://www.inkscape.org/namespaces/inkscape"
   width="48"
   height="48"
   viewBox="0 0 48 48"
   version="1.1"
   id="svg8"
   inkscape:version="1.0.1 (3bc2e813f5, 2020-09-07)"
   sodipodi:docname="cr3_option_text_superscript_hc-48x48-src.svg">
  <defs
     id="defs2" />
  <sodipodi:namedview
     id="base"
     pagecolor="#ffffff"
     bordercolor="#666666"
     borderopacity="1.0"
     inkscape:pageopacity="0.0"
     inkscape:pageshadow="2"
     inkscape:zoom="10.24"
     inkscape:cx="25.540163"
     inkscape:cy="25.812725"
     inkscape:document-units="px"
     inkscape:current-layer="layer1"
     showgrid="false"
     units="px"
     inkscape:window-width="1538"
     inkscape:window-height="996"
     inkscape:window-x="1280"
     inkscape:window-y="124"
     inkscape:window-maximized="0"
     inkscape:pagecheckerboard="true"
     objecttolerance="2"
     guidetolerance="2"
     inkscape:document-rotation="0" />
  <metadata
     id="metadata5">
    <rdf:RDF>
      <cc:Work
         rdf:about="">
        <dc:format>image/svg+xml</dc:format>
        <dc:type
           rdf:resource="http://purl.org/dc/dcmitype/StillImage" />
        <dc:title />
      </cc:Work>
    </rdf:RDF>
  </metadata>
  <g
     inkscape:label="Layer 1"
     inkscape:groupmode="layer"
     id="layer1"
     transform="translate(0,-437.26664)">
    <path
       style="fill:#ffffff;fill-opacity:1;fill-rule:evenodd;stroke:#ffffff;stroke-width:3;stroke-linecap:butt;stroke-linejoin:miter;stroke-miterlimit:4;stroke-dasharray:none;stroke-opacity:1"
       d="m 2.502422,439.76906 h 42.995156 v 42.99515 H 2.502422 Z"
       id="path984-9"
       inkscape:connector-curvature="0"
       sodipodi:nodetypes="ccccc" />
    <path
       style="fill:#ffffff;fill-opacity:1;fill-rule:evenodd;stroke:#000000;stroke-width:2.9999125;stroke-linecap:butt;stroke-linejoin:miter;stroke-miterlimit:4;stroke-dasharray:none;stroke-opacity:1"
       d="M 5.4999561,442.76659 H 42.500044 v 37.00009 H 5.4999561 Z"
       id="path984"
       inkscape:connector-curvature="0"
       sodipodi:nodetypes="ccccc" />
    <g
       aria-label="X"
       id="text851"
       style="font-style:normal;font-variant:normal;font-weight:normal;font-stretch:normal;font-size:15px;line-height:125%;font-family:Serif;-inkscape-font-specification:Serif;letter-spacing:0px;word-spacing:0px;fill:#000000;fill-opacity:1;stroke:none;stroke-width:1px;stroke-linecap:butt;stroke-linejoin:miter;stroke-opacity:1">
      <path
         d="m 11.890418,471.70343 v -1.52 h 0.16 q 0.960001,0 1.546669,-0.53334 0.586667,-0.56 1.226668,-1.33333 l 4.746672,-5.97334 -4.400005,-6.74668 q -0.453334,-0.66666 -0.906668,-1.04 -0.426667,-0.37333 -1.386668,-0.37333 h -0.346667 v -1.52 h 9.466678 v 1.52 h -0.133333 q -0.906668,0 -1.226669,0.26667 -0.32,0.24 -0.32,0.56 0,0.29333 0.213334,0.72 0.24,0.4 0.506667,0.8 l 2.133336,3.09333 2.240003,-3.04 q 0.213333,-0.29333 0.48,-0.77333 0.266667,-0.48 0.266667,-0.85334 0,-0.48 -0.453333,-0.61333 -0.426668,-0.16 -1.040002,-0.16 H 24.5571 v -1.52 h 6.400009 v 1.52 h -0.240001 q -0.773334,0 -1.306668,0.42667 -0.533334,0.42666 -1.333335,1.49333 l -3.866672,5.17334 4.906673,7.49334 q 0.533334,0.8 1.066668,1.12 0.560001,0.29334 1.066668,0.29334 h 0.346667 v 1.52 h -9.440012 v -1.52 h 0.133334 q 1.600002,0 1.600002,-0.88 0,-0.32 -0.16,-0.66667 -0.133334,-0.34667 -0.720001,-1.17334 l -2.373337,-3.49333 -2.853336,3.68 q -0.240001,0.34667 -0.480001,0.77334 -0.213334,0.4 -0.213334,0.82666 0,0.42667 0.320001,0.69334 0.346667,0.24 1.226668,0.24 h 0.106667 v 1.52 z"
         style="font-style:normal;font-variant:normal;font-weight:800;font-stretch:normal;font-size:26.6667px;font-family:'Noto Serif';-inkscape-font-specification:'Noto Serif Ultra-Bold'"
         id="path837" />
    </g>
    <g
       aria-label="2"
       id="text857"
       style="font-style:normal;font-variant:normal;font-weight:normal;font-stretch:normal;font-size:15px;line-height:125%;font-family:Serif;-inkscape-font-specification:Serif;letter-spacing:0px;word-spacing:0px;fill:#000000;fill-opacity:1;stroke:none;stroke-width:1px;stroke-linecap:butt;stroke-linejoin:miter;stroke-opacity:1">
      <path
         d="m 30.392059,459.29007 v -1.76 l 2.224,-2.224 q 1.008,-1.04 1.552,-1.808 0.56,-0.784 0.768,-1.488 0.208,-0.72 0.208,-1.536 0,-0.96 -0.32,-1.344 -0.304,-0.384 -0.768,-0.384 -0.704,0 -1.04,0.656 -0.336,0.656 -0.336,2.192 -0.624,0 -1.136,-0.144 -0.512,-0.144 -0.816,-0.496 -0.304,-0.352 -0.304,-0.976 0,-0.576 0.4,-1.088 0.4,-0.528 1.2,-0.848 0.816,-0.336 2.032,-0.336 1.904,0 2.864,0.752 0.976,0.736 0.976,1.984 0,0.56 -0.192,1.104 -0.176,0.528 -0.672,1.184 -0.496,0.64 -1.424,1.536 -0.912,0.88 -2.384,2.144 l -1.024,0.928 h 3.552 q 0.4,0 0.784,-0.256 0.4,-0.256 0.544,-0.816 l 0.16,-0.576 h 1.056 l -0.08,3.6 z"
         style="font-style:normal;font-variant:normal;font-weight:800;font-stretch:normal;font-size:16px;font-family:'Noto Serif';-inkscape-font-specification:'Noto Serif Ultra-Bold'"
         id="path840" />
    </g>
  </g>
</svg>
