<?xml version="1.0" encoding="UTF-8" standalone="no"?>
<svg
   xmlns:osb="http://www.openswatchbook.org/uri/2009/osb"
   xmlns:dc="http://purl.org/dc/elements/1.1/"
   xmlns:cc="http://creativecommons.org/ns#"
   xmlns:rdf="http://www.w3.org/1999/02/22-rdf-syntax-ns#"
   xmlns:svg="http://www.w3.org/2000/svg"
   xmlns="http://www.w3.org/2000/svg"
   xmlns:sodipodi="http://sodipodi.sourceforge.net/DTD/sodipodi-0.dtd"
   xmlns:inkscape="http://www.inkscape.org/namespaces/inkscape"
   width="48"
   height="48"
   viewBox="0 0 48 48"
   version="1.1"
   id="svg8"
   inkscape:version="1.0.1 (3bc2e813f5, 2020-09-07)"
   sodipodi:docname="ic_menu_search_hc-48x48-src.svg">
  <defs
     id="defs2">
    <linearGradient
       id="linearGradient2414"
       osb:paint="solid">
      <stop
         style="stop-color:#484a4c;stop-opacity:1;"
         offset="0"
         id="stop2412" />
    </linearGradient>
  </defs>
  <sodipodi:namedview
     id="base"
     pagecolor="#ffffff"
     bordercolor="#666666"
     borderopacity="1.0"
     inkscape:pageopacity="0.0"
     inkscape:pageshadow="2"
     inkscape:zoom="8.0000004"
     inkscape:cx="25.250721"
     inkscape:cy="39.341221"
     inkscape:document-units="px"
     inkscape:current-layer="layer1"
     showgrid="false"
     units="px"
     inkscape:window-width="1417"
     inkscape:window-height="1002"
     inkscape:window-x="495"
     inkscape:window-y="0"
     inkscape:window-maximized="0"
     inkscape:pagecheckerboard="true"
     objecttolerance="2"
     guidetolerance="2"
     inkscape:document-rotation="0" />
  <metadata
     id="metadata5">
    <rdf:RDF>
      <cc:Work
         rdf:about="">
        <dc:format>image/svg+xml</dc:format>
        <dc:type
           rdf:resource="http://purl.org/dc/dcmitype/StillImage" />
        <dc:title></dc:title>
      </cc:Work>
    </rdf:RDF>
  </metadata>
  <g
     inkscape:label="Layer 1"
     inkscape:groupmode="layer"
     id="layer1"
     transform="translate(0,-437.26664)">
    <path
       id="path2863"
       style="fill:#ffffff;fill-opacity:1;fill-rule:evenodd;stroke:none;stroke-width:1px;stroke-linecap:butt;stroke-linejoin:miter;stroke-opacity:1"
       d="m 19.358495,442.1813 a 14.545701,14.545701 0 0 0 -3.490234,0.45118 l -0.07617,0.0195 a 14.545701,14.545701 0 0 0 -10.408205,17.72656 14.545701,14.545701 0 0 0 17.712891,10.43164 14.545701,14.545701 0 0 0 3.453125,-1.38281 l 0.0625,2.45312 8.101562,8.20313 h 5.109375 l 4.017582,-4.26758 0.0117,-4.5293 -8.119136,-8.05859 -3.263672,0.01 a 14.545701,14.545701 0 0 0 1.083985,-10.125 14.545701,14.545701 0 0 0 -14.195313,-10.93164 z" />
    <path
       style="fill:none;fill-opacity:1;stroke:#000000;stroke-width:3;stroke-linecap:round;stroke-linejoin:round;stroke-miterlimit:4;stroke-dasharray:none;stroke-dashoffset:3;stroke-opacity:1"
       id="path2844"
       sodipodi:type="arc"
       sodipodi:cx="19.4634"
       sodipodi:cy="456.72647"
       sodipodi:rx="10.511759"
       sodipodi:ry="10.511759"
       sodipodi:start="4.4626785"
       sodipodi:end="4.4572218"
       sodipodi:open="true"
       sodipodi:arc-type="arc"
       d="m 16.865698,446.54074 a 10.511759,10.511759 0 0 1 12.779875,7.57414 10.511759,10.511759 0 0 1 -7.556691,12.79019 10.511759,10.511759 0 0 1 -12.8004919,-7.53923 10.511759,10.511759 0 0 1 7.5217659,-12.81077" />
    <path
       style="fill:none;fill-rule:evenodd;stroke:#000000;stroke-width:2;stroke-linecap:round;stroke-linejoin:round;stroke-miterlimit:4;stroke-dasharray:none;stroke-opacity:1"
       d="m 26.288649,465.36753 2.817658,2.81766 0.07071,2.75771 6.858935,6.85894 2.74216,0.0552 2.616295,-2.61629 -0.05515,-2.74216 -6.858935,-6.85894 -2.757717,-0.0707 -2.828427,-2.82842 z"
       id="path2861-7-5"
       sodipodi:nodetypes="ccccccccccc" />
  </g>
</svg>
